G04 #@! TF.GenerationSoftware,KiCad,Pcbnew,8.0.3*
G04 #@! TF.CreationDate,2024-11-28T13:48:10+05:45*
G04 #@! TF.ProjectId,Watchdog-v1.0,57617463-6864-46f6-972d-76312e302e6b,rev?*
G04 #@! TF.SameCoordinates,Original*
G04 #@! TF.FileFunction,Soldermask,Top*
G04 #@! TF.FilePolarity,Negative*
%FSLAX46Y46*%
G04 Gerber Fmt 4.6, Leading zero omitted, Abs format (unit mm)*
G04 Created by KiCad (PCBNEW 8.0.3) date 2024-11-28 13:48:10*
%MOMM*%
%LPD*%
G01*
G04 APERTURE LIST*
G04 APERTURE END LIST*
G36*
X115326248Y-93947736D02*
G01*
X115345510Y-93954476D01*
X115358323Y-93956163D01*
X115401823Y-93974181D01*
X115451100Y-93991424D01*
X115460883Y-93998644D01*
X115465086Y-94000385D01*
X115511507Y-94036006D01*
X115557529Y-94069971D01*
X115591499Y-94116000D01*
X115627114Y-94162413D01*
X115628854Y-94166615D01*
X115636076Y-94176400D01*
X115653321Y-94225685D01*
X115671336Y-94269176D01*
X115673022Y-94281986D01*
X115679764Y-94301252D01*
X115687500Y-94383750D01*
X115687500Y-95296250D01*
X115679764Y-95378748D01*
X115673022Y-95398014D01*
X115671336Y-95410823D01*
X115653324Y-95454308D01*
X115636076Y-95503600D01*
X115628853Y-95513386D01*
X115627114Y-95517586D01*
X115591518Y-95563973D01*
X115557529Y-95610029D01*
X115511473Y-95644018D01*
X115465086Y-95679614D01*
X115460886Y-95681353D01*
X115451100Y-95688576D01*
X115401808Y-95705824D01*
X115358323Y-95723836D01*
X115345514Y-95725522D01*
X115326248Y-95732264D01*
X115243750Y-95740000D01*
X114756250Y-95740000D01*
X114673752Y-95732264D01*
X114654485Y-95725522D01*
X114641676Y-95723836D01*
X114598185Y-95705821D01*
X114548900Y-95688576D01*
X114539115Y-95681354D01*
X114534913Y-95679614D01*
X114488500Y-95643999D01*
X114442471Y-95610029D01*
X114408506Y-95564007D01*
X114372885Y-95517586D01*
X114371144Y-95513383D01*
X114363924Y-95503600D01*
X114346681Y-95454323D01*
X114328663Y-95410823D01*
X114326976Y-95398009D01*
X114320236Y-95378748D01*
X114312500Y-95296250D01*
X114312500Y-94383750D01*
X114320236Y-94301252D01*
X114326975Y-94281990D01*
X114328663Y-94269176D01*
X114346683Y-94225669D01*
X114363924Y-94176400D01*
X114371143Y-94166618D01*
X114372885Y-94162413D01*
X114408525Y-94115966D01*
X114442471Y-94069971D01*
X114488466Y-94036025D01*
X114534913Y-94000385D01*
X114539118Y-93998643D01*
X114548900Y-93991424D01*
X114598169Y-93974183D01*
X114641676Y-93956163D01*
X114654490Y-93954475D01*
X114673752Y-93947736D01*
X114756250Y-93940000D01*
X115243750Y-93940000D01*
X115326248Y-93947736D01*
G37*
G36*
X117201248Y-93947736D02*
G01*
X117220510Y-93954476D01*
X117233323Y-93956163D01*
X117276823Y-93974181D01*
X117326100Y-93991424D01*
X117335883Y-93998644D01*
X117340086Y-94000385D01*
X117386507Y-94036006D01*
X117432529Y-94069971D01*
X117466499Y-94116000D01*
X117502114Y-94162413D01*
X117503854Y-94166615D01*
X117511076Y-94176400D01*
X117528321Y-94225685D01*
X117546336Y-94269176D01*
X117548022Y-94281986D01*
X117554764Y-94301252D01*
X117562500Y-94383750D01*
X117562500Y-95296250D01*
X117554764Y-95378748D01*
X117548022Y-95398014D01*
X117546336Y-95410823D01*
X117528324Y-95454308D01*
X117511076Y-95503600D01*
X117503853Y-95513386D01*
X117502114Y-95517586D01*
X117466518Y-95563973D01*
X117432529Y-95610029D01*
X117386473Y-95644018D01*
X117340086Y-95679614D01*
X117335886Y-95681353D01*
X117326100Y-95688576D01*
X117276808Y-95705824D01*
X117233323Y-95723836D01*
X117220514Y-95725522D01*
X117201248Y-95732264D01*
X117118750Y-95740000D01*
X116631250Y-95740000D01*
X116548752Y-95732264D01*
X116529485Y-95725522D01*
X116516676Y-95723836D01*
X116473185Y-95705821D01*
X116423900Y-95688576D01*
X116414115Y-95681354D01*
X116409913Y-95679614D01*
X116363500Y-95643999D01*
X116317471Y-95610029D01*
X116283506Y-95564007D01*
X116247885Y-95517586D01*
X116246144Y-95513383D01*
X116238924Y-95503600D01*
X116221681Y-95454323D01*
X116203663Y-95410823D01*
X116201976Y-95398009D01*
X116195236Y-95378748D01*
X116187500Y-95296250D01*
X116187500Y-94383750D01*
X116195236Y-94301252D01*
X116201975Y-94281990D01*
X116203663Y-94269176D01*
X116221683Y-94225669D01*
X116238924Y-94176400D01*
X116246143Y-94166618D01*
X116247885Y-94162413D01*
X116283525Y-94115966D01*
X116317471Y-94069971D01*
X116363466Y-94036025D01*
X116409913Y-94000385D01*
X116414118Y-93998643D01*
X116423900Y-93991424D01*
X116473169Y-93974183D01*
X116516676Y-93956163D01*
X116529490Y-93954475D01*
X116548752Y-93947736D01*
X116631250Y-93940000D01*
X117118750Y-93940000D01*
X117201248Y-93947736D01*
G37*
G36*
X121247142Y-93623477D02*
G01*
X121279456Y-93629175D01*
X121284261Y-93631949D01*
X121298946Y-93635301D01*
X121319829Y-93651955D01*
X121373962Y-93656691D01*
X121433428Y-93635047D01*
X121464383Y-93620140D01*
X121478870Y-93618507D01*
X121479985Y-93618102D01*
X121491089Y-93617130D01*
X121510000Y-93615000D01*
X122010000Y-93615000D01*
X122031608Y-93619931D01*
X122033405Y-93620089D01*
X122072215Y-93620089D01*
X122081157Y-93620089D01*
X122138912Y-93628393D01*
X122147486Y-93630910D01*
X122147489Y-93630911D01*
X122218837Y-93651861D01*
X122275463Y-93668488D01*
X122328540Y-93692727D01*
X122448262Y-93769668D01*
X122492359Y-93807878D01*
X122585556Y-93915433D01*
X122617102Y-93964521D01*
X122676221Y-94093975D01*
X122692659Y-94149959D01*
X122712913Y-94290825D01*
X122715000Y-94320000D01*
X122715000Y-94820000D01*
X122712913Y-94849175D01*
X122692659Y-94990041D01*
X122676221Y-95046025D01*
X122617102Y-95175479D01*
X122585556Y-95224567D01*
X122492359Y-95332122D01*
X122448262Y-95370332D01*
X122328540Y-95447273D01*
X122275463Y-95471512D01*
X122138912Y-95511607D01*
X122081157Y-95519911D01*
X122072215Y-95519911D01*
X122056586Y-95519911D01*
X122050536Y-95520976D01*
X122028947Y-95522864D01*
X122010000Y-95525000D01*
X122004548Y-95525000D01*
X121520936Y-95525000D01*
X121510000Y-95525000D01*
X121472855Y-95516522D01*
X121440545Y-95510825D01*
X121435740Y-95508051D01*
X121421054Y-95504699D01*
X121400168Y-95488043D01*
X121346038Y-95483307D01*
X121286583Y-95504947D01*
X121255617Y-95519860D01*
X121241125Y-95521492D01*
X121240015Y-95521897D01*
X121228937Y-95522866D01*
X121210000Y-95525000D01*
X121204548Y-95525000D01*
X120720936Y-95525000D01*
X120710000Y-95525000D01*
X120688391Y-95520068D01*
X120686595Y-95519911D01*
X120638843Y-95519911D01*
X120581088Y-95511607D01*
X120444537Y-95471512D01*
X120391460Y-95447273D01*
X120271738Y-95370332D01*
X120227641Y-95332122D01*
X120134444Y-95224567D01*
X120102898Y-95175479D01*
X120086616Y-95139826D01*
X120047494Y-95054161D01*
X120047493Y-95054157D01*
X120043779Y-95046025D01*
X120027341Y-94990041D01*
X120026069Y-94981194D01*
X120026068Y-94981191D01*
X120007722Y-94853594D01*
X120007721Y-94853588D01*
X120007087Y-94849175D01*
X120005000Y-94820000D01*
X120005000Y-94320000D01*
X120007087Y-94290825D01*
X120007721Y-94286412D01*
X120007722Y-94286405D01*
X120026068Y-94158808D01*
X120026069Y-94158803D01*
X120027341Y-94149959D01*
X120043779Y-94093975D01*
X120047492Y-94085844D01*
X120047494Y-94085838D01*
X120099184Y-93972653D01*
X120099184Y-93972651D01*
X120102898Y-93964521D01*
X120134444Y-93915433D01*
X120227641Y-93807878D01*
X120271738Y-93769668D01*
X120391460Y-93692727D01*
X120444537Y-93668488D01*
X120453113Y-93665969D01*
X120453115Y-93665969D01*
X120572510Y-93630911D01*
X120572514Y-93630910D01*
X120581088Y-93628393D01*
X120638843Y-93620089D01*
X120663414Y-93620089D01*
X120669463Y-93619023D01*
X120691074Y-93617132D01*
X120710000Y-93615000D01*
X121210000Y-93615000D01*
X121247142Y-93623477D01*
G37*
G36*
X110837643Y-90826691D02*
G01*
X110870327Y-90830994D01*
X110878548Y-90834827D01*
X110898137Y-90838724D01*
X110924080Y-90856059D01*
X110935208Y-90861248D01*
X110941978Y-90868018D01*
X110963021Y-90882079D01*
X110977081Y-90903121D01*
X110983851Y-90909891D01*
X110989038Y-90921016D01*
X111006376Y-90946963D01*
X111010272Y-90966553D01*
X111014105Y-90974772D01*
X111018406Y-91007445D01*
X111021600Y-91023500D01*
X111021600Y-91455300D01*
X111018406Y-91471352D01*
X111014106Y-91504025D01*
X111010272Y-91512245D01*
X111006376Y-91531837D01*
X110996451Y-91546690D01*
X110996451Y-91592509D01*
X111006376Y-91607363D01*
X111010272Y-91626953D01*
X111014106Y-91635174D01*
X111018407Y-91667850D01*
X111021600Y-91683900D01*
X111021600Y-92115700D01*
X111018406Y-92131752D01*
X111014106Y-92164425D01*
X111010272Y-92172645D01*
X111006376Y-92192237D01*
X110996451Y-92207090D01*
X110996451Y-92252909D01*
X111006376Y-92267763D01*
X111010272Y-92287353D01*
X111014106Y-92295574D01*
X111018407Y-92328250D01*
X111021600Y-92344300D01*
X111021600Y-92776100D01*
X111018406Y-92792152D01*
X111014106Y-92824825D01*
X111010272Y-92833045D01*
X111006376Y-92852637D01*
X110996451Y-92867490D01*
X110996451Y-92913309D01*
X111006376Y-92928163D01*
X111010272Y-92947753D01*
X111014106Y-92955974D01*
X111018407Y-92988650D01*
X111021600Y-93004700D01*
X111021600Y-93436500D01*
X111018405Y-93452557D01*
X111014105Y-93485227D01*
X111010273Y-93493444D01*
X111006376Y-93513037D01*
X110989037Y-93538985D01*
X110983851Y-93550108D01*
X110977083Y-93556875D01*
X110963021Y-93577921D01*
X110941975Y-93591983D01*
X110935208Y-93598751D01*
X110924085Y-93603937D01*
X110898137Y-93621276D01*
X110878544Y-93625173D01*
X110870327Y-93629005D01*
X110837656Y-93633306D01*
X110821600Y-93636500D01*
X109500800Y-93636500D01*
X109484743Y-93633306D01*
X109452072Y-93629005D01*
X109443853Y-93625172D01*
X109424263Y-93621276D01*
X109398316Y-93603938D01*
X109387191Y-93598751D01*
X109380421Y-93591981D01*
X109359379Y-93577921D01*
X109345318Y-93556878D01*
X109338548Y-93550108D01*
X109333359Y-93538980D01*
X109316024Y-93513037D01*
X109312127Y-93493448D01*
X109308294Y-93485227D01*
X109303990Y-93452541D01*
X109300800Y-93436500D01*
X109300800Y-93004700D01*
X109303990Y-92988660D01*
X109308294Y-92955971D01*
X109312128Y-92947747D01*
X109316024Y-92928163D01*
X109325948Y-92913310D01*
X109325948Y-92867489D01*
X109316024Y-92852637D01*
X109312128Y-92833050D01*
X109308294Y-92824828D01*
X109303990Y-92792140D01*
X109300800Y-92776100D01*
X109300800Y-92344300D01*
X109303990Y-92328260D01*
X109308294Y-92295571D01*
X109312128Y-92287347D01*
X109316024Y-92267763D01*
X109325948Y-92252910D01*
X109325948Y-92207089D01*
X109316024Y-92192237D01*
X109312128Y-92172650D01*
X109308294Y-92164428D01*
X109303990Y-92131740D01*
X109300800Y-92115700D01*
X109300800Y-91683900D01*
X109303990Y-91667860D01*
X109308294Y-91635171D01*
X109312128Y-91626947D01*
X109316024Y-91607363D01*
X109325948Y-91592510D01*
X109325948Y-91546689D01*
X109316024Y-91531837D01*
X109312128Y-91512250D01*
X109308294Y-91504028D01*
X109303990Y-91471340D01*
X109300800Y-91455300D01*
X109300800Y-91023500D01*
X109303990Y-91007459D01*
X109308294Y-90974772D01*
X109312127Y-90966549D01*
X109316024Y-90946963D01*
X109333357Y-90921021D01*
X109338548Y-90909891D01*
X109345320Y-90903118D01*
X109359379Y-90882079D01*
X109380418Y-90868020D01*
X109387191Y-90861248D01*
X109398321Y-90856057D01*
X109424263Y-90838724D01*
X109443849Y-90834827D01*
X109452072Y-90830994D01*
X109484760Y-90826690D01*
X109500800Y-90823500D01*
X110821600Y-90823500D01*
X110837643Y-90826691D01*
G37*
G36*
X113225243Y-90826691D02*
G01*
X113257927Y-90830994D01*
X113266148Y-90834827D01*
X113285737Y-90838724D01*
X113311680Y-90856059D01*
X113322808Y-90861248D01*
X113329578Y-90868018D01*
X113350621Y-90882079D01*
X113364681Y-90903121D01*
X113371451Y-90909891D01*
X113376638Y-90921016D01*
X113393976Y-90946963D01*
X113397872Y-90966553D01*
X113401705Y-90974772D01*
X113406006Y-91007445D01*
X113409200Y-91023500D01*
X113409200Y-91455300D01*
X113406006Y-91471352D01*
X113401706Y-91504025D01*
X113397872Y-91512245D01*
X113393976Y-91531837D01*
X113384051Y-91546690D01*
X113384051Y-91592509D01*
X113393976Y-91607363D01*
X113397872Y-91626953D01*
X113401706Y-91635174D01*
X113406007Y-91667850D01*
X113409200Y-91683900D01*
X113409200Y-92115700D01*
X113406006Y-92131752D01*
X113401706Y-92164425D01*
X113397872Y-92172645D01*
X113393976Y-92192237D01*
X113384051Y-92207090D01*
X113384051Y-92252909D01*
X113393976Y-92267763D01*
X113397872Y-92287353D01*
X113401706Y-92295574D01*
X113406007Y-92328250D01*
X113409200Y-92344300D01*
X113409200Y-92776100D01*
X113406006Y-92792152D01*
X113401706Y-92824825D01*
X113397872Y-92833045D01*
X113393976Y-92852637D01*
X113384051Y-92867490D01*
X113384051Y-92913309D01*
X113393976Y-92928163D01*
X113397872Y-92947753D01*
X113401706Y-92955974D01*
X113406007Y-92988650D01*
X113409200Y-93004700D01*
X113409200Y-93436500D01*
X113406005Y-93452557D01*
X113401705Y-93485227D01*
X113397873Y-93493444D01*
X113393976Y-93513037D01*
X113376637Y-93538985D01*
X113371451Y-93550108D01*
X113364683Y-93556875D01*
X113350621Y-93577921D01*
X113329575Y-93591983D01*
X113322808Y-93598751D01*
X113311685Y-93603937D01*
X113285737Y-93621276D01*
X113266144Y-93625173D01*
X113257927Y-93629005D01*
X113225256Y-93633306D01*
X113209200Y-93636500D01*
X111888400Y-93636500D01*
X111872343Y-93633306D01*
X111839672Y-93629005D01*
X111831453Y-93625172D01*
X111811863Y-93621276D01*
X111785916Y-93603938D01*
X111774791Y-93598751D01*
X111768021Y-93591981D01*
X111746979Y-93577921D01*
X111732918Y-93556878D01*
X111726148Y-93550108D01*
X111720959Y-93538980D01*
X111703624Y-93513037D01*
X111699727Y-93493448D01*
X111695894Y-93485227D01*
X111691590Y-93452541D01*
X111688400Y-93436500D01*
X111688400Y-93004700D01*
X111691590Y-92988660D01*
X111695894Y-92955971D01*
X111699728Y-92947747D01*
X111703624Y-92928163D01*
X111713548Y-92913310D01*
X111713548Y-92867489D01*
X111703624Y-92852637D01*
X111699728Y-92833050D01*
X111695894Y-92824828D01*
X111691590Y-92792140D01*
X111688400Y-92776100D01*
X111688400Y-92344300D01*
X111691590Y-92328260D01*
X111695894Y-92295571D01*
X111699728Y-92287347D01*
X111703624Y-92267763D01*
X111713548Y-92252910D01*
X111713548Y-92207089D01*
X111703624Y-92192237D01*
X111699728Y-92172650D01*
X111695894Y-92164428D01*
X111691590Y-92131740D01*
X111688400Y-92115700D01*
X111688400Y-91683900D01*
X111691590Y-91667860D01*
X111695894Y-91635171D01*
X111699728Y-91626947D01*
X111703624Y-91607363D01*
X111713548Y-91592510D01*
X111713548Y-91546689D01*
X111703624Y-91531837D01*
X111699728Y-91512250D01*
X111695894Y-91504028D01*
X111691590Y-91471340D01*
X111688400Y-91455300D01*
X111688400Y-91023500D01*
X111691590Y-91007459D01*
X111695894Y-90974772D01*
X111699727Y-90966549D01*
X111703624Y-90946963D01*
X111720957Y-90921021D01*
X111726148Y-90909891D01*
X111732920Y-90903118D01*
X111746979Y-90882079D01*
X111768018Y-90868020D01*
X111774791Y-90861248D01*
X111785921Y-90856057D01*
X111811863Y-90838724D01*
X111831449Y-90834827D01*
X111839672Y-90830994D01*
X111872360Y-90826690D01*
X111888400Y-90823500D01*
X113209200Y-90823500D01*
X113225243Y-90826691D01*
G37*
G36*
X121257142Y-91083477D02*
G01*
X121289456Y-91089175D01*
X121294261Y-91091949D01*
X121308946Y-91095301D01*
X121329829Y-91111955D01*
X121383962Y-91116691D01*
X121443428Y-91095047D01*
X121474383Y-91080140D01*
X121488870Y-91078507D01*
X121489985Y-91078102D01*
X121501089Y-91077130D01*
X121520000Y-91075000D01*
X122020000Y-91075000D01*
X122041608Y-91079931D01*
X122043405Y-91080089D01*
X122082215Y-91080089D01*
X122091157Y-91080089D01*
X122148912Y-91088393D01*
X122157486Y-91090910D01*
X122157489Y-91090911D01*
X122228837Y-91111861D01*
X122285463Y-91128488D01*
X122338540Y-91152727D01*
X122458262Y-91229668D01*
X122502359Y-91267878D01*
X122595556Y-91375433D01*
X122627102Y-91424521D01*
X122686221Y-91553975D01*
X122702659Y-91609959D01*
X122722913Y-91750825D01*
X122725000Y-91780000D01*
X122725000Y-92280000D01*
X122722913Y-92309175D01*
X122702659Y-92450041D01*
X122686221Y-92506025D01*
X122627102Y-92635479D01*
X122595556Y-92684567D01*
X122502359Y-92792122D01*
X122458262Y-92830332D01*
X122338540Y-92907273D01*
X122285463Y-92931512D01*
X122148912Y-92971607D01*
X122091157Y-92979911D01*
X122082215Y-92979911D01*
X122066586Y-92979911D01*
X122060536Y-92980976D01*
X122038947Y-92982864D01*
X122020000Y-92985000D01*
X122014548Y-92985000D01*
X121530936Y-92985000D01*
X121520000Y-92985000D01*
X121482855Y-92976522D01*
X121450545Y-92970825D01*
X121445740Y-92968051D01*
X121431054Y-92964699D01*
X121410168Y-92948043D01*
X121356038Y-92943307D01*
X121296583Y-92964947D01*
X121265617Y-92979860D01*
X121251125Y-92981492D01*
X121250015Y-92981897D01*
X121238937Y-92982866D01*
X121220000Y-92985000D01*
X121214548Y-92985000D01*
X120730936Y-92985000D01*
X120720000Y-92985000D01*
X120698391Y-92980068D01*
X120696595Y-92979911D01*
X120648843Y-92979911D01*
X120591088Y-92971607D01*
X120454537Y-92931512D01*
X120401460Y-92907273D01*
X120281738Y-92830332D01*
X120237641Y-92792122D01*
X120144444Y-92684567D01*
X120112898Y-92635479D01*
X120063839Y-92528054D01*
X120057494Y-92514161D01*
X120057493Y-92514157D01*
X120053779Y-92506025D01*
X120037341Y-92450041D01*
X120036069Y-92441194D01*
X120036068Y-92441191D01*
X120017722Y-92313594D01*
X120017721Y-92313588D01*
X120017087Y-92309175D01*
X120015000Y-92280000D01*
X120015000Y-91780000D01*
X120017087Y-91750825D01*
X120017721Y-91746412D01*
X120017722Y-91746405D01*
X120036068Y-91618808D01*
X120036069Y-91618803D01*
X120037341Y-91609959D01*
X120053779Y-91553975D01*
X120057492Y-91545844D01*
X120057494Y-91545838D01*
X120109184Y-91432653D01*
X120109184Y-91432651D01*
X120112898Y-91424521D01*
X120144444Y-91375433D01*
X120237641Y-91267878D01*
X120281738Y-91229668D01*
X120401460Y-91152727D01*
X120454537Y-91128488D01*
X120463113Y-91125969D01*
X120463115Y-91125969D01*
X120582510Y-91090911D01*
X120582514Y-91090910D01*
X120591088Y-91088393D01*
X120648843Y-91080089D01*
X120673414Y-91080089D01*
X120679463Y-91079023D01*
X120701074Y-91077132D01*
X120720000Y-91075000D01*
X121220000Y-91075000D01*
X121257142Y-91083477D01*
G37*
G36*
X115356248Y-91187736D02*
G01*
X115375510Y-91194476D01*
X115388323Y-91196163D01*
X115431823Y-91214181D01*
X115481100Y-91231424D01*
X115490883Y-91238644D01*
X115495086Y-91240385D01*
X115541507Y-91276006D01*
X115587529Y-91309971D01*
X115621499Y-91356000D01*
X115657114Y-91402413D01*
X115658854Y-91406615D01*
X115666076Y-91416400D01*
X115683321Y-91465685D01*
X115701336Y-91509176D01*
X115703022Y-91521986D01*
X115709764Y-91541252D01*
X115717500Y-91623750D01*
X115717500Y-92536250D01*
X115709764Y-92618748D01*
X115703022Y-92638014D01*
X115701336Y-92650823D01*
X115683324Y-92694308D01*
X115666076Y-92743600D01*
X115658853Y-92753386D01*
X115657114Y-92757586D01*
X115621518Y-92803973D01*
X115587529Y-92850029D01*
X115541473Y-92884018D01*
X115495086Y-92919614D01*
X115490886Y-92921353D01*
X115481100Y-92928576D01*
X115431808Y-92945824D01*
X115388323Y-92963836D01*
X115375514Y-92965522D01*
X115356248Y-92972264D01*
X115273750Y-92980000D01*
X114786250Y-92980000D01*
X114703752Y-92972264D01*
X114684485Y-92965522D01*
X114671676Y-92963836D01*
X114628185Y-92945821D01*
X114578900Y-92928576D01*
X114569115Y-92921354D01*
X114564913Y-92919614D01*
X114518500Y-92883999D01*
X114472471Y-92850029D01*
X114438506Y-92804007D01*
X114402885Y-92757586D01*
X114401144Y-92753383D01*
X114393924Y-92743600D01*
X114376681Y-92694323D01*
X114358663Y-92650823D01*
X114356976Y-92638009D01*
X114350236Y-92618748D01*
X114342500Y-92536250D01*
X114342500Y-91623750D01*
X114350236Y-91541252D01*
X114356975Y-91521990D01*
X114358663Y-91509176D01*
X114376683Y-91465669D01*
X114393924Y-91416400D01*
X114401143Y-91406618D01*
X114402885Y-91402413D01*
X114438525Y-91355966D01*
X114472471Y-91309971D01*
X114518466Y-91276025D01*
X114564913Y-91240385D01*
X114569118Y-91238643D01*
X114578900Y-91231424D01*
X114628169Y-91214183D01*
X114671676Y-91196163D01*
X114684490Y-91194475D01*
X114703752Y-91187736D01*
X114786250Y-91180000D01*
X115273750Y-91180000D01*
X115356248Y-91187736D01*
G37*
G36*
X117231248Y-91187736D02*
G01*
X117250510Y-91194476D01*
X117263323Y-91196163D01*
X117306823Y-91214181D01*
X117356100Y-91231424D01*
X117365883Y-91238644D01*
X117370086Y-91240385D01*
X117416507Y-91276006D01*
X117462529Y-91309971D01*
X117496499Y-91356000D01*
X117532114Y-91402413D01*
X117533854Y-91406615D01*
X117541076Y-91416400D01*
X117558321Y-91465685D01*
X117576336Y-91509176D01*
X117578022Y-91521986D01*
X117584764Y-91541252D01*
X117592500Y-91623750D01*
X117592500Y-92536250D01*
X117584764Y-92618748D01*
X117578022Y-92638014D01*
X117576336Y-92650823D01*
X117558324Y-92694308D01*
X117541076Y-92743600D01*
X117533853Y-92753386D01*
X117532114Y-92757586D01*
X117496518Y-92803973D01*
X117462529Y-92850029D01*
X117416473Y-92884018D01*
X117370086Y-92919614D01*
X117365886Y-92921353D01*
X117356100Y-92928576D01*
X117306808Y-92945824D01*
X117263323Y-92963836D01*
X117250514Y-92965522D01*
X117231248Y-92972264D01*
X117148750Y-92980000D01*
X116661250Y-92980000D01*
X116578752Y-92972264D01*
X116559485Y-92965522D01*
X116546676Y-92963836D01*
X116503185Y-92945821D01*
X116453900Y-92928576D01*
X116444115Y-92921354D01*
X116439913Y-92919614D01*
X116393500Y-92883999D01*
X116347471Y-92850029D01*
X116313506Y-92804007D01*
X116277885Y-92757586D01*
X116276144Y-92753383D01*
X116268924Y-92743600D01*
X116251681Y-92694323D01*
X116233663Y-92650823D01*
X116231976Y-92638009D01*
X116225236Y-92618748D01*
X116217500Y-92536250D01*
X116217500Y-91623750D01*
X116225236Y-91541252D01*
X116231975Y-91521990D01*
X116233663Y-91509176D01*
X116251683Y-91465669D01*
X116268924Y-91416400D01*
X116276143Y-91406618D01*
X116277885Y-91402413D01*
X116313525Y-91355966D01*
X116347471Y-91309971D01*
X116393466Y-91276025D01*
X116439913Y-91240385D01*
X116444118Y-91238643D01*
X116453900Y-91231424D01*
X116503169Y-91214183D01*
X116546676Y-91196163D01*
X116559490Y-91194475D01*
X116578752Y-91187736D01*
X116661250Y-91180000D01*
X117148750Y-91180000D01*
X117231248Y-91187736D01*
G37*
G36*
X115236248Y-88677736D02*
G01*
X115255510Y-88684476D01*
X115268323Y-88686163D01*
X115311823Y-88704181D01*
X115361100Y-88721424D01*
X115370883Y-88728644D01*
X115375086Y-88730385D01*
X115421507Y-88766006D01*
X115467529Y-88799971D01*
X115501499Y-88846000D01*
X115537114Y-88892413D01*
X115538854Y-88896615D01*
X115546076Y-88906400D01*
X115563321Y-88955685D01*
X115581336Y-88999176D01*
X115583022Y-89011986D01*
X115589764Y-89031252D01*
X115597500Y-89113750D01*
X115597500Y-90026250D01*
X115589764Y-90108748D01*
X115583022Y-90128014D01*
X115581336Y-90140823D01*
X115563324Y-90184308D01*
X115546076Y-90233600D01*
X115538853Y-90243386D01*
X115537114Y-90247586D01*
X115501518Y-90293973D01*
X115467529Y-90340029D01*
X115421473Y-90374018D01*
X115375086Y-90409614D01*
X115370886Y-90411353D01*
X115361100Y-90418576D01*
X115311808Y-90435824D01*
X115268323Y-90453836D01*
X115255514Y-90455522D01*
X115236248Y-90462264D01*
X115153750Y-90470000D01*
X114666250Y-90470000D01*
X114583752Y-90462264D01*
X114564485Y-90455522D01*
X114551676Y-90453836D01*
X114508185Y-90435821D01*
X114458900Y-90418576D01*
X114449115Y-90411354D01*
X114444913Y-90409614D01*
X114398500Y-90373999D01*
X114352471Y-90340029D01*
X114318506Y-90294007D01*
X114282885Y-90247586D01*
X114281144Y-90243383D01*
X114273924Y-90233600D01*
X114256681Y-90184323D01*
X114238663Y-90140823D01*
X114236976Y-90128009D01*
X114230236Y-90108748D01*
X114222500Y-90026250D01*
X114222500Y-89113750D01*
X114230236Y-89031252D01*
X114236975Y-89011990D01*
X114238663Y-88999176D01*
X114256683Y-88955669D01*
X114273924Y-88906400D01*
X114281143Y-88896618D01*
X114282885Y-88892413D01*
X114318525Y-88845966D01*
X114352471Y-88799971D01*
X114398466Y-88766025D01*
X114444913Y-88730385D01*
X114449118Y-88728643D01*
X114458900Y-88721424D01*
X114508169Y-88704183D01*
X114551676Y-88686163D01*
X114564490Y-88684475D01*
X114583752Y-88677736D01*
X114666250Y-88670000D01*
X115153750Y-88670000D01*
X115236248Y-88677736D01*
G37*
G36*
X117111248Y-88677736D02*
G01*
X117130510Y-88684476D01*
X117143323Y-88686163D01*
X117186823Y-88704181D01*
X117236100Y-88721424D01*
X117245883Y-88728644D01*
X117250086Y-88730385D01*
X117296507Y-88766006D01*
X117342529Y-88799971D01*
X117376499Y-88846000D01*
X117412114Y-88892413D01*
X117413854Y-88896615D01*
X117421076Y-88906400D01*
X117438321Y-88955685D01*
X117456336Y-88999176D01*
X117458022Y-89011986D01*
X117464764Y-89031252D01*
X117472500Y-89113750D01*
X117472500Y-90026250D01*
X117464764Y-90108748D01*
X117458022Y-90128014D01*
X117456336Y-90140823D01*
X117438324Y-90184308D01*
X117421076Y-90233600D01*
X117413853Y-90243386D01*
X117412114Y-90247586D01*
X117376518Y-90293973D01*
X117342529Y-90340029D01*
X117296473Y-90374018D01*
X117250086Y-90409614D01*
X117245886Y-90411353D01*
X117236100Y-90418576D01*
X117186808Y-90435824D01*
X117143323Y-90453836D01*
X117130514Y-90455522D01*
X117111248Y-90462264D01*
X117028750Y-90470000D01*
X116541250Y-90470000D01*
X116458752Y-90462264D01*
X116439485Y-90455522D01*
X116426676Y-90453836D01*
X116383185Y-90435821D01*
X116333900Y-90418576D01*
X116324115Y-90411354D01*
X116319913Y-90409614D01*
X116273500Y-90373999D01*
X116227471Y-90340029D01*
X116193506Y-90294007D01*
X116157885Y-90247586D01*
X116156144Y-90243383D01*
X116148924Y-90233600D01*
X116131681Y-90184323D01*
X116113663Y-90140823D01*
X116111976Y-90128009D01*
X116105236Y-90108748D01*
X116097500Y-90026250D01*
X116097500Y-89113750D01*
X116105236Y-89031252D01*
X116111975Y-89011990D01*
X116113663Y-88999176D01*
X116131683Y-88955669D01*
X116148924Y-88906400D01*
X116156143Y-88896618D01*
X116157885Y-88892413D01*
X116193525Y-88845966D01*
X116227471Y-88799971D01*
X116273466Y-88766025D01*
X116319913Y-88730385D01*
X116324118Y-88728643D01*
X116333900Y-88721424D01*
X116383169Y-88704183D01*
X116426676Y-88686163D01*
X116439490Y-88684475D01*
X116458752Y-88677736D01*
X116541250Y-88670000D01*
X117028750Y-88670000D01*
X117111248Y-88677736D01*
G37*
G36*
X121247142Y-88403477D02*
G01*
X121279456Y-88409175D01*
X121284261Y-88411949D01*
X121298946Y-88415301D01*
X121319829Y-88431955D01*
X121373962Y-88436691D01*
X121433428Y-88415047D01*
X121464383Y-88400140D01*
X121478870Y-88398507D01*
X121479985Y-88398102D01*
X121491089Y-88397130D01*
X121510000Y-88395000D01*
X122010000Y-88395000D01*
X122031608Y-88399931D01*
X122033405Y-88400089D01*
X122072215Y-88400089D01*
X122081157Y-88400089D01*
X122138912Y-88408393D01*
X122147486Y-88410910D01*
X122147489Y-88410911D01*
X122218837Y-88431861D01*
X122275463Y-88448488D01*
X122328540Y-88472727D01*
X122448262Y-88549668D01*
X122492359Y-88587878D01*
X122585556Y-88695433D01*
X122617102Y-88744521D01*
X122676221Y-88873975D01*
X122692659Y-88929959D01*
X122712913Y-89070825D01*
X122715000Y-89100000D01*
X122715000Y-89600000D01*
X122712913Y-89629175D01*
X122692659Y-89770041D01*
X122676221Y-89826025D01*
X122617102Y-89955479D01*
X122585556Y-90004567D01*
X122492359Y-90112122D01*
X122448262Y-90150332D01*
X122328540Y-90227273D01*
X122275463Y-90251512D01*
X122138912Y-90291607D01*
X122081157Y-90299911D01*
X122072215Y-90299911D01*
X122056586Y-90299911D01*
X122050536Y-90300976D01*
X122028947Y-90302864D01*
X122010000Y-90305000D01*
X122004548Y-90305000D01*
X121520936Y-90305000D01*
X121510000Y-90305000D01*
X121472855Y-90296522D01*
X121440545Y-90290825D01*
X121435740Y-90288051D01*
X121421054Y-90284699D01*
X121400168Y-90268043D01*
X121346038Y-90263307D01*
X121286583Y-90284947D01*
X121255617Y-90299860D01*
X121241125Y-90301492D01*
X121240015Y-90301897D01*
X121228937Y-90302866D01*
X121210000Y-90305000D01*
X121204548Y-90305000D01*
X120720936Y-90305000D01*
X120710000Y-90305000D01*
X120688391Y-90300068D01*
X120686595Y-90299911D01*
X120638843Y-90299911D01*
X120581088Y-90291607D01*
X120444537Y-90251512D01*
X120391460Y-90227273D01*
X120271738Y-90150332D01*
X120227641Y-90112122D01*
X120134444Y-90004567D01*
X120102898Y-89955479D01*
X120086616Y-89919826D01*
X120047494Y-89834161D01*
X120047493Y-89834157D01*
X120043779Y-89826025D01*
X120027341Y-89770041D01*
X120026069Y-89761194D01*
X120026068Y-89761191D01*
X120007722Y-89633594D01*
X120007721Y-89633588D01*
X120007087Y-89629175D01*
X120005000Y-89600000D01*
X120005000Y-89100000D01*
X120007087Y-89070825D01*
X120007721Y-89066412D01*
X120007722Y-89066405D01*
X120026068Y-88938808D01*
X120026069Y-88938803D01*
X120027341Y-88929959D01*
X120043779Y-88873975D01*
X120047492Y-88865844D01*
X120047494Y-88865838D01*
X120099184Y-88752653D01*
X120099184Y-88752651D01*
X120102898Y-88744521D01*
X120134444Y-88695433D01*
X120142477Y-88686163D01*
X120172310Y-88651732D01*
X120227641Y-88587878D01*
X120271738Y-88549668D01*
X120391460Y-88472727D01*
X120444537Y-88448488D01*
X120453113Y-88445969D01*
X120453115Y-88445969D01*
X120572510Y-88410911D01*
X120572514Y-88410910D01*
X120581088Y-88408393D01*
X120638843Y-88400089D01*
X120663414Y-88400089D01*
X120669463Y-88399023D01*
X120691074Y-88397132D01*
X120710000Y-88395000D01*
X121210000Y-88395000D01*
X121247142Y-88403477D01*
G37*
G36*
X115285889Y-82525012D02*
G01*
X115331830Y-82525012D01*
X115382988Y-82534575D01*
X115439845Y-82540175D01*
X115483042Y-82553278D01*
X115522202Y-82560599D01*
X115576438Y-82581609D01*
X115636818Y-82599926D01*
X115671315Y-82618365D01*
X115702786Y-82630557D01*
X115757469Y-82664415D01*
X115818349Y-82696957D01*
X115843929Y-82717950D01*
X115867442Y-82732509D01*
X115919546Y-82780008D01*
X115977462Y-82827538D01*
X115994621Y-82848446D01*
X116010564Y-82862980D01*
X116056838Y-82924258D01*
X116108043Y-82986651D01*
X116117947Y-83005180D01*
X116127273Y-83017530D01*
X116164372Y-83092034D01*
X116205074Y-83168182D01*
X116209415Y-83182492D01*
X116213596Y-83190889D01*
X116238295Y-83277697D01*
X116264825Y-83365155D01*
X116265696Y-83374003D01*
X116266594Y-83377158D01*
X116275933Y-83477944D01*
X116285000Y-83570000D01*
X116275932Y-83662063D01*
X116266594Y-83762841D01*
X116265696Y-83765994D01*
X116264825Y-83774845D01*
X116238290Y-83862317D01*
X116213596Y-83949110D01*
X116209415Y-83957504D01*
X116205074Y-83971818D01*
X116164364Y-84047979D01*
X116127273Y-84122469D01*
X116117949Y-84134815D01*
X116108043Y-84153349D01*
X116056829Y-84215752D01*
X116010564Y-84277019D01*
X115994624Y-84291549D01*
X115977462Y-84312462D01*
X115919535Y-84360000D01*
X115867442Y-84407490D01*
X115843934Y-84422045D01*
X115818349Y-84443043D01*
X115757457Y-84475590D01*
X115702786Y-84509442D01*
X115671321Y-84521631D01*
X115636818Y-84540074D01*
X115576426Y-84558393D01*
X115522202Y-84579400D01*
X115483049Y-84586719D01*
X115439845Y-84599825D01*
X115382985Y-84605425D01*
X115331830Y-84614988D01*
X115285889Y-84614988D01*
X115235000Y-84620000D01*
X115184111Y-84614988D01*
X115138170Y-84614988D01*
X115087014Y-84605424D01*
X115030155Y-84599825D01*
X114986952Y-84586719D01*
X114947797Y-84579400D01*
X114893569Y-84558392D01*
X114833182Y-84540074D01*
X114798680Y-84521632D01*
X114767213Y-84509442D01*
X114712535Y-84475586D01*
X114651651Y-84443043D01*
X114626068Y-84422047D01*
X114602557Y-84407490D01*
X114550454Y-84359992D01*
X114492538Y-84312462D01*
X114475378Y-84291553D01*
X114459435Y-84277019D01*
X114413158Y-84215737D01*
X114361957Y-84153349D01*
X114352053Y-84134820D01*
X114342726Y-84122469D01*
X114305620Y-84047951D01*
X114264926Y-83971818D01*
X114260585Y-83957509D01*
X114256403Y-83949110D01*
X114231693Y-83862264D01*
X114205175Y-83774845D01*
X114204303Y-83766000D01*
X114203405Y-83762841D01*
X114194050Y-83661891D01*
X114185000Y-83570000D01*
X114194049Y-83478116D01*
X114203405Y-83377158D01*
X114204304Y-83373998D01*
X114205175Y-83365155D01*
X114231688Y-83277750D01*
X114256403Y-83190889D01*
X114260586Y-83182487D01*
X114264926Y-83168182D01*
X114305613Y-83092061D01*
X114342726Y-83017530D01*
X114352054Y-83005176D01*
X114361957Y-82986651D01*
X114413148Y-82924274D01*
X114459435Y-82862980D01*
X114475381Y-82848442D01*
X114492538Y-82827538D01*
X114550443Y-82780016D01*
X114602557Y-82732509D01*
X114626073Y-82717948D01*
X114651651Y-82696957D01*
X114712523Y-82664419D01*
X114767213Y-82630557D01*
X114798687Y-82618363D01*
X114833182Y-82599926D01*
X114893557Y-82581611D01*
X114947797Y-82560599D01*
X114986959Y-82553278D01*
X115030155Y-82540175D01*
X115087011Y-82534575D01*
X115138170Y-82525012D01*
X115184111Y-82525012D01*
X115235000Y-82520000D01*
X115285889Y-82525012D01*
G37*
G36*
X117825889Y-82525012D02*
G01*
X117871830Y-82525012D01*
X117922988Y-82534575D01*
X117979845Y-82540175D01*
X118023042Y-82553278D01*
X118062202Y-82560599D01*
X118116438Y-82581609D01*
X118176818Y-82599926D01*
X118211315Y-82618365D01*
X118242786Y-82630557D01*
X118297469Y-82664415D01*
X118358349Y-82696957D01*
X118383929Y-82717950D01*
X118407442Y-82732509D01*
X118459546Y-82780008D01*
X118517462Y-82827538D01*
X118534621Y-82848446D01*
X118550564Y-82862980D01*
X118596838Y-82924258D01*
X118648043Y-82986651D01*
X118657947Y-83005180D01*
X118667273Y-83017530D01*
X118704372Y-83092034D01*
X118745074Y-83168182D01*
X118749415Y-83182492D01*
X118753596Y-83190889D01*
X118778295Y-83277697D01*
X118804825Y-83365155D01*
X118805696Y-83374003D01*
X118806594Y-83377158D01*
X118815933Y-83477944D01*
X118825000Y-83570000D01*
X118815932Y-83662063D01*
X118806594Y-83762841D01*
X118805696Y-83765994D01*
X118804825Y-83774845D01*
X118778290Y-83862317D01*
X118753596Y-83949110D01*
X118749415Y-83957504D01*
X118745074Y-83971818D01*
X118704364Y-84047979D01*
X118667273Y-84122469D01*
X118657949Y-84134815D01*
X118648043Y-84153349D01*
X118596829Y-84215752D01*
X118550564Y-84277019D01*
X118534624Y-84291549D01*
X118517462Y-84312462D01*
X118459535Y-84360000D01*
X118407442Y-84407490D01*
X118383934Y-84422045D01*
X118358349Y-84443043D01*
X118297457Y-84475590D01*
X118242786Y-84509442D01*
X118211321Y-84521631D01*
X118176818Y-84540074D01*
X118116426Y-84558393D01*
X118062202Y-84579400D01*
X118023049Y-84586719D01*
X117979845Y-84599825D01*
X117922985Y-84605425D01*
X117871830Y-84614988D01*
X117825889Y-84614988D01*
X117775000Y-84620000D01*
X117724111Y-84614988D01*
X117678170Y-84614988D01*
X117627014Y-84605424D01*
X117570155Y-84599825D01*
X117526952Y-84586719D01*
X117487797Y-84579400D01*
X117433569Y-84558392D01*
X117373182Y-84540074D01*
X117338680Y-84521632D01*
X117307213Y-84509442D01*
X117252535Y-84475586D01*
X117191651Y-84443043D01*
X117166068Y-84422047D01*
X117142557Y-84407490D01*
X117090454Y-84359992D01*
X117032538Y-84312462D01*
X117015378Y-84291553D01*
X116999435Y-84277019D01*
X116953158Y-84215737D01*
X116901957Y-84153349D01*
X116892053Y-84134820D01*
X116882726Y-84122469D01*
X116845620Y-84047951D01*
X116804926Y-83971818D01*
X116800585Y-83957509D01*
X116796403Y-83949110D01*
X116771693Y-83862264D01*
X116745175Y-83774845D01*
X116744303Y-83766000D01*
X116743405Y-83762841D01*
X116734050Y-83661891D01*
X116725000Y-83570000D01*
X116734049Y-83478116D01*
X116743405Y-83377158D01*
X116744304Y-83373998D01*
X116745175Y-83365155D01*
X116771688Y-83277750D01*
X116796403Y-83190889D01*
X116800586Y-83182487D01*
X116804926Y-83168182D01*
X116845613Y-83092061D01*
X116882726Y-83017530D01*
X116892054Y-83005176D01*
X116901957Y-82986651D01*
X116953148Y-82924274D01*
X116999435Y-82862980D01*
X117015381Y-82848442D01*
X117032538Y-82827538D01*
X117090443Y-82780016D01*
X117142557Y-82732509D01*
X117166073Y-82717948D01*
X117191651Y-82696957D01*
X117252523Y-82664419D01*
X117307213Y-82630557D01*
X117338687Y-82618363D01*
X117373182Y-82599926D01*
X117433557Y-82581611D01*
X117487797Y-82560599D01*
X117526959Y-82553278D01*
X117570155Y-82540175D01*
X117627011Y-82534575D01*
X117678170Y-82525012D01*
X117724111Y-82525012D01*
X117775000Y-82520000D01*
X117825889Y-82525012D01*
G37*
G36*
X120365889Y-82525012D02*
G01*
X120411830Y-82525012D01*
X120462988Y-82534575D01*
X120519845Y-82540175D01*
X120563042Y-82553278D01*
X120602202Y-82560599D01*
X120656438Y-82581609D01*
X120716818Y-82599926D01*
X120751315Y-82618365D01*
X120782786Y-82630557D01*
X120837469Y-82664415D01*
X120898349Y-82696957D01*
X120923929Y-82717950D01*
X120947442Y-82732509D01*
X120999546Y-82780008D01*
X121057462Y-82827538D01*
X121074621Y-82848446D01*
X121090564Y-82862980D01*
X121136838Y-82924258D01*
X121188043Y-82986651D01*
X121197947Y-83005180D01*
X121207273Y-83017530D01*
X121244372Y-83092034D01*
X121285074Y-83168182D01*
X121289415Y-83182492D01*
X121293596Y-83190889D01*
X121318295Y-83277697D01*
X121344825Y-83365155D01*
X121345696Y-83374003D01*
X121346594Y-83377158D01*
X121355933Y-83477944D01*
X121365000Y-83570000D01*
X121355932Y-83662063D01*
X121346594Y-83762841D01*
X121345696Y-83765994D01*
X121344825Y-83774845D01*
X121318290Y-83862317D01*
X121293596Y-83949110D01*
X121289415Y-83957504D01*
X121285074Y-83971818D01*
X121244364Y-84047979D01*
X121207273Y-84122469D01*
X121197949Y-84134815D01*
X121188043Y-84153349D01*
X121136829Y-84215752D01*
X121090564Y-84277019D01*
X121074624Y-84291549D01*
X121057462Y-84312462D01*
X120999535Y-84360000D01*
X120947442Y-84407490D01*
X120923934Y-84422045D01*
X120898349Y-84443043D01*
X120837457Y-84475590D01*
X120782786Y-84509442D01*
X120751321Y-84521631D01*
X120716818Y-84540074D01*
X120656426Y-84558393D01*
X120602202Y-84579400D01*
X120563049Y-84586719D01*
X120519845Y-84599825D01*
X120462985Y-84605425D01*
X120411830Y-84614988D01*
X120365889Y-84614988D01*
X120315000Y-84620000D01*
X120264111Y-84614988D01*
X120218170Y-84614988D01*
X120167014Y-84605424D01*
X120110155Y-84599825D01*
X120066952Y-84586719D01*
X120027797Y-84579400D01*
X119973569Y-84558392D01*
X119913182Y-84540074D01*
X119878680Y-84521632D01*
X119847213Y-84509442D01*
X119792535Y-84475586D01*
X119731651Y-84443043D01*
X119706068Y-84422047D01*
X119682557Y-84407490D01*
X119630454Y-84359992D01*
X119572538Y-84312462D01*
X119555378Y-84291553D01*
X119539435Y-84277019D01*
X119493158Y-84215737D01*
X119441957Y-84153349D01*
X119432053Y-84134820D01*
X119422726Y-84122469D01*
X119385620Y-84047951D01*
X119344926Y-83971818D01*
X119340585Y-83957509D01*
X119336403Y-83949110D01*
X119311693Y-83862264D01*
X119285175Y-83774845D01*
X119284303Y-83766000D01*
X119283405Y-83762841D01*
X119274050Y-83661891D01*
X119265000Y-83570000D01*
X119274049Y-83478116D01*
X119283405Y-83377158D01*
X119284304Y-83373998D01*
X119285175Y-83365155D01*
X119311688Y-83277750D01*
X119336403Y-83190889D01*
X119340586Y-83182487D01*
X119344926Y-83168182D01*
X119385613Y-83092061D01*
X119422726Y-83017530D01*
X119432054Y-83005176D01*
X119441957Y-82986651D01*
X119493148Y-82924274D01*
X119539435Y-82862980D01*
X119555381Y-82848442D01*
X119572538Y-82827538D01*
X119630443Y-82780016D01*
X119682557Y-82732509D01*
X119706073Y-82717948D01*
X119731651Y-82696957D01*
X119792523Y-82664419D01*
X119847213Y-82630557D01*
X119878687Y-82618363D01*
X119913182Y-82599926D01*
X119973557Y-82581611D01*
X120027797Y-82560599D01*
X120066959Y-82553278D01*
X120110155Y-82540175D01*
X120167011Y-82534575D01*
X120218170Y-82525012D01*
X120264111Y-82525012D01*
X120315000Y-82520000D01*
X120365889Y-82525012D01*
G37*
G36*
X123721043Y-82523191D02*
G01*
X123753727Y-82527494D01*
X123761948Y-82531327D01*
X123781537Y-82535224D01*
X123807480Y-82552559D01*
X123818608Y-82557748D01*
X123825378Y-82564518D01*
X123846421Y-82578579D01*
X123860481Y-82599621D01*
X123867251Y-82606391D01*
X123872438Y-82617516D01*
X123889776Y-82643463D01*
X123893672Y-82663053D01*
X123897505Y-82671272D01*
X123901806Y-82703945D01*
X123905000Y-82720000D01*
X123905000Y-84420000D01*
X123901805Y-84436058D01*
X123897505Y-84468727D01*
X123893673Y-84476944D01*
X123889776Y-84496537D01*
X123872437Y-84522485D01*
X123867251Y-84533608D01*
X123860483Y-84540375D01*
X123846421Y-84561421D01*
X123825375Y-84575483D01*
X123818608Y-84582251D01*
X123807485Y-84587437D01*
X123781537Y-84604776D01*
X123761944Y-84608673D01*
X123753727Y-84612505D01*
X123721056Y-84616806D01*
X123705000Y-84620000D01*
X122005000Y-84620000D01*
X121988943Y-84616806D01*
X121956272Y-84612505D01*
X121948053Y-84608672D01*
X121928463Y-84604776D01*
X121902516Y-84587438D01*
X121891391Y-84582251D01*
X121884621Y-84575481D01*
X121863579Y-84561421D01*
X121849518Y-84540378D01*
X121842748Y-84533608D01*
X121837559Y-84522480D01*
X121820224Y-84496537D01*
X121816327Y-84476948D01*
X121812494Y-84468727D01*
X121808190Y-84436041D01*
X121805000Y-84420000D01*
X121805000Y-82720000D01*
X121808190Y-82703958D01*
X121812494Y-82671272D01*
X121816327Y-82663049D01*
X121820224Y-82643463D01*
X121837557Y-82617521D01*
X121842748Y-82606391D01*
X121849520Y-82599618D01*
X121863579Y-82578579D01*
X121884618Y-82564520D01*
X121891391Y-82557748D01*
X121902521Y-82552557D01*
X121928463Y-82535224D01*
X121948049Y-82531327D01*
X121956272Y-82527494D01*
X121988960Y-82523190D01*
X122005000Y-82520000D01*
X123705000Y-82520000D01*
X123721043Y-82523191D01*
G37*
M02*
