G04 #@! TF.GenerationSoftware,KiCad,Pcbnew,8.0.3*
G04 #@! TF.CreationDate,2024-11-28T13:48:10+05:45*
G04 #@! TF.ProjectId,Watchdog-v1.0,57617463-6864-46f6-972d-76312e302e6b,rev?*
G04 #@! TF.SameCoordinates,Original*
G04 #@! TF.FileFunction,Copper,L1,Top*
G04 #@! TF.FilePolarity,Positive*
%FSLAX46Y46*%
G04 Gerber Fmt 4.6, Leading zero omitted, Abs format (unit mm)*
G04 Created by KiCad (PCBNEW 8.0.3) date 2024-11-28 13:48:10*
%MOMM*%
%LPD*%
G01*
G04 APERTURE LIST*
G04 Aperture macros list*
%AMRoundRect*
0 Rectangle with rounded corners*
0 $1 Rounding radius*
0 $2 $3 $4 $5 $6 $7 $8 $9 X,Y pos of 4 corners*
0 Add a 4 corners polygon primitive as box body*
4,1,4,$2,$3,$4,$5,$6,$7,$8,$9,$2,$3,0*
0 Add four circle primitives for the rounded corners*
1,1,$1+$1,$2,$3*
1,1,$1+$1,$4,$5*
1,1,$1+$1,$6,$7*
1,1,$1+$1,$8,$9*
0 Add four rect primitives between the rounded corners*
20,1,$1+$1,$2,$3,$4,$5,0*
20,1,$1+$1,$4,$5,$6,$7,0*
20,1,$1+$1,$6,$7,$8,$9,0*
20,1,$1+$1,$8,$9,$2,$3,0*%
%AMFreePoly0*
4,1,19,0.500000,-0.750000,0.000000,-0.750000,0.000000,-0.744911,-0.071157,-0.744911,-0.207708,-0.704816,-0.327430,-0.627875,-0.420627,-0.520320,-0.479746,-0.390866,-0.500000,-0.250000,-0.500000,0.250000,-0.479746,0.390866,-0.420627,0.520320,-0.327430,0.627875,-0.207708,0.704816,-0.071157,0.744911,0.000000,0.744911,0.000000,0.750000,0.500000,0.750000,0.500000,-0.750000,0.500000,-0.750000,
$1*%
%AMFreePoly1*
4,1,19,0.000000,0.744911,0.071157,0.744911,0.207708,0.704816,0.327430,0.627875,0.420627,0.520320,0.479746,0.390866,0.500000,0.250000,0.500000,-0.250000,0.479746,-0.390866,0.420627,-0.520320,0.327430,-0.627875,0.207708,-0.704816,0.071157,-0.744911,0.000000,-0.744911,0.000000,-0.750000,-0.500000,-0.750000,-0.500000,0.750000,0.000000,0.750000,0.000000,0.744911,0.000000,0.744911,
$1*%
G04 Aperture macros list end*
G04 #@! TA.AperFunction,SMDPad,CuDef*
%ADD10RoundRect,0.243750X-0.243750X-0.456250X0.243750X-0.456250X0.243750X0.456250X-0.243750X0.456250X0*%
G04 #@! TD*
G04 #@! TA.AperFunction,SMDPad,CuDef*
%ADD11RoundRect,0.243750X0.243750X0.456250X-0.243750X0.456250X-0.243750X-0.456250X0.243750X-0.456250X0*%
G04 #@! TD*
G04 #@! TA.AperFunction,SMDPad,CuDef*
%ADD12R,1.320800X0.431800*%
G04 #@! TD*
G04 #@! TA.AperFunction,SMDPad,CuDef*
%ADD13FreePoly0,180.000000*%
G04 #@! TD*
G04 #@! TA.AperFunction,SMDPad,CuDef*
%ADD14FreePoly1,180.000000*%
G04 #@! TD*
G04 #@! TA.AperFunction,ComponentPad*
%ADD15R,1.700000X1.700000*%
G04 #@! TD*
G04 #@! TA.AperFunction,ComponentPad*
%ADD16O,1.700000X1.700000*%
G04 #@! TD*
G04 #@! TA.AperFunction,ViaPad*
%ADD17C,0.600000*%
G04 #@! TD*
G04 #@! TA.AperFunction,Conductor*
%ADD18C,0.200000*%
G04 #@! TD*
G04 #@! TA.AperFunction,Conductor*
%ADD19C,0.800000*%
G04 #@! TD*
G04 APERTURE END LIST*
D10*
X115000000Y-94840000D03*
X116875000Y-94840000D03*
D11*
X116785000Y-89570000D03*
X114910000Y-89570000D03*
X116905000Y-92080000D03*
X115030000Y-92080000D03*
D12*
X110161200Y-91239400D03*
X110161200Y-91899800D03*
X110161200Y-92560200D03*
X110161200Y-93220600D03*
X112548800Y-93220600D03*
X112548800Y-92560200D03*
X112548800Y-91899800D03*
X112548800Y-91239400D03*
D13*
X122010000Y-94570000D03*
D14*
X120710000Y-94570000D03*
D13*
X122020000Y-92030000D03*
D14*
X120720000Y-92030000D03*
D15*
X122855000Y-83570000D03*
D16*
X120315000Y-83570000D03*
X117775000Y-83570000D03*
X115235000Y-83570000D03*
D13*
X122010000Y-89350000D03*
D14*
X120710000Y-89350000D03*
D17*
X124400000Y-86150000D03*
X124360000Y-87670000D03*
X121360000Y-86070000D03*
X113850000Y-91840000D03*
X110920000Y-88729500D03*
X109850000Y-90060000D03*
X111720000Y-89380000D03*
X116925000Y-93550000D03*
X113950000Y-92940000D03*
X119120000Y-93120000D03*
X112740000Y-93840000D03*
X116325000Y-88129500D03*
X109285000Y-88720000D03*
D18*
X121270000Y-97070000D02*
X122050000Y-96290000D01*
X109300800Y-91899800D02*
X109090000Y-92110600D01*
X110050000Y-97070000D02*
X121270000Y-97070000D01*
X122010000Y-96250000D02*
X122010000Y-94570000D01*
X123700000Y-89350000D02*
X124360000Y-88690000D01*
X110161200Y-91899800D02*
X109300800Y-91899800D01*
X109090000Y-92110600D02*
X109090000Y-96110000D01*
X122050000Y-96290000D02*
X122010000Y-96250000D01*
X124360000Y-88690000D02*
X124360000Y-87670000D01*
X109090000Y-96110000D02*
X110050000Y-97070000D01*
X122010000Y-89350000D02*
X123700000Y-89350000D01*
X114910000Y-89570000D02*
X114910000Y-88105000D01*
X115030000Y-92080000D02*
X115030000Y-89690000D01*
X112548800Y-91239400D02*
X114189400Y-91239400D01*
X122935000Y-83650000D02*
X122855000Y-83570000D01*
X122065000Y-87530000D02*
X122935000Y-86660000D01*
X114910000Y-88105000D02*
X115485000Y-87530000D01*
X115000000Y-92110000D02*
X115030000Y-92080000D01*
X115000000Y-94840000D02*
X115000000Y-92110000D01*
X115030000Y-89690000D02*
X114910000Y-89570000D01*
X122935000Y-86660000D02*
X122935000Y-83650000D01*
X114189400Y-91239400D02*
X115030000Y-92080000D01*
X115485000Y-87530000D02*
X122065000Y-87530000D01*
X110920000Y-88729500D02*
X110920000Y-84200000D01*
X111550000Y-83570000D02*
X115235000Y-83570000D01*
X113790200Y-91899800D02*
X113850000Y-91840000D01*
X110920000Y-84200000D02*
X111550000Y-83570000D01*
X112548800Y-91899800D02*
X113790200Y-91899800D01*
X117855000Y-86280000D02*
X117855000Y-83650000D01*
X117305000Y-86830000D02*
X117855000Y-86280000D01*
X109850000Y-90570000D02*
X110161200Y-90881200D01*
X109850000Y-90060000D02*
X109850000Y-90570000D01*
X110161200Y-90881200D02*
X110161200Y-91239400D01*
X114905000Y-86830000D02*
X117305000Y-86830000D01*
X111720000Y-89380000D02*
X112355000Y-89380000D01*
X117855000Y-83650000D02*
X117775000Y-83570000D01*
X112355000Y-89380000D02*
X114905000Y-86830000D01*
D19*
X120440000Y-94840000D02*
X120710000Y-94570000D01*
X116875000Y-94840000D02*
X120440000Y-94840000D01*
D18*
X110440000Y-94440000D02*
X113490000Y-94440000D01*
X113850000Y-94080000D02*
X113950000Y-93980000D01*
X110161200Y-94161200D02*
X110440000Y-94440000D01*
X116925000Y-94790000D02*
X116875000Y-94840000D01*
X113950000Y-93980000D02*
X113950000Y-92940000D01*
X113490000Y-94440000D02*
X113850000Y-94080000D01*
X116925000Y-93550000D02*
X116925000Y-94790000D01*
X110161200Y-93220600D02*
X110161200Y-94161200D01*
X119120000Y-92650000D02*
X118550000Y-92080000D01*
X112548800Y-93648800D02*
X112740000Y-93840000D01*
D19*
X116905000Y-92080000D02*
X118550000Y-92080000D01*
X120670000Y-92080000D02*
X120720000Y-92030000D01*
D18*
X112548800Y-93220600D02*
X112548800Y-93648800D01*
D19*
X118550000Y-92080000D02*
X120670000Y-92080000D01*
D18*
X119120000Y-93120000D02*
X119120000Y-92650000D01*
X116805000Y-89550000D02*
X116805000Y-88350000D01*
X109285000Y-88720000D02*
X109440000Y-88720000D01*
X111300000Y-90580000D02*
X111300000Y-92310000D01*
X109440000Y-88720000D02*
X111300000Y-90580000D01*
X116805000Y-89550000D02*
X116785000Y-89570000D01*
X111550200Y-92560200D02*
X112548800Y-92560200D01*
X111300000Y-92310000D02*
X111550200Y-92560200D01*
D19*
X117005000Y-89350000D02*
X120710000Y-89350000D01*
D18*
X116805000Y-88350000D02*
X116775000Y-88320000D01*
X116775000Y-88320000D02*
X116584500Y-88129500D01*
D19*
X116805000Y-89550000D02*
X117005000Y-89350000D01*
D18*
X116584500Y-88129500D02*
X116325000Y-88129500D01*
G04 #@! TA.AperFunction,Conductor*
G36*
X126829042Y-82145765D02*
G01*
X126852909Y-82147329D01*
X127068102Y-82161433D01*
X127084165Y-82163548D01*
X127315136Y-82209492D01*
X127330779Y-82213683D01*
X127553787Y-82289384D01*
X127568754Y-82295584D01*
X127773187Y-82396399D01*
X127779960Y-82399739D01*
X127794006Y-82407849D01*
X127989802Y-82538675D01*
X128002667Y-82548546D01*
X128073649Y-82610795D01*
X128179716Y-82703814D01*
X128191185Y-82715283D01*
X128346450Y-82892328D01*
X128356324Y-82905197D01*
X128487150Y-83100993D01*
X128495260Y-83115039D01*
X128599412Y-83326238D01*
X128605617Y-83341220D01*
X128660933Y-83504174D01*
X128681311Y-83564204D01*
X128685509Y-83579872D01*
X128731449Y-83810825D01*
X128733567Y-83826906D01*
X128749235Y-84065956D01*
X128749500Y-84074066D01*
X128749500Y-97064588D01*
X128749028Y-97075396D01*
X128736400Y-97219728D01*
X128732647Y-97241013D01*
X128696553Y-97375719D01*
X128689160Y-97396031D01*
X128630224Y-97522418D01*
X128619417Y-97541136D01*
X128539430Y-97655370D01*
X128525536Y-97671928D01*
X128426928Y-97770536D01*
X128410370Y-97784430D01*
X128296136Y-97864417D01*
X128277418Y-97875224D01*
X128151031Y-97934160D01*
X128130719Y-97941553D01*
X127996013Y-97977647D01*
X127974728Y-97981400D01*
X127844599Y-97992785D01*
X127830394Y-97994028D01*
X127819588Y-97994500D01*
X109830412Y-97994500D01*
X109819605Y-97994028D01*
X109803693Y-97992635D01*
X109675271Y-97981400D01*
X109653986Y-97977647D01*
X109519280Y-97941553D01*
X109498968Y-97934160D01*
X109372581Y-97875224D01*
X109353863Y-97864417D01*
X109239629Y-97784430D01*
X109223071Y-97770536D01*
X109124463Y-97671928D01*
X109110569Y-97655370D01*
X109030582Y-97541136D01*
X109019775Y-97522418D01*
X108960839Y-97396031D01*
X108953446Y-97375719D01*
X108917352Y-97241013D01*
X108913599Y-97219727D01*
X108900972Y-97075395D01*
X108900500Y-97064588D01*
X108900500Y-93855674D01*
X108920185Y-93788635D01*
X108972989Y-93742880D01*
X109042147Y-93732936D01*
X109105703Y-93761961D01*
X109123763Y-93781359D01*
X109137539Y-93799761D01*
X109254596Y-93887389D01*
X109306550Y-93906767D01*
X109391592Y-93938487D01*
X109391594Y-93938487D01*
X109391599Y-93938489D01*
X109441957Y-93943902D01*
X109506506Y-93970641D01*
X109546354Y-94028033D01*
X109552700Y-94067192D01*
X109552700Y-94241311D01*
X109563882Y-94283043D01*
X109594168Y-94396073D01*
X109674278Y-94534827D01*
X110066373Y-94926922D01*
X110193530Y-95000336D01*
X110205128Y-95007032D01*
X110359889Y-95048500D01*
X110359890Y-95048500D01*
X110359891Y-95048500D01*
X113570109Y-95048500D01*
X113570110Y-95048500D01*
X113570111Y-95048500D01*
X113658292Y-95024872D01*
X113724873Y-95007032D01*
X113818000Y-94953264D01*
X113885899Y-94936791D01*
X113951926Y-94959643D01*
X113995117Y-95014563D01*
X114004000Y-95060651D01*
X114004000Y-95346366D01*
X114004001Y-95346383D01*
X114014526Y-95449405D01*
X114069838Y-95616326D01*
X114069839Y-95616329D01*
X114162156Y-95765998D01*
X114286502Y-95890344D01*
X114436171Y-95982661D01*
X114603096Y-96037974D01*
X114706125Y-96048500D01*
X115293874Y-96048499D01*
X115396904Y-96037974D01*
X115563829Y-95982661D01*
X115713498Y-95890344D01*
X115837844Y-95765998D01*
X115837849Y-95765988D01*
X115840232Y-95762977D01*
X115842400Y-95761441D01*
X115842951Y-95760891D01*
X115843045Y-95760985D01*
X115897254Y-95722599D01*
X115967053Y-95719459D01*
X116027469Y-95754554D01*
X116034768Y-95762977D01*
X116037153Y-95765994D01*
X116037156Y-95765998D01*
X116161502Y-95890344D01*
X116311171Y-95982661D01*
X116478096Y-96037974D01*
X116581125Y-96048500D01*
X117168874Y-96048499D01*
X117271904Y-96037974D01*
X117438829Y-95982661D01*
X117588498Y-95890344D01*
X117694023Y-95784819D01*
X117755346Y-95751334D01*
X117781704Y-95748500D01*
X120276633Y-95748500D01*
X120328144Y-95759705D01*
X120355487Y-95772193D01*
X120493442Y-95812700D01*
X120638111Y-95833500D01*
X120638114Y-95833500D01*
X121210000Y-95833500D01*
X121283079Y-95828273D01*
X121283081Y-95828272D01*
X121283083Y-95828272D01*
X121423313Y-95787097D01*
X121423314Y-95787097D01*
X121456145Y-95765998D01*
X121546271Y-95708077D01*
X121641984Y-95597619D01*
X121702700Y-95464670D01*
X121723500Y-95320000D01*
X121723500Y-94855763D01*
X121723500Y-93820000D01*
X121718273Y-93746921D01*
X121717086Y-93742880D01*
X121677097Y-93606686D01*
X121677097Y-93606685D01*
X121598078Y-93483730D01*
X121496303Y-93395541D01*
X121458529Y-93336762D01*
X121458529Y-93266893D01*
X121496304Y-93208115D01*
X121510448Y-93197525D01*
X121556271Y-93168077D01*
X121651984Y-93057619D01*
X121712700Y-92924670D01*
X121733500Y-92780000D01*
X121733500Y-92315763D01*
X121733500Y-91280000D01*
X121728273Y-91206921D01*
X121716093Y-91165440D01*
X121687097Y-91066686D01*
X121687097Y-91066685D01*
X121608078Y-90943730D01*
X121600703Y-90937339D01*
X121497619Y-90848016D01*
X121419425Y-90812306D01*
X121396550Y-90801859D01*
X121343746Y-90756104D01*
X121324062Y-90689065D01*
X121343747Y-90622025D01*
X121396551Y-90576271D01*
X121413122Y-90570089D01*
X121423316Y-90567096D01*
X121546271Y-90488077D01*
X121641984Y-90377619D01*
X121702700Y-90244670D01*
X121723500Y-90100000D01*
X121723500Y-89635763D01*
X121723500Y-88600000D01*
X121718273Y-88526921D01*
X121705234Y-88482515D01*
X121677097Y-88386686D01*
X121676233Y-88385342D01*
X121640371Y-88329539D01*
X121620687Y-88262500D01*
X121640372Y-88195460D01*
X121693176Y-88149706D01*
X121744687Y-88138500D01*
X122145109Y-88138500D01*
X122145110Y-88138500D01*
X122145111Y-88138500D01*
X122232337Y-88115128D01*
X122299873Y-88097032D01*
X122438627Y-88016922D01*
X123421922Y-87033627D01*
X123502032Y-86894872D01*
X123536316Y-86766921D01*
X123543500Y-86740111D01*
X123543500Y-85052500D01*
X123563185Y-84985461D01*
X123615989Y-84939706D01*
X123667500Y-84928500D01*
X123753638Y-84928500D01*
X123753654Y-84928499D01*
X123780692Y-84925591D01*
X123814201Y-84921989D01*
X123951204Y-84870889D01*
X124068261Y-84783261D01*
X124155889Y-84666204D01*
X124206989Y-84529201D01*
X124210959Y-84492272D01*
X124213499Y-84468654D01*
X124213500Y-84468637D01*
X124213500Y-82671362D01*
X124213499Y-82671345D01*
X124210157Y-82640270D01*
X124206989Y-82610799D01*
X124204222Y-82603381D01*
X124177559Y-82531894D01*
X124155889Y-82473796D01*
X124068261Y-82356739D01*
X124068259Y-82356737D01*
X124062946Y-82349640D01*
X124064109Y-82348768D01*
X124035218Y-82295858D01*
X124040202Y-82226166D01*
X124082074Y-82170233D01*
X124147538Y-82145816D01*
X124156384Y-82145500D01*
X126800469Y-82145500D01*
X126820933Y-82145500D01*
X126829042Y-82145765D01*
G37*
G04 #@! TD.AperFunction*
G04 #@! TA.AperFunction,Conductor*
G36*
X120565000Y-84900633D02*
G01*
X120778483Y-84843433D01*
X120778492Y-84843429D01*
X120992578Y-84743600D01*
X121186078Y-84608108D01*
X121301914Y-84492272D01*
X121363237Y-84458787D01*
X121432929Y-84463771D01*
X121488863Y-84505642D01*
X121505777Y-84536619D01*
X121554110Y-84666203D01*
X121554111Y-84666204D01*
X121641739Y-84783261D01*
X121758796Y-84870889D01*
X121895799Y-84921989D01*
X121923050Y-84924918D01*
X121956345Y-84928499D01*
X121956362Y-84928500D01*
X122202500Y-84928500D01*
X122269539Y-84948185D01*
X122315294Y-85000989D01*
X122326500Y-85052500D01*
X122326500Y-86356589D01*
X122306815Y-86423628D01*
X122290181Y-86444270D01*
X121849270Y-86885181D01*
X121787947Y-86918666D01*
X121761589Y-86921500D01*
X118373411Y-86921500D01*
X118306372Y-86901815D01*
X118260617Y-86849011D01*
X118250673Y-86779853D01*
X118279698Y-86716297D01*
X118285730Y-86709819D01*
X118341921Y-86653628D01*
X118375696Y-86595128D01*
X118422032Y-86514872D01*
X118463500Y-86360111D01*
X118463500Y-84815583D01*
X118483185Y-84748544D01*
X118516794Y-84714681D01*
X118516528Y-84714339D01*
X118519197Y-84712261D01*
X118519685Y-84711770D01*
X118520561Y-84711197D01*
X118520576Y-84711189D01*
X118698240Y-84572906D01*
X118809498Y-84452049D01*
X118850715Y-84407276D01*
X118850715Y-84407275D01*
X118850722Y-84407268D01*
X118944749Y-84263347D01*
X118997894Y-84217994D01*
X119067125Y-84208570D01*
X119130461Y-84238072D01*
X119150130Y-84260048D01*
X119276890Y-84441078D01*
X119443917Y-84608105D01*
X119637421Y-84743600D01*
X119851507Y-84843429D01*
X119851516Y-84843433D01*
X120065000Y-84900634D01*
X120065000Y-84003012D01*
X120122007Y-84035925D01*
X120249174Y-84070000D01*
X120380826Y-84070000D01*
X120507993Y-84035925D01*
X120565000Y-84003012D01*
X120565000Y-84900633D01*
G37*
G04 #@! TD.AperFunction*
M02*
