G04 #@! TF.GenerationSoftware,KiCad,Pcbnew,8.0.3*
G04 #@! TF.CreationDate,2024-11-28T13:48:10+05:45*
G04 #@! TF.ProjectId,Watchdog-v1.0,57617463-6864-46f6-972d-76312e302e6b,rev?*
G04 #@! TF.SameCoordinates,Original*
G04 #@! TF.FileFunction,Legend,Top*
G04 #@! TF.FilePolarity,Positive*
%FSLAX46Y46*%
G04 Gerber Fmt 4.6, Leading zero omitted, Abs format (unit mm)*
G04 Created by KiCad (PCBNEW 8.0.3) date 2024-11-28 13:48:10*
%MOMM*%
%LPD*%
G01*
G04 APERTURE LIST*
%ADD10C,0.100000*%
%ADD11C,0.120000*%
%ADD12C,0.152400*%
G04 APERTURE END LIST*
D10*
G36*
X125197544Y-94248218D02*
G01*
X125222180Y-94270179D01*
X125250460Y-94321424D01*
X125250615Y-94324593D01*
X125283129Y-94442407D01*
X125282455Y-94445800D01*
X125285551Y-94596946D01*
X125283948Y-94600340D01*
X125257119Y-94719935D01*
X125254401Y-94723439D01*
X125230035Y-94777555D01*
X125208075Y-94802192D01*
X125158685Y-94829448D01*
X125114782Y-94831395D01*
X125067364Y-94810047D01*
X125042729Y-94788086D01*
X125014449Y-94736841D01*
X125014295Y-94733673D01*
X124981780Y-94615858D01*
X124982455Y-94612466D01*
X124979358Y-94461320D01*
X124980962Y-94457927D01*
X125007790Y-94338330D01*
X125010509Y-94334827D01*
X125034874Y-94280710D01*
X125056835Y-94256072D01*
X125106224Y-94228817D01*
X125150127Y-94226870D01*
X125197544Y-94248218D01*
G37*
G36*
X125460233Y-95006911D02*
G01*
X122971344Y-95006911D01*
X122971344Y-94312466D01*
X123049122Y-94312466D01*
X123051885Y-94374764D01*
X123049248Y-94382677D01*
X123052814Y-94395698D01*
X123052928Y-94398267D01*
X123053739Y-94399078D01*
X123054401Y-94401493D01*
X123086261Y-94459228D01*
X123086261Y-94464935D01*
X123097100Y-94481156D01*
X123099582Y-94483368D01*
X123099695Y-94483573D01*
X123099881Y-94483635D01*
X123126507Y-94507368D01*
X123128016Y-94511893D01*
X123143428Y-94523854D01*
X123146611Y-94525287D01*
X123146656Y-94525327D01*
X123146700Y-94525327D01*
X123200956Y-94549754D01*
X123202688Y-94552640D01*
X123220328Y-94560973D01*
X123339925Y-94587803D01*
X123343428Y-94590521D01*
X123397544Y-94614885D01*
X123422182Y-94636846D01*
X123449437Y-94686235D01*
X123451384Y-94730138D01*
X123430036Y-94777556D01*
X123408075Y-94802192D01*
X123359005Y-94829271D01*
X123215820Y-94832204D01*
X123214933Y-94831699D01*
X123095578Y-94795926D01*
X123061349Y-94813040D01*
X123049248Y-94849344D01*
X123066362Y-94883573D01*
X123083311Y-94893234D01*
X123175536Y-94920875D01*
X123179988Y-94925327D01*
X123199122Y-94929133D01*
X123359835Y-94925840D01*
X123369334Y-94929007D01*
X123382597Y-94925374D01*
X123384923Y-94925327D01*
X123385734Y-94924515D01*
X123388150Y-94923854D01*
X123445884Y-94891994D01*
X123451589Y-94891994D01*
X123467810Y-94881155D01*
X123470021Y-94878673D01*
X123470228Y-94878560D01*
X123470290Y-94878372D01*
X123494024Y-94851747D01*
X123498549Y-94850239D01*
X123510510Y-94834827D01*
X123511941Y-94831647D01*
X123511983Y-94831601D01*
X123511983Y-94831555D01*
X123539242Y-94771007D01*
X123545316Y-94764934D01*
X123547958Y-94751647D01*
X123548996Y-94749344D01*
X123548633Y-94748256D01*
X123549122Y-94745800D01*
X123546358Y-94683501D01*
X123548996Y-94675589D01*
X123545429Y-94662564D01*
X123545316Y-94659999D01*
X123544505Y-94659188D01*
X123543844Y-94656773D01*
X123511983Y-94599037D01*
X123511983Y-94593331D01*
X123501144Y-94577110D01*
X123498660Y-94574896D01*
X123498549Y-94574694D01*
X123498364Y-94574632D01*
X123471735Y-94550897D01*
X123470228Y-94546373D01*
X123454816Y-94534412D01*
X123451634Y-94532979D01*
X123451589Y-94532939D01*
X123451544Y-94532939D01*
X123397287Y-94508511D01*
X123395556Y-94505626D01*
X123377916Y-94497293D01*
X123258319Y-94470464D01*
X123254816Y-94467745D01*
X123200698Y-94443380D01*
X123176062Y-94421420D01*
X123148806Y-94372030D01*
X123146859Y-94328127D01*
X123168208Y-94280708D01*
X123190168Y-94256073D01*
X123239238Y-94228994D01*
X123382423Y-94226061D01*
X123383311Y-94226567D01*
X123502666Y-94262340D01*
X123536895Y-94245226D01*
X123548996Y-94208922D01*
X123534102Y-94179133D01*
X123749122Y-94179133D01*
X123752928Y-94898267D01*
X123779988Y-94925327D01*
X123799122Y-94929133D01*
X124151590Y-94925327D01*
X124178650Y-94898267D01*
X124178650Y-94859999D01*
X124151590Y-94832939D01*
X124132456Y-94829133D01*
X123848873Y-94832195D01*
X123847442Y-94561737D01*
X124051590Y-94558660D01*
X124078650Y-94531600D01*
X124078650Y-94493332D01*
X124051590Y-94466272D01*
X124032456Y-94462466D01*
X123846931Y-94465262D01*
X123845679Y-94228630D01*
X124151590Y-94225327D01*
X124178650Y-94198267D01*
X124178650Y-94159999D01*
X124286261Y-94159999D01*
X124286261Y-94198267D01*
X124313321Y-94225327D01*
X124332455Y-94229133D01*
X124482712Y-94227768D01*
X124486261Y-94898267D01*
X124513321Y-94925327D01*
X124551589Y-94925327D01*
X124578649Y-94898267D01*
X124582455Y-94879133D01*
X124580162Y-94445800D01*
X124882455Y-94445800D01*
X124885628Y-94600726D01*
X124883000Y-94605107D01*
X124883948Y-94624593D01*
X124917261Y-94745301D01*
X124915914Y-94749345D01*
X124921067Y-94768161D01*
X124952928Y-94825895D01*
X124952928Y-94831600D01*
X124963766Y-94847821D01*
X124966249Y-94850034D01*
X124966362Y-94850239D01*
X124966548Y-94850301D01*
X124993175Y-94874036D01*
X124994683Y-94878560D01*
X125010095Y-94890521D01*
X125013272Y-94891951D01*
X125013320Y-94891994D01*
X125013367Y-94891994D01*
X125073914Y-94919253D01*
X125079988Y-94925327D01*
X125093274Y-94927969D01*
X125095578Y-94929007D01*
X125096665Y-94928644D01*
X125099122Y-94929133D01*
X125161420Y-94926369D01*
X125169332Y-94929007D01*
X125182353Y-94925440D01*
X125184922Y-94925327D01*
X125185733Y-94924515D01*
X125188148Y-94923854D01*
X125245883Y-94891994D01*
X125251590Y-94891994D01*
X125267811Y-94881155D01*
X125270023Y-94878672D01*
X125270228Y-94878560D01*
X125270290Y-94878373D01*
X125294023Y-94851747D01*
X125298548Y-94850239D01*
X125310509Y-94834827D01*
X125311942Y-94831643D01*
X125311982Y-94831599D01*
X125311982Y-94831555D01*
X125336411Y-94777296D01*
X125339296Y-94775566D01*
X125347629Y-94757927D01*
X125375191Y-94635057D01*
X125378649Y-94631600D01*
X125382455Y-94612466D01*
X125379281Y-94457539D01*
X125381910Y-94453159D01*
X125380962Y-94433673D01*
X125347648Y-94312964D01*
X125348996Y-94308921D01*
X125343843Y-94290105D01*
X125311982Y-94232370D01*
X125311982Y-94226667D01*
X125301144Y-94210445D01*
X125298660Y-94208231D01*
X125298548Y-94208027D01*
X125298361Y-94207964D01*
X125271736Y-94184230D01*
X125270228Y-94179706D01*
X125254816Y-94167745D01*
X125251636Y-94166313D01*
X125251590Y-94166272D01*
X125251544Y-94166272D01*
X125190994Y-94139011D01*
X125184922Y-94132939D01*
X125171635Y-94130296D01*
X125169332Y-94129259D01*
X125168244Y-94129621D01*
X125165788Y-94129133D01*
X125103490Y-94131896D01*
X125095578Y-94129259D01*
X125082553Y-94132825D01*
X125079988Y-94132939D01*
X125079177Y-94133749D01*
X125076762Y-94134411D01*
X125019027Y-94166272D01*
X125013320Y-94166272D01*
X124997099Y-94177111D01*
X124994885Y-94179594D01*
X124994683Y-94179706D01*
X124994621Y-94179890D01*
X124970886Y-94206519D01*
X124966362Y-94208027D01*
X124954401Y-94223439D01*
X124952968Y-94226620D01*
X124952928Y-94226666D01*
X124952928Y-94226710D01*
X124928498Y-94280969D01*
X124925614Y-94282700D01*
X124917281Y-94300340D01*
X124889718Y-94423208D01*
X124886261Y-94426666D01*
X124882455Y-94445800D01*
X124580162Y-94445800D01*
X124579003Y-94226894D01*
X124751589Y-94225327D01*
X124778649Y-94198267D01*
X124778649Y-94159999D01*
X124751589Y-94132939D01*
X124732455Y-94129133D01*
X124313321Y-94132939D01*
X124286261Y-94159999D01*
X124178650Y-94159999D01*
X124151590Y-94132939D01*
X124132456Y-94129133D01*
X123779988Y-94132939D01*
X123752928Y-94159999D01*
X123749122Y-94179133D01*
X123534102Y-94179133D01*
X123531882Y-94174693D01*
X123514933Y-94165032D01*
X123422707Y-94137390D01*
X123418256Y-94132939D01*
X123399122Y-94129133D01*
X123238409Y-94132425D01*
X123228911Y-94129259D01*
X123215646Y-94132891D01*
X123213321Y-94132939D01*
X123212509Y-94133750D01*
X123210094Y-94134412D01*
X123152360Y-94166272D01*
X123146654Y-94166272D01*
X123130433Y-94177111D01*
X123128220Y-94179593D01*
X123128016Y-94179706D01*
X123127953Y-94179892D01*
X123104219Y-94206518D01*
X123099695Y-94208027D01*
X123087734Y-94223439D01*
X123086301Y-94226620D01*
X123086261Y-94226666D01*
X123086261Y-94226710D01*
X123059000Y-94287259D01*
X123052928Y-94293332D01*
X123050285Y-94306616D01*
X123049248Y-94308921D01*
X123049610Y-94310009D01*
X123049122Y-94312466D01*
X122971344Y-94312466D01*
X122971344Y-94051355D01*
X125460233Y-94051355D01*
X125460233Y-95006911D01*
G37*
G36*
X125486427Y-92396911D02*
G01*
X123001344Y-92396911D01*
X123001344Y-91702466D01*
X123079122Y-91702466D01*
X123081885Y-91764764D01*
X123079248Y-91772677D01*
X123082814Y-91785698D01*
X123082928Y-91788267D01*
X123083739Y-91789078D01*
X123084401Y-91791493D01*
X123116261Y-91849228D01*
X123116261Y-91854935D01*
X123127100Y-91871156D01*
X123129582Y-91873368D01*
X123129695Y-91873573D01*
X123129881Y-91873635D01*
X123156507Y-91897368D01*
X123158016Y-91901893D01*
X123173428Y-91913854D01*
X123176611Y-91915287D01*
X123176656Y-91915327D01*
X123176700Y-91915327D01*
X123230956Y-91939754D01*
X123232688Y-91942640D01*
X123250328Y-91950973D01*
X123369925Y-91977803D01*
X123373428Y-91980521D01*
X123427544Y-92004885D01*
X123452182Y-92026846D01*
X123479437Y-92076235D01*
X123481384Y-92120138D01*
X123460036Y-92167556D01*
X123438075Y-92192192D01*
X123389005Y-92219271D01*
X123245820Y-92222204D01*
X123244933Y-92221699D01*
X123125578Y-92185926D01*
X123091349Y-92203040D01*
X123079248Y-92239344D01*
X123096362Y-92273573D01*
X123113311Y-92283234D01*
X123205536Y-92310875D01*
X123209988Y-92315327D01*
X123229122Y-92319133D01*
X123389835Y-92315840D01*
X123399334Y-92319007D01*
X123412597Y-92315374D01*
X123414923Y-92315327D01*
X123415734Y-92314515D01*
X123418150Y-92313854D01*
X123475884Y-92281994D01*
X123481589Y-92281994D01*
X123497810Y-92271155D01*
X123500021Y-92268673D01*
X123500228Y-92268560D01*
X123500290Y-92268372D01*
X123524024Y-92241747D01*
X123528549Y-92240239D01*
X123540510Y-92224827D01*
X123541941Y-92221647D01*
X123541983Y-92221601D01*
X123541983Y-92221555D01*
X123569242Y-92161007D01*
X123575316Y-92154934D01*
X123577958Y-92141647D01*
X123578996Y-92139344D01*
X123578633Y-92138256D01*
X123579122Y-92135800D01*
X123576358Y-92073501D01*
X123578996Y-92065589D01*
X123575429Y-92052564D01*
X123575316Y-92049999D01*
X123574505Y-92049188D01*
X123573844Y-92046773D01*
X123541983Y-91989037D01*
X123541983Y-91983331D01*
X123531144Y-91967110D01*
X123528660Y-91964896D01*
X123528549Y-91964694D01*
X123528364Y-91964632D01*
X123501735Y-91940897D01*
X123500228Y-91936373D01*
X123484816Y-91924412D01*
X123481634Y-91922979D01*
X123481589Y-91922939D01*
X123481544Y-91922939D01*
X123427287Y-91898511D01*
X123425556Y-91895626D01*
X123407916Y-91887293D01*
X123288319Y-91860464D01*
X123284816Y-91857745D01*
X123230698Y-91833380D01*
X123206062Y-91811420D01*
X123178806Y-91762030D01*
X123176859Y-91718127D01*
X123198208Y-91670708D01*
X123220168Y-91646073D01*
X123269238Y-91618994D01*
X123412423Y-91616061D01*
X123413311Y-91616567D01*
X123532666Y-91652340D01*
X123566895Y-91635226D01*
X123578996Y-91598922D01*
X123564102Y-91569133D01*
X123779122Y-91569133D01*
X123782928Y-92288267D01*
X123809988Y-92315327D01*
X123829122Y-92319133D01*
X124181590Y-92315327D01*
X124208650Y-92288267D01*
X124208650Y-92249999D01*
X124181590Y-92222939D01*
X124162456Y-92219133D01*
X123878873Y-92222195D01*
X123877442Y-91951737D01*
X124081590Y-91948660D01*
X124108650Y-91921600D01*
X124108650Y-91883332D01*
X124081590Y-91856272D01*
X124062456Y-91852466D01*
X123876931Y-91855262D01*
X123875679Y-91618630D01*
X124181590Y-91615327D01*
X124208650Y-91588267D01*
X124208650Y-91549999D01*
X124316261Y-91549999D01*
X124316261Y-91588267D01*
X124343321Y-91615327D01*
X124362455Y-91619133D01*
X124512712Y-91617768D01*
X124516261Y-92288267D01*
X124543321Y-92315327D01*
X124581589Y-92315327D01*
X124608649Y-92288267D01*
X124612455Y-92269133D01*
X124609827Y-91772677D01*
X124912581Y-91772677D01*
X124929695Y-91806905D01*
X124965999Y-91819007D01*
X124984815Y-91813854D01*
X125042550Y-91781994D01*
X125048257Y-91781994D01*
X125064478Y-91771155D01*
X125113248Y-91718996D01*
X125115906Y-92221371D01*
X124943321Y-92222939D01*
X124916261Y-92249999D01*
X124916261Y-92288267D01*
X124943321Y-92315327D01*
X124962455Y-92319133D01*
X125381589Y-92315327D01*
X125408649Y-92288267D01*
X125408649Y-92249999D01*
X125381589Y-92222939D01*
X125362455Y-92219133D01*
X125212197Y-92220497D01*
X125208824Y-91583104D01*
X125211504Y-91578837D01*
X125208728Y-91564957D01*
X125208649Y-91549999D01*
X125205008Y-91546358D01*
X125203999Y-91541311D01*
X125191885Y-91533235D01*
X125181589Y-91522939D01*
X125176441Y-91522939D01*
X125172158Y-91520084D01*
X125157883Y-91522939D01*
X125143321Y-91522939D01*
X125139680Y-91526579D01*
X125134633Y-91527589D01*
X125120852Y-91541398D01*
X125064590Y-91631000D01*
X125060433Y-91633778D01*
X125006885Y-91691044D01*
X125006762Y-91691078D01*
X124924683Y-91736373D01*
X124912581Y-91772677D01*
X124609827Y-91772677D01*
X124609003Y-91616894D01*
X124781589Y-91615327D01*
X124808649Y-91588267D01*
X124808649Y-91549999D01*
X124781589Y-91522939D01*
X124762455Y-91519133D01*
X124343321Y-91522939D01*
X124316261Y-91549999D01*
X124208650Y-91549999D01*
X124181590Y-91522939D01*
X124162456Y-91519133D01*
X123809988Y-91522939D01*
X123782928Y-91549999D01*
X123779122Y-91569133D01*
X123564102Y-91569133D01*
X123561882Y-91564693D01*
X123544933Y-91555032D01*
X123452707Y-91527390D01*
X123448256Y-91522939D01*
X123429122Y-91519133D01*
X123268409Y-91522425D01*
X123258911Y-91519259D01*
X123245646Y-91522891D01*
X123243321Y-91522939D01*
X123242509Y-91523750D01*
X123240094Y-91524412D01*
X123182360Y-91556272D01*
X123176654Y-91556272D01*
X123160433Y-91567111D01*
X123158220Y-91569593D01*
X123158016Y-91569706D01*
X123157953Y-91569892D01*
X123134219Y-91596518D01*
X123129695Y-91598027D01*
X123117734Y-91613439D01*
X123116301Y-91616620D01*
X123116261Y-91616666D01*
X123116261Y-91616710D01*
X123089000Y-91677259D01*
X123082928Y-91683332D01*
X123080285Y-91696616D01*
X123079248Y-91698921D01*
X123079610Y-91700009D01*
X123079122Y-91702466D01*
X123001344Y-91702466D01*
X123001344Y-91441355D01*
X125486427Y-91441355D01*
X125486427Y-92396911D01*
G37*
G36*
X125510233Y-89846911D02*
G01*
X123021344Y-89846911D01*
X123021344Y-89152466D01*
X123099122Y-89152466D01*
X123101885Y-89214764D01*
X123099248Y-89222677D01*
X123102814Y-89235698D01*
X123102928Y-89238267D01*
X123103739Y-89239078D01*
X123104401Y-89241493D01*
X123136261Y-89299228D01*
X123136261Y-89304935D01*
X123147100Y-89321156D01*
X123149582Y-89323368D01*
X123149695Y-89323573D01*
X123149881Y-89323635D01*
X123176507Y-89347368D01*
X123178016Y-89351893D01*
X123193428Y-89363854D01*
X123196611Y-89365287D01*
X123196656Y-89365327D01*
X123196700Y-89365327D01*
X123250956Y-89389754D01*
X123252688Y-89392640D01*
X123270328Y-89400973D01*
X123389925Y-89427803D01*
X123393428Y-89430521D01*
X123447544Y-89454885D01*
X123472182Y-89476846D01*
X123499437Y-89526235D01*
X123501384Y-89570138D01*
X123480036Y-89617556D01*
X123458075Y-89642192D01*
X123409005Y-89669271D01*
X123265820Y-89672204D01*
X123264933Y-89671699D01*
X123145578Y-89635926D01*
X123111349Y-89653040D01*
X123099248Y-89689344D01*
X123116362Y-89723573D01*
X123133311Y-89733234D01*
X123225536Y-89760875D01*
X123229988Y-89765327D01*
X123249122Y-89769133D01*
X123409835Y-89765840D01*
X123419334Y-89769007D01*
X123432597Y-89765374D01*
X123434923Y-89765327D01*
X123435734Y-89764515D01*
X123438150Y-89763854D01*
X123495884Y-89731994D01*
X123501589Y-89731994D01*
X123517810Y-89721155D01*
X123520021Y-89718673D01*
X123520228Y-89718560D01*
X123520290Y-89718372D01*
X123544024Y-89691747D01*
X123548549Y-89690239D01*
X123560510Y-89674827D01*
X123561941Y-89671647D01*
X123561983Y-89671601D01*
X123561983Y-89671555D01*
X123589242Y-89611007D01*
X123595316Y-89604934D01*
X123597958Y-89591647D01*
X123598996Y-89589344D01*
X123598633Y-89588256D01*
X123599122Y-89585800D01*
X123596358Y-89523501D01*
X123598996Y-89515589D01*
X123595429Y-89502564D01*
X123595316Y-89499999D01*
X123594505Y-89499188D01*
X123593844Y-89496773D01*
X123561983Y-89439037D01*
X123561983Y-89433331D01*
X123551144Y-89417110D01*
X123548660Y-89414896D01*
X123548549Y-89414694D01*
X123548364Y-89414632D01*
X123521735Y-89390897D01*
X123520228Y-89386373D01*
X123504816Y-89374412D01*
X123501634Y-89372979D01*
X123501589Y-89372939D01*
X123501544Y-89372939D01*
X123447287Y-89348511D01*
X123445556Y-89345626D01*
X123427916Y-89337293D01*
X123308319Y-89310464D01*
X123304816Y-89307745D01*
X123250698Y-89283380D01*
X123226062Y-89261420D01*
X123198806Y-89212030D01*
X123196859Y-89168127D01*
X123218208Y-89120708D01*
X123240168Y-89096073D01*
X123289238Y-89068994D01*
X123432423Y-89066061D01*
X123433311Y-89066567D01*
X123552666Y-89102340D01*
X123586895Y-89085226D01*
X123598996Y-89048922D01*
X123584102Y-89019133D01*
X123799122Y-89019133D01*
X123802928Y-89738267D01*
X123829988Y-89765327D01*
X123849122Y-89769133D01*
X124201590Y-89765327D01*
X124228650Y-89738267D01*
X124228650Y-89699999D01*
X124201590Y-89672939D01*
X124182456Y-89669133D01*
X123898873Y-89672195D01*
X123897442Y-89401737D01*
X124101590Y-89398660D01*
X124128650Y-89371600D01*
X124128650Y-89333332D01*
X124101590Y-89306272D01*
X124082456Y-89302466D01*
X123896931Y-89305262D01*
X123895679Y-89068630D01*
X124201590Y-89065327D01*
X124228650Y-89038267D01*
X124228650Y-88999999D01*
X124336261Y-88999999D01*
X124336261Y-89038267D01*
X124363321Y-89065327D01*
X124382455Y-89069133D01*
X124532712Y-89067768D01*
X124536261Y-89738267D01*
X124563321Y-89765327D01*
X124601589Y-89765327D01*
X124628649Y-89738267D01*
X124632455Y-89719133D01*
X124632354Y-89699999D01*
X124902928Y-89699999D01*
X124902928Y-89738267D01*
X124929988Y-89765327D01*
X124949122Y-89769133D01*
X125401589Y-89765327D01*
X125428649Y-89738267D01*
X125428649Y-89699999D01*
X125401589Y-89672939D01*
X125382455Y-89669133D01*
X125066101Y-89671794D01*
X125376967Y-89356856D01*
X125386895Y-89351893D01*
X125393766Y-89339837D01*
X125395316Y-89338268D01*
X125395316Y-89337119D01*
X125396556Y-89334944D01*
X125424197Y-89242718D01*
X125428649Y-89238267D01*
X125432455Y-89219133D01*
X125432301Y-89215679D01*
X125432329Y-89215589D01*
X125432294Y-89215520D01*
X125429691Y-89156834D01*
X125432329Y-89148922D01*
X125428762Y-89135899D01*
X125428649Y-89133332D01*
X125427837Y-89132520D01*
X125427176Y-89130105D01*
X125395316Y-89072370D01*
X125395316Y-89066665D01*
X125384477Y-89050444D01*
X125381994Y-89048231D01*
X125381882Y-89048027D01*
X125381695Y-89047964D01*
X125355069Y-89024230D01*
X125353561Y-89019706D01*
X125338149Y-89007745D01*
X125334967Y-89006312D01*
X125334922Y-89006272D01*
X125334877Y-89006272D01*
X125274328Y-88979011D01*
X125268256Y-88972939D01*
X125254971Y-88970296D01*
X125252667Y-88969259D01*
X125251578Y-88969621D01*
X125249122Y-88969133D01*
X125088409Y-88972425D01*
X125078911Y-88969259D01*
X125065644Y-88972891D01*
X125063321Y-88972939D01*
X125062510Y-88973749D01*
X125060095Y-88974411D01*
X125002360Y-89006272D01*
X124996653Y-89006272D01*
X124980432Y-89017111D01*
X124978218Y-89019594D01*
X124978016Y-89019706D01*
X124977954Y-89019890D01*
X124936261Y-89066666D01*
X124936261Y-89104935D01*
X124963321Y-89131994D01*
X125001590Y-89131994D01*
X125017811Y-89121155D01*
X125040168Y-89096072D01*
X125089238Y-89068994D01*
X125231696Y-89066075D01*
X125280879Y-89088219D01*
X125305514Y-89110179D01*
X125332770Y-89159569D01*
X125334750Y-89204223D01*
X125309660Y-89287937D01*
X124902928Y-89699999D01*
X124632354Y-89699999D01*
X124629003Y-89066894D01*
X124801589Y-89065327D01*
X124828649Y-89038267D01*
X124828649Y-88999999D01*
X124801589Y-88972939D01*
X124782455Y-88969133D01*
X124363321Y-88972939D01*
X124336261Y-88999999D01*
X124228650Y-88999999D01*
X124201590Y-88972939D01*
X124182456Y-88969133D01*
X123829988Y-88972939D01*
X123802928Y-88999999D01*
X123799122Y-89019133D01*
X123584102Y-89019133D01*
X123581882Y-89014693D01*
X123564933Y-89005032D01*
X123472707Y-88977390D01*
X123468256Y-88972939D01*
X123449122Y-88969133D01*
X123288409Y-88972425D01*
X123278911Y-88969259D01*
X123265646Y-88972891D01*
X123263321Y-88972939D01*
X123262509Y-88973750D01*
X123260094Y-88974412D01*
X123202360Y-89006272D01*
X123196654Y-89006272D01*
X123180433Y-89017111D01*
X123178220Y-89019593D01*
X123178016Y-89019706D01*
X123177953Y-89019892D01*
X123154219Y-89046518D01*
X123149695Y-89048027D01*
X123137734Y-89063439D01*
X123136301Y-89066620D01*
X123136261Y-89066666D01*
X123136261Y-89066710D01*
X123109000Y-89127259D01*
X123102928Y-89133332D01*
X123100285Y-89146616D01*
X123099248Y-89148921D01*
X123099610Y-89150009D01*
X123099122Y-89152466D01*
X123021344Y-89152466D01*
X123021344Y-88891355D01*
X125510233Y-88891355D01*
X125510233Y-89846911D01*
G37*
G36*
X120282006Y-85272718D02*
G01*
X120401601Y-85299546D01*
X120405105Y-85302265D01*
X120459182Y-85326612D01*
X120515562Y-85379330D01*
X120544197Y-85457220D01*
X120544133Y-85457544D01*
X120546528Y-85574462D01*
X119943179Y-85577656D01*
X119941061Y-85474242D01*
X119941567Y-85473355D01*
X119967030Y-85388398D01*
X120016369Y-85335633D01*
X120016494Y-85335599D01*
X120069758Y-85306205D01*
X120072927Y-85306051D01*
X120190740Y-85273536D01*
X120194133Y-85274211D01*
X120279400Y-85271486D01*
X120282006Y-85272718D01*
G37*
G36*
X120721911Y-87218655D02*
G01*
X119766355Y-87218655D01*
X119766355Y-86757544D01*
X119844133Y-86757544D01*
X119847036Y-86848443D01*
X119844259Y-86854000D01*
X119846699Y-86873355D01*
X119881272Y-86967397D01*
X119881272Y-86976678D01*
X119888856Y-86988028D01*
X119889693Y-86990304D01*
X119890720Y-86990817D01*
X119892111Y-86992899D01*
X119954427Y-87051169D01*
X119956361Y-87056971D01*
X119971773Y-87068932D01*
X119974954Y-87070364D01*
X119974998Y-87070405D01*
X119975045Y-87070405D01*
X120029303Y-87094833D01*
X120031034Y-87097718D01*
X120048673Y-87106051D01*
X120171541Y-87133613D01*
X120174999Y-87137071D01*
X120194133Y-87140877D01*
X120282953Y-87138039D01*
X120286774Y-87140332D01*
X120306260Y-87139384D01*
X120426967Y-87106070D01*
X120431010Y-87107418D01*
X120449826Y-87102265D01*
X120507561Y-87070405D01*
X120513267Y-87070405D01*
X120529488Y-87059566D01*
X120590460Y-86994359D01*
X120598573Y-86990304D01*
X120605317Y-86978472D01*
X120606994Y-86976679D01*
X120606994Y-86975530D01*
X120608234Y-86973355D01*
X120635875Y-86881129D01*
X120640327Y-86876678D01*
X120644133Y-86857544D01*
X120643979Y-86854090D01*
X120644007Y-86854000D01*
X120643972Y-86853931D01*
X120641550Y-86799333D01*
X120644007Y-86794421D01*
X120641567Y-86775066D01*
X120606994Y-86681023D01*
X120606994Y-86671742D01*
X120599408Y-86660390D01*
X120598573Y-86658117D01*
X120597546Y-86657603D01*
X120596155Y-86655521D01*
X120546600Y-86611350D01*
X120527466Y-86607544D01*
X120274999Y-86611350D01*
X120247939Y-86638410D01*
X120244133Y-86657544D01*
X120247939Y-86810011D01*
X120274999Y-86837071D01*
X120313267Y-86837071D01*
X120340327Y-86810011D01*
X120344133Y-86790877D01*
X120342034Y-86706821D01*
X120504974Y-86704365D01*
X120516186Y-86714358D01*
X120544197Y-86790553D01*
X120544133Y-86790877D01*
X120546428Y-86842634D01*
X120521235Y-86926689D01*
X120471896Y-86979455D01*
X120471773Y-86979489D01*
X120418508Y-87008882D01*
X120415339Y-87009037D01*
X120297525Y-87041551D01*
X120294133Y-87040877D01*
X120208865Y-87043601D01*
X120206259Y-87042370D01*
X120086664Y-87015541D01*
X120083161Y-87012823D01*
X120029083Y-86988476D01*
X119972703Y-86935758D01*
X119944068Y-86857867D01*
X119944133Y-86857544D01*
X119941467Y-86774099D01*
X119977340Y-86694421D01*
X119965238Y-86658116D01*
X119931010Y-86641003D01*
X119894706Y-86653104D01*
X119882745Y-86668516D01*
X119854011Y-86732337D01*
X119847939Y-86738410D01*
X119845296Y-86751696D01*
X119844259Y-86754000D01*
X119844621Y-86755087D01*
X119844133Y-86757544D01*
X119766355Y-86757544D01*
X119766355Y-86363850D01*
X119844532Y-86363850D01*
X119847939Y-86369812D01*
X119847939Y-86376678D01*
X119857092Y-86385831D01*
X119863518Y-86397076D01*
X119870144Y-86398883D01*
X119874999Y-86403738D01*
X119894133Y-86407544D01*
X120613267Y-86403738D01*
X120640327Y-86376678D01*
X120640327Y-86338410D01*
X120613267Y-86311350D01*
X120594133Y-86307544D01*
X120075926Y-86310286D01*
X120606628Y-86003773D01*
X120613267Y-86003738D01*
X120622259Y-85994745D01*
X120633665Y-85988158D01*
X120635471Y-85981533D01*
X120640327Y-85976678D01*
X120640327Y-85963730D01*
X120643734Y-85951238D01*
X120640327Y-85945275D01*
X120640327Y-85938410D01*
X120631173Y-85929256D01*
X120624748Y-85918012D01*
X120618121Y-85916204D01*
X120613267Y-85911350D01*
X120594133Y-85907544D01*
X119874999Y-85911350D01*
X119847939Y-85938410D01*
X119847939Y-85976678D01*
X119874999Y-86003738D01*
X119894133Y-86007544D01*
X120412339Y-86004801D01*
X119881635Y-86311314D01*
X119874999Y-86311350D01*
X119866008Y-86320340D01*
X119854601Y-86326929D01*
X119852793Y-86333555D01*
X119847939Y-86338410D01*
X119847939Y-86351357D01*
X119844532Y-86363850D01*
X119766355Y-86363850D01*
X119766355Y-85457544D01*
X119844133Y-85457544D01*
X119847939Y-85643345D01*
X119874999Y-85670405D01*
X119894133Y-85674211D01*
X120613267Y-85670405D01*
X120640327Y-85643345D01*
X120644133Y-85624211D01*
X120640918Y-85467265D01*
X120644007Y-85461088D01*
X120641567Y-85441733D01*
X120606994Y-85347690D01*
X120606994Y-85338410D01*
X120599409Y-85327059D01*
X120598573Y-85324784D01*
X120597545Y-85324270D01*
X120596155Y-85322189D01*
X120533840Y-85263921D01*
X120531906Y-85258118D01*
X120516494Y-85246157D01*
X120513308Y-85244722D01*
X120513267Y-85244684D01*
X120513222Y-85244684D01*
X120458962Y-85220254D01*
X120457232Y-85217370D01*
X120439592Y-85209037D01*
X120316724Y-85181474D01*
X120313267Y-85178017D01*
X120294133Y-85174211D01*
X120205312Y-85177048D01*
X120201492Y-85174756D01*
X120182006Y-85175704D01*
X120061297Y-85209017D01*
X120057255Y-85207670D01*
X120038439Y-85212823D01*
X119980704Y-85244684D01*
X119974999Y-85244684D01*
X119958778Y-85255522D01*
X119897805Y-85320728D01*
X119889693Y-85324784D01*
X119882948Y-85336615D01*
X119881272Y-85338409D01*
X119881272Y-85339557D01*
X119880032Y-85341733D01*
X119852390Y-85433958D01*
X119847939Y-85438410D01*
X119844133Y-85457544D01*
X119766355Y-85457544D01*
X119766355Y-85096433D01*
X120721911Y-85096433D01*
X120721911Y-87218655D01*
G37*
G36*
X123391911Y-86988183D02*
G01*
X122436355Y-86988183D01*
X122436355Y-86430877D01*
X122514133Y-86430877D01*
X122517939Y-86883345D01*
X122544999Y-86910405D01*
X122583267Y-86910405D01*
X122610327Y-86883345D01*
X122614133Y-86864211D01*
X122611382Y-86537228D01*
X122801163Y-86699902D01*
X122811666Y-86710405D01*
X122813416Y-86710405D01*
X122814781Y-86711575D01*
X122832335Y-86710405D01*
X122849934Y-86710405D01*
X122851190Y-86709148D01*
X122852965Y-86709030D01*
X122864553Y-86695785D01*
X122876994Y-86683345D01*
X122877451Y-86681044D01*
X122878164Y-86680230D01*
X122878025Y-86678157D01*
X122880800Y-86664211D01*
X122878134Y-86580766D01*
X122899886Y-86532452D01*
X122921844Y-86507818D01*
X122970917Y-86480738D01*
X123113373Y-86477819D01*
X123162555Y-86499963D01*
X123187193Y-86521924D01*
X123214250Y-86570954D01*
X123217299Y-86746541D01*
X123195047Y-86795967D01*
X123151272Y-86845077D01*
X123151272Y-86883345D01*
X123178332Y-86910405D01*
X123216600Y-86910405D01*
X123232821Y-86899566D01*
X123259035Y-86870158D01*
X123263560Y-86868650D01*
X123275521Y-86853238D01*
X123276952Y-86850058D01*
X123276994Y-86850012D01*
X123276994Y-86849966D01*
X123304253Y-86789418D01*
X123310327Y-86783345D01*
X123312969Y-86770058D01*
X123314007Y-86767755D01*
X123313644Y-86766667D01*
X123314133Y-86764211D01*
X123310766Y-86570387D01*
X123314007Y-86560667D01*
X123310366Y-86547372D01*
X123310327Y-86545077D01*
X123309516Y-86544266D01*
X123308855Y-86541851D01*
X123276994Y-86484115D01*
X123276994Y-86478409D01*
X123266155Y-86462188D01*
X123263671Y-86459974D01*
X123263560Y-86459772D01*
X123263375Y-86459710D01*
X123236746Y-86435975D01*
X123235239Y-86431451D01*
X123219827Y-86419490D01*
X123216645Y-86418057D01*
X123216600Y-86418017D01*
X123216555Y-86418017D01*
X123156006Y-86390755D01*
X123149934Y-86384683D01*
X123136649Y-86382040D01*
X123134345Y-86381003D01*
X123133256Y-86381365D01*
X123130800Y-86380877D01*
X122970086Y-86384169D01*
X122960588Y-86381003D01*
X122947324Y-86384635D01*
X122944999Y-86384683D01*
X122944187Y-86385494D01*
X122941772Y-86386156D01*
X122884037Y-86418017D01*
X122878332Y-86418017D01*
X122862111Y-86428856D01*
X122859899Y-86431337D01*
X122859693Y-86431451D01*
X122859630Y-86431638D01*
X122835898Y-86458262D01*
X122831373Y-86459771D01*
X122819412Y-86475183D01*
X122817979Y-86478364D01*
X122817939Y-86478410D01*
X122817939Y-86478454D01*
X122790678Y-86539004D01*
X122784606Y-86545077D01*
X122782280Y-86556770D01*
X122593769Y-86395185D01*
X122583267Y-86384683D01*
X122581517Y-86384683D01*
X122580152Y-86383513D01*
X122562598Y-86384683D01*
X122544999Y-86384683D01*
X122543742Y-86385939D01*
X122541968Y-86386058D01*
X122530379Y-86399302D01*
X122517939Y-86411743D01*
X122517481Y-86414043D01*
X122516769Y-86414858D01*
X122516907Y-86416930D01*
X122514133Y-86430877D01*
X122436355Y-86430877D01*
X122436355Y-85767754D01*
X122514259Y-85767754D01*
X122531373Y-85801983D01*
X122548322Y-85811644D01*
X123111879Y-85996354D01*
X122531373Y-86193104D01*
X122514259Y-86227333D01*
X122526360Y-86263637D01*
X122560589Y-86280751D01*
X122579944Y-86278311D01*
X123264378Y-86046336D01*
X123267677Y-86047418D01*
X123281329Y-86040591D01*
X123296893Y-86035317D01*
X123298563Y-86031974D01*
X123301906Y-86030304D01*
X123306919Y-86015264D01*
X123314007Y-86001088D01*
X123312825Y-85997544D01*
X123314007Y-85994000D01*
X123306919Y-85979823D01*
X123301906Y-85964784D01*
X123298563Y-85963112D01*
X123296893Y-85959771D01*
X123279944Y-85950110D01*
X122560589Y-85714336D01*
X122526360Y-85731450D01*
X122514259Y-85767754D01*
X122436355Y-85767754D01*
X122436355Y-85164210D01*
X122514133Y-85164210D01*
X122517939Y-85616678D01*
X122544999Y-85643738D01*
X122583267Y-85643738D01*
X122610327Y-85616678D01*
X122614133Y-85597544D01*
X122611382Y-85270561D01*
X122801163Y-85433235D01*
X122811666Y-85443738D01*
X122813416Y-85443738D01*
X122814781Y-85444908D01*
X122832335Y-85443738D01*
X122849934Y-85443738D01*
X122851190Y-85442481D01*
X122852965Y-85442363D01*
X122864553Y-85429118D01*
X122876994Y-85416678D01*
X122877451Y-85414377D01*
X122878164Y-85413563D01*
X122878025Y-85411490D01*
X122880800Y-85397544D01*
X122878134Y-85314099D01*
X122899886Y-85265785D01*
X122921844Y-85241151D01*
X122970917Y-85214071D01*
X123113373Y-85211152D01*
X123162555Y-85233296D01*
X123187193Y-85255257D01*
X123214250Y-85304287D01*
X123217299Y-85479874D01*
X123195047Y-85529300D01*
X123151272Y-85578410D01*
X123151272Y-85616678D01*
X123178332Y-85643738D01*
X123216600Y-85643738D01*
X123232821Y-85632899D01*
X123259035Y-85603491D01*
X123263560Y-85601983D01*
X123275521Y-85586571D01*
X123276952Y-85583391D01*
X123276994Y-85583345D01*
X123276994Y-85583299D01*
X123304253Y-85522751D01*
X123310327Y-85516678D01*
X123312969Y-85503391D01*
X123314007Y-85501088D01*
X123313644Y-85500000D01*
X123314133Y-85497544D01*
X123310766Y-85303720D01*
X123314007Y-85294000D01*
X123310366Y-85280705D01*
X123310327Y-85278410D01*
X123309516Y-85277599D01*
X123308855Y-85275184D01*
X123276994Y-85217448D01*
X123276994Y-85211742D01*
X123266155Y-85195521D01*
X123263671Y-85193307D01*
X123263560Y-85193105D01*
X123263375Y-85193043D01*
X123236746Y-85169308D01*
X123235239Y-85164784D01*
X123219827Y-85152823D01*
X123216645Y-85151390D01*
X123216600Y-85151350D01*
X123216555Y-85151350D01*
X123156006Y-85124088D01*
X123149934Y-85118016D01*
X123136649Y-85115373D01*
X123134345Y-85114336D01*
X123133256Y-85114698D01*
X123130800Y-85114210D01*
X122970086Y-85117502D01*
X122960588Y-85114336D01*
X122947324Y-85117968D01*
X122944999Y-85118016D01*
X122944187Y-85118827D01*
X122941772Y-85119489D01*
X122884037Y-85151350D01*
X122878332Y-85151350D01*
X122862111Y-85162189D01*
X122859899Y-85164670D01*
X122859693Y-85164784D01*
X122859630Y-85164971D01*
X122835898Y-85191595D01*
X122831373Y-85193104D01*
X122819412Y-85208516D01*
X122817979Y-85211697D01*
X122817939Y-85211743D01*
X122817939Y-85211787D01*
X122790678Y-85272337D01*
X122784606Y-85278410D01*
X122782280Y-85290103D01*
X122593769Y-85128518D01*
X122583267Y-85118016D01*
X122581517Y-85118016D01*
X122580152Y-85116846D01*
X122562598Y-85118016D01*
X122544999Y-85118016D01*
X122543742Y-85119272D01*
X122541968Y-85119391D01*
X122530379Y-85132635D01*
X122517939Y-85145076D01*
X122517481Y-85147376D01*
X122516769Y-85148191D01*
X122516907Y-85150263D01*
X122514133Y-85164210D01*
X122436355Y-85164210D01*
X122436355Y-85036432D01*
X123391911Y-85036432D01*
X123391911Y-86988183D01*
G37*
G36*
X117872006Y-85516051D02*
G01*
X117991601Y-85542879D01*
X117995105Y-85545598D01*
X118049182Y-85569945D01*
X118105562Y-85622663D01*
X118134197Y-85700553D01*
X118134133Y-85700877D01*
X118136528Y-85817795D01*
X117533179Y-85820989D01*
X117531061Y-85717575D01*
X117531567Y-85716688D01*
X117557030Y-85631731D01*
X117606369Y-85578966D01*
X117606494Y-85578932D01*
X117659758Y-85549538D01*
X117662927Y-85549384D01*
X117780740Y-85516869D01*
X117784133Y-85517544D01*
X117869400Y-85514819D01*
X117872006Y-85516051D01*
G37*
G36*
X118311911Y-86861359D02*
G01*
X117356355Y-86861359D01*
X117356355Y-86142125D01*
X117434763Y-86142125D01*
X117454820Y-86174717D01*
X117472552Y-86182851D01*
X117988104Y-86302798D01*
X117683792Y-86386265D01*
X117677547Y-86384647D01*
X117666614Y-86390976D01*
X117653743Y-86394507D01*
X117650327Y-86400405D01*
X117644429Y-86403821D01*
X117641080Y-86416379D01*
X117634569Y-86427626D01*
X117636325Y-86434211D01*
X117634569Y-86440797D01*
X117641080Y-86452043D01*
X117644429Y-86464601D01*
X117650327Y-86468016D01*
X117653743Y-86473915D01*
X117671250Y-86482523D01*
X117986534Y-86564207D01*
X117454820Y-86693705D01*
X117434763Y-86726297D01*
X117443627Y-86763524D01*
X117476219Y-86783581D01*
X117495714Y-86782851D01*
X118183709Y-86615292D01*
X118190718Y-86617108D01*
X118201221Y-86611027D01*
X118213446Y-86608050D01*
X118217365Y-86601680D01*
X118223837Y-86597934D01*
X118227022Y-86585989D01*
X118233503Y-86575458D01*
X118231770Y-86568182D01*
X118233697Y-86560958D01*
X118227503Y-86550259D01*
X118224639Y-86538231D01*
X118218269Y-86534311D01*
X118214523Y-86527840D01*
X118197016Y-86519232D01*
X117871066Y-86434784D01*
X118185141Y-86348640D01*
X118192048Y-86350247D01*
X118202311Y-86343930D01*
X118214524Y-86340581D01*
X118218270Y-86334109D01*
X118224639Y-86330190D01*
X118227502Y-86318163D01*
X118233698Y-86307462D01*
X118231771Y-86300236D01*
X118233503Y-86292963D01*
X118227023Y-86282433D01*
X118223837Y-86270486D01*
X118217364Y-86266739D01*
X118213446Y-86260371D01*
X118195714Y-86252237D01*
X117476219Y-86084841D01*
X117443627Y-86104898D01*
X117434763Y-86142125D01*
X117356355Y-86142125D01*
X117356355Y-85700877D01*
X117434133Y-85700877D01*
X117437939Y-85886678D01*
X117464999Y-85913738D01*
X117484133Y-85917544D01*
X118203267Y-85913738D01*
X118230327Y-85886678D01*
X118234133Y-85867544D01*
X118230918Y-85710598D01*
X118234007Y-85704421D01*
X118231567Y-85685066D01*
X118196994Y-85591023D01*
X118196994Y-85581743D01*
X118189409Y-85570392D01*
X118188573Y-85568117D01*
X118187545Y-85567603D01*
X118186155Y-85565522D01*
X118123840Y-85507254D01*
X118121906Y-85501451D01*
X118106494Y-85489490D01*
X118103308Y-85488055D01*
X118103267Y-85488017D01*
X118103222Y-85488017D01*
X118048962Y-85463587D01*
X118047232Y-85460703D01*
X118029592Y-85452370D01*
X117906724Y-85424807D01*
X117903267Y-85421350D01*
X117884133Y-85417544D01*
X117795312Y-85420381D01*
X117791492Y-85418089D01*
X117772006Y-85419037D01*
X117651297Y-85452350D01*
X117647255Y-85451003D01*
X117628439Y-85456156D01*
X117570704Y-85488017D01*
X117564999Y-85488017D01*
X117548778Y-85498855D01*
X117487805Y-85564061D01*
X117479693Y-85568117D01*
X117472948Y-85579948D01*
X117471272Y-85581742D01*
X117471272Y-85582890D01*
X117470032Y-85585066D01*
X117442390Y-85677291D01*
X117437939Y-85681743D01*
X117434133Y-85700877D01*
X117356355Y-85700877D01*
X117356355Y-85148410D01*
X117437939Y-85148410D01*
X117437939Y-85186678D01*
X117464999Y-85213738D01*
X117484133Y-85217544D01*
X118203267Y-85213738D01*
X118230327Y-85186678D01*
X118230327Y-85148410D01*
X118203267Y-85121350D01*
X118184133Y-85117544D01*
X117464999Y-85121350D01*
X117437939Y-85148410D01*
X117356355Y-85148410D01*
X117356355Y-85039766D01*
X118311911Y-85039766D01*
X118311911Y-86861359D01*
G37*
G36*
X115119222Y-86536629D02*
G01*
X115143858Y-86558590D01*
X115170889Y-86607571D01*
X115172255Y-86710154D01*
X115171984Y-86711692D01*
X115172281Y-86712116D01*
X115173712Y-86819557D01*
X114903513Y-86820987D01*
X114900821Y-86618868D01*
X114923219Y-86569119D01*
X114945179Y-86544484D01*
X114994399Y-86517322D01*
X115070910Y-86514878D01*
X115119222Y-86536629D01*
G37*
G36*
X115681911Y-86995322D02*
G01*
X114726355Y-86995322D01*
X114726355Y-86600877D01*
X114804133Y-86600877D01*
X114807939Y-86886678D01*
X114834999Y-86913738D01*
X114854133Y-86917544D01*
X115573267Y-86913738D01*
X115600327Y-86886678D01*
X115600327Y-86848410D01*
X115573267Y-86821350D01*
X115554133Y-86817544D01*
X115270154Y-86819046D01*
X115268941Y-86727950D01*
X115596299Y-86494415D01*
X115602949Y-86456729D01*
X115581004Y-86425378D01*
X115543318Y-86418728D01*
X115525460Y-86426582D01*
X115267379Y-86610695D01*
X115267334Y-86607349D01*
X115270674Y-86597332D01*
X115267024Y-86584004D01*
X115266994Y-86581743D01*
X115266182Y-86580931D01*
X115265521Y-86578516D01*
X115233660Y-86520781D01*
X115233660Y-86515078D01*
X115222822Y-86498856D01*
X115220338Y-86496642D01*
X115220226Y-86496438D01*
X115220039Y-86496375D01*
X115193414Y-86472641D01*
X115191906Y-86468117D01*
X115176494Y-86456156D01*
X115173314Y-86454724D01*
X115173268Y-86454683D01*
X115173222Y-86454683D01*
X115112672Y-86427422D01*
X115106600Y-86421350D01*
X115093313Y-86418707D01*
X115091010Y-86417670D01*
X115089922Y-86418032D01*
X115087466Y-86417544D01*
X114992633Y-86420573D01*
X114983922Y-86417670D01*
X114970768Y-86421272D01*
X114968332Y-86421350D01*
X114967520Y-86422161D01*
X114965105Y-86422823D01*
X114907371Y-86454683D01*
X114901665Y-86454683D01*
X114885444Y-86465522D01*
X114883231Y-86468004D01*
X114883027Y-86468117D01*
X114882964Y-86468303D01*
X114859230Y-86494929D01*
X114854706Y-86496438D01*
X114842745Y-86511850D01*
X114841312Y-86515031D01*
X114841272Y-86515077D01*
X114841272Y-86515121D01*
X114814011Y-86575670D01*
X114807939Y-86581743D01*
X114805296Y-86595027D01*
X114804259Y-86597332D01*
X114804621Y-86598420D01*
X114804133Y-86600877D01*
X114726355Y-86600877D01*
X114726355Y-85900877D01*
X114804133Y-85900877D01*
X114807425Y-86061590D01*
X114804259Y-86071088D01*
X114807891Y-86084351D01*
X114807939Y-86086678D01*
X114808750Y-86087489D01*
X114809412Y-86089904D01*
X114841272Y-86147639D01*
X114841272Y-86153346D01*
X114852111Y-86169567D01*
X114854593Y-86171779D01*
X114854706Y-86171984D01*
X114854892Y-86172046D01*
X114881518Y-86195779D01*
X114883027Y-86200304D01*
X114898439Y-86212265D01*
X114901622Y-86213698D01*
X114901667Y-86213738D01*
X114901711Y-86213738D01*
X114962258Y-86240997D01*
X114968332Y-86247071D01*
X114981618Y-86249713D01*
X114983922Y-86250751D01*
X114985009Y-86250388D01*
X114987466Y-86250877D01*
X115049764Y-86248113D01*
X115057677Y-86250751D01*
X115070698Y-86247184D01*
X115073267Y-86247071D01*
X115074078Y-86246259D01*
X115076493Y-86245598D01*
X115134228Y-86213738D01*
X115139934Y-86213738D01*
X115156155Y-86202899D01*
X115158366Y-86200417D01*
X115158573Y-86200304D01*
X115158635Y-86200116D01*
X115182368Y-86173491D01*
X115186893Y-86171983D01*
X115198854Y-86156571D01*
X115200285Y-86153391D01*
X115200327Y-86153345D01*
X115200327Y-86153299D01*
X115224754Y-86099042D01*
X115227640Y-86097311D01*
X115235973Y-86079671D01*
X115262803Y-85960072D01*
X115265521Y-85956571D01*
X115289886Y-85902452D01*
X115311844Y-85877818D01*
X115361236Y-85850561D01*
X115405138Y-85848614D01*
X115452555Y-85869963D01*
X115477193Y-85891924D01*
X115504271Y-85940994D01*
X115507204Y-86084178D01*
X115506699Y-86085066D01*
X115470926Y-86204421D01*
X115488040Y-86238650D01*
X115524344Y-86250751D01*
X115558573Y-86233637D01*
X115568234Y-86216688D01*
X115595875Y-86124462D01*
X115600327Y-86120011D01*
X115604133Y-86100877D01*
X115600840Y-85940165D01*
X115604007Y-85930667D01*
X115600374Y-85917400D01*
X115600327Y-85915077D01*
X115599516Y-85914266D01*
X115598855Y-85911851D01*
X115566994Y-85854115D01*
X115566994Y-85848409D01*
X115556155Y-85832188D01*
X115553671Y-85829974D01*
X115553560Y-85829772D01*
X115553375Y-85829710D01*
X115526746Y-85805975D01*
X115525239Y-85801451D01*
X115509827Y-85789490D01*
X115506645Y-85788057D01*
X115506600Y-85788017D01*
X115506555Y-85788017D01*
X115446006Y-85760755D01*
X115439934Y-85754683D01*
X115426649Y-85752040D01*
X115424345Y-85751003D01*
X115423256Y-85751365D01*
X115420800Y-85750877D01*
X115358500Y-85753640D01*
X115350588Y-85751003D01*
X115337566Y-85754569D01*
X115334999Y-85754683D01*
X115334187Y-85755494D01*
X115331772Y-85756156D01*
X115274037Y-85788017D01*
X115268332Y-85788017D01*
X115252111Y-85798856D01*
X115249899Y-85801337D01*
X115249693Y-85801451D01*
X115249630Y-85801638D01*
X115225898Y-85828262D01*
X115221373Y-85829771D01*
X115209412Y-85845183D01*
X115207979Y-85848364D01*
X115207939Y-85848410D01*
X115207939Y-85848454D01*
X115183511Y-85902712D01*
X115180626Y-85904444D01*
X115172293Y-85922084D01*
X115145464Y-86041679D01*
X115142745Y-86045183D01*
X115118379Y-86099303D01*
X115096422Y-86123935D01*
X115047030Y-86151192D01*
X115003127Y-86153139D01*
X114955709Y-86131791D01*
X114931073Y-86109831D01*
X114903994Y-86060760D01*
X114901061Y-85917575D01*
X114901567Y-85916688D01*
X114937340Y-85797333D01*
X114920226Y-85763104D01*
X114883922Y-85751003D01*
X114849693Y-85768117D01*
X114840032Y-85785066D01*
X114812390Y-85877291D01*
X114807939Y-85881743D01*
X114804133Y-85900877D01*
X114726355Y-85900877D01*
X114726355Y-85200877D01*
X114804133Y-85200877D01*
X114807939Y-85620011D01*
X114834999Y-85647071D01*
X114873267Y-85647071D01*
X114900327Y-85620011D01*
X114904133Y-85600877D01*
X114902768Y-85450619D01*
X115573267Y-85447071D01*
X115600327Y-85420011D01*
X115600327Y-85381743D01*
X115573267Y-85354683D01*
X115554133Y-85350877D01*
X114901894Y-85354328D01*
X114900327Y-85181743D01*
X114873267Y-85154683D01*
X114834999Y-85154683D01*
X114807939Y-85181743D01*
X114804133Y-85200877D01*
X114726355Y-85200877D01*
X114726355Y-85076905D01*
X115681911Y-85076905D01*
X115681911Y-86995322D01*
G37*
D11*
X115678922Y-94130000D02*
X116196078Y-94130000D01*
X115678922Y-95550000D02*
X116196078Y-95550000D01*
X116106078Y-88860000D02*
X115588922Y-88860000D01*
X116106078Y-90280000D02*
X115588922Y-90280000D01*
X116226078Y-91370000D02*
X115708922Y-91370000D01*
X116226078Y-92790000D02*
X115708922Y-92790000D01*
D12*
X110339000Y-93855600D02*
X112371000Y-93855600D01*
X112371000Y-90604400D02*
X110339000Y-90604400D01*
D11*
X119960000Y-94870000D02*
X119960000Y-94270000D01*
X120660000Y-93570000D02*
X122060000Y-93570000D01*
X122060000Y-95570000D02*
X120660000Y-95570000D01*
X122760000Y-94270000D02*
X122760000Y-94870000D01*
X119960000Y-94270000D02*
G75*
G02*
X120660000Y-93570000I700000J0D01*
G01*
X120660000Y-95570000D02*
G75*
G02*
X119960000Y-94870000I0J700000D01*
G01*
X122060000Y-93570000D02*
G75*
G02*
X122760000Y-94270000I1J-699999D01*
G01*
X122760000Y-94870000D02*
G75*
G02*
X122060000Y-95570000I-699999J-1D01*
G01*
X119970000Y-92330000D02*
X119970000Y-91730000D01*
X120670000Y-91030000D02*
X122070000Y-91030000D01*
X122070000Y-93030000D02*
X120670000Y-93030000D01*
X122770000Y-91730000D02*
X122770000Y-92330000D01*
X119970000Y-91730000D02*
G75*
G02*
X120670000Y-91030000I700000J0D01*
G01*
X120670000Y-93030000D02*
G75*
G02*
X119970000Y-92330000I0J700000D01*
G01*
X122070000Y-91030000D02*
G75*
G02*
X122770000Y-91730000I1J-699999D01*
G01*
X122770000Y-92330000D02*
G75*
G02*
X122070000Y-93030000I-699999J-1D01*
G01*
X113905000Y-82240000D02*
X113905000Y-84900000D01*
X121585000Y-82240000D02*
X113905000Y-82240000D01*
X121585000Y-82240000D02*
X121585000Y-84900000D01*
X121585000Y-84900000D02*
X113905000Y-84900000D01*
X122855000Y-82240000D02*
X124185000Y-82240000D01*
X124185000Y-82240000D02*
X124185000Y-83570000D01*
X119960000Y-89650000D02*
X119960000Y-89050000D01*
X120660000Y-88350000D02*
X122060000Y-88350000D01*
X122060000Y-90350000D02*
X120660000Y-90350000D01*
X122760000Y-89050000D02*
X122760000Y-89650000D01*
X119960000Y-89050000D02*
G75*
G02*
X120660000Y-88350000I700000J0D01*
G01*
X120660000Y-90350000D02*
G75*
G02*
X119960000Y-89650000I0J700000D01*
G01*
X122060000Y-88350000D02*
G75*
G02*
X122760000Y-89050000I1J-699999D01*
G01*
X122760000Y-89650000D02*
G75*
G02*
X122060000Y-90350000I-699999J-1D01*
G01*
M02*
