G04 #@! TF.GenerationSoftware,KiCad,Pcbnew,8.0.3*
G04 #@! TF.CreationDate,2024-11-28T13:48:10+05:45*
G04 #@! TF.ProjectId,Watchdog-v1.0,57617463-6864-46f6-972d-76312e302e6b,rev?*
G04 #@! TF.SameCoordinates,Original*
G04 #@! TF.FileFunction,Legend,Bot*
G04 #@! TF.FilePolarity,Positive*
%FSLAX46Y46*%
G04 Gerber Fmt 4.6, Leading zero omitted, Abs format (unit mm)*
G04 Created by KiCad (PCBNEW 8.0.3) date 2024-11-28 13:48:10*
%MOMM*%
%LPD*%
G01*
G04 APERTURE LIST*
%ADD10C,0.100000*%
G04 APERTURE END LIST*
D10*
G36*
X126007875Y-93944907D02*
G01*
X126009676Y-94285154D01*
X125984037Y-94299303D01*
X125874626Y-94302034D01*
X125825787Y-94280047D01*
X125801152Y-94258086D01*
X125774094Y-94209055D01*
X125771045Y-94033468D01*
X125793298Y-93984041D01*
X125815256Y-93959407D01*
X125864386Y-93932295D01*
X125973796Y-93929564D01*
X126007875Y-93944907D01*
G37*
G36*
X121422638Y-93718219D02*
G01*
X121447273Y-93740179D01*
X121475552Y-93791424D01*
X121475707Y-93794593D01*
X121508221Y-93912407D01*
X121507547Y-93915800D01*
X121510643Y-94066946D01*
X121509040Y-94070340D01*
X121482211Y-94189935D01*
X121479493Y-94193439D01*
X121455128Y-94247556D01*
X121433167Y-94272192D01*
X121383777Y-94299448D01*
X121339874Y-94301395D01*
X121292456Y-94280047D01*
X121267821Y-94258086D01*
X121239542Y-94206842D01*
X121239388Y-94203673D01*
X121206872Y-94085857D01*
X121207547Y-94082466D01*
X121204450Y-93931320D01*
X121206054Y-93927927D01*
X121232884Y-93808329D01*
X121235602Y-93804827D01*
X121259966Y-93750710D01*
X121281927Y-93726072D01*
X121331316Y-93698817D01*
X121375219Y-93696870D01*
X121422638Y-93718219D01*
G37*
G36*
X123389304Y-93951553D02*
G01*
X123413939Y-93973512D01*
X123440996Y-94022543D01*
X123444045Y-94198130D01*
X123421793Y-94247556D01*
X123399833Y-94272192D01*
X123350613Y-94299354D01*
X123274102Y-94301798D01*
X123225788Y-94280047D01*
X123201153Y-94258086D01*
X123174095Y-94209055D01*
X123171046Y-94033468D01*
X123193299Y-93984041D01*
X123215257Y-93959407D01*
X123264479Y-93932244D01*
X123340989Y-93929800D01*
X123389304Y-93951553D01*
G37*
G36*
X125386080Y-93950102D02*
G01*
X125407634Y-93989159D01*
X125408519Y-94055652D01*
X125172522Y-94011048D01*
X125171949Y-93998127D01*
X125191847Y-93953931D01*
X125231053Y-93932295D01*
X125340463Y-93929564D01*
X125386080Y-93950102D01*
G37*
G36*
X126218363Y-93004342D02*
G01*
X126220667Y-93005380D01*
X126221754Y-93005017D01*
X126224211Y-93005506D01*
X126373451Y-93002448D01*
X126419412Y-93023142D01*
X126441192Y-93062609D01*
X126443139Y-93106512D01*
X126423241Y-93150708D01*
X126384093Y-93172311D01*
X126241636Y-93175230D01*
X126206926Y-93159603D01*
X126205369Y-93001758D01*
X126218363Y-93004342D01*
G37*
G36*
X127419412Y-92823142D02*
G01*
X127440966Y-92862199D01*
X127441851Y-92928692D01*
X127205854Y-92884088D01*
X127205281Y-92871167D01*
X127225179Y-92826971D01*
X127264385Y-92805335D01*
X127373795Y-92802604D01*
X127419412Y-92823142D01*
G37*
G36*
X128110989Y-93173126D02*
G01*
X128007575Y-93175244D01*
X128006688Y-93174739D01*
X127921731Y-93149275D01*
X127868965Y-93099935D01*
X127868932Y-93099812D01*
X127839538Y-93046547D01*
X127839384Y-93043379D01*
X127806869Y-92925565D01*
X127807544Y-92922173D01*
X127804819Y-92836905D01*
X127806051Y-92834300D01*
X127832879Y-92714704D01*
X127835598Y-92711201D01*
X127859945Y-92657123D01*
X127912663Y-92600743D01*
X127990553Y-92572108D01*
X127990877Y-92572173D01*
X128107795Y-92569777D01*
X128110989Y-93173126D01*
G37*
G36*
X128348183Y-94706438D02*
G01*
X121029769Y-94706438D01*
X121029769Y-93915800D01*
X121107547Y-93915800D01*
X121110720Y-94070725D01*
X121108092Y-94075107D01*
X121109040Y-94094593D01*
X121142354Y-94215302D01*
X121141007Y-94219345D01*
X121146160Y-94238161D01*
X121178020Y-94295895D01*
X121178020Y-94301600D01*
X121188858Y-94317821D01*
X121191341Y-94320034D01*
X121191454Y-94320239D01*
X121191640Y-94320301D01*
X121218267Y-94344036D01*
X121219775Y-94348560D01*
X121235187Y-94360521D01*
X121238364Y-94361951D01*
X121238412Y-94361994D01*
X121238459Y-94361994D01*
X121299006Y-94389253D01*
X121305080Y-94395327D01*
X121318366Y-94397969D01*
X121320670Y-94399007D01*
X121321757Y-94398644D01*
X121324214Y-94399133D01*
X121386513Y-94396369D01*
X121394426Y-94399007D01*
X121407447Y-94395440D01*
X121410015Y-94395327D01*
X121410826Y-94394515D01*
X121413242Y-94393854D01*
X121470976Y-94361994D01*
X121476681Y-94361994D01*
X121492902Y-94351155D01*
X121495113Y-94348673D01*
X121495320Y-94348560D01*
X121495382Y-94348372D01*
X121519116Y-94321747D01*
X121523641Y-94320239D01*
X121535602Y-94304827D01*
X121537033Y-94301647D01*
X121537075Y-94301601D01*
X121537075Y-94301555D01*
X121539276Y-94296666D01*
X122311353Y-94296666D01*
X122311353Y-94334935D01*
X122311355Y-94334937D01*
X122322192Y-94351155D01*
X122371746Y-94395327D01*
X122410014Y-94395327D01*
X122426235Y-94384488D01*
X122470398Y-94334943D01*
X122470407Y-94334935D01*
X122470407Y-94296667D01*
X122470407Y-94296666D01*
X122470404Y-94296663D01*
X122459569Y-94280445D01*
X122410015Y-94236272D01*
X122410014Y-94236272D01*
X122371745Y-94236272D01*
X122355524Y-94247111D01*
X122311353Y-94296666D01*
X121539276Y-94296666D01*
X121561503Y-94247296D01*
X121564388Y-94245566D01*
X121572721Y-94227927D01*
X121600283Y-94105057D01*
X121603741Y-94101600D01*
X121607547Y-94082466D01*
X121604423Y-93929999D01*
X122311353Y-93929999D01*
X122311353Y-93968267D01*
X122322192Y-93984488D01*
X122371746Y-94028660D01*
X122410014Y-94028660D01*
X122426235Y-94017821D01*
X122470407Y-93968267D01*
X122470407Y-93929999D01*
X122470406Y-93929998D01*
X122459568Y-93913778D01*
X122410014Y-93869606D01*
X122371746Y-93869606D01*
X122355525Y-93880445D01*
X122311354Y-93929998D01*
X122311353Y-93929999D01*
X121604423Y-93929999D01*
X121604373Y-93927539D01*
X121607002Y-93923159D01*
X121606054Y-93903673D01*
X121594920Y-93863332D01*
X122578019Y-93863332D01*
X122578019Y-93901600D01*
X122605079Y-93928660D01*
X122624213Y-93932466D01*
X122675218Y-93930203D01*
X122722635Y-93951552D01*
X122747273Y-93973513D01*
X122775324Y-94024345D01*
X122778019Y-94368267D01*
X122805079Y-94395327D01*
X122843347Y-94395327D01*
X122870407Y-94368267D01*
X122874213Y-94349133D01*
X122871631Y-94019622D01*
X122872905Y-94015800D01*
X123074213Y-94015800D01*
X123077579Y-94209623D01*
X123074339Y-94219345D01*
X123077979Y-94232636D01*
X123078019Y-94234934D01*
X123078830Y-94235745D01*
X123079492Y-94238161D01*
X123111352Y-94295895D01*
X123111352Y-94301600D01*
X123122190Y-94317821D01*
X123124673Y-94320034D01*
X123124786Y-94320239D01*
X123124972Y-94320301D01*
X123151599Y-94344036D01*
X123153107Y-94348560D01*
X123168519Y-94360521D01*
X123171696Y-94361951D01*
X123171744Y-94361994D01*
X123171791Y-94361994D01*
X123232338Y-94389253D01*
X123238412Y-94395327D01*
X123251698Y-94397969D01*
X123254002Y-94399007D01*
X123255089Y-94398644D01*
X123257546Y-94399133D01*
X123352379Y-94396103D01*
X123361090Y-94399007D01*
X123374243Y-94395404D01*
X123376680Y-94395327D01*
X123377491Y-94394515D01*
X123379906Y-94393854D01*
X123437641Y-94361994D01*
X123443348Y-94361994D01*
X123459569Y-94351155D01*
X123461781Y-94348672D01*
X123461986Y-94348560D01*
X123462048Y-94348373D01*
X123485781Y-94321747D01*
X123490306Y-94320239D01*
X123502267Y-94304827D01*
X123503700Y-94301643D01*
X123503740Y-94301599D01*
X123503740Y-94301555D01*
X123530999Y-94241007D01*
X123537073Y-94234934D01*
X123539715Y-94221647D01*
X123540753Y-94219344D01*
X123540390Y-94218256D01*
X123540879Y-94215800D01*
X123537512Y-94021976D01*
X123540753Y-94012256D01*
X123537112Y-93998961D01*
X123537073Y-93996666D01*
X123536262Y-93995855D01*
X123535601Y-93993440D01*
X123503740Y-93935704D01*
X123503740Y-93929999D01*
X123492901Y-93913778D01*
X123490418Y-93911565D01*
X123490306Y-93911361D01*
X123490119Y-93911298D01*
X123463494Y-93887565D01*
X123461986Y-93883040D01*
X123446574Y-93871079D01*
X123443392Y-93869646D01*
X123443347Y-93869606D01*
X123443302Y-93869606D01*
X123382752Y-93842344D01*
X123376680Y-93836272D01*
X123363395Y-93833629D01*
X123361091Y-93832592D01*
X123360002Y-93832954D01*
X123357546Y-93832466D01*
X123262712Y-93835495D01*
X123254001Y-93832592D01*
X123240847Y-93836194D01*
X123238412Y-93836272D01*
X123237600Y-93837083D01*
X123235185Y-93837745D01*
X123177450Y-93869606D01*
X123171745Y-93869606D01*
X123155524Y-93880445D01*
X123153312Y-93882926D01*
X123153106Y-93883040D01*
X123153043Y-93883227D01*
X123129311Y-93909851D01*
X123124786Y-93911360D01*
X123112825Y-93926772D01*
X123111392Y-93929953D01*
X123111352Y-93929999D01*
X123111352Y-93930043D01*
X123084091Y-93990593D01*
X123078019Y-93996666D01*
X123075376Y-94009952D01*
X123074339Y-94012256D01*
X123074701Y-94013343D01*
X123074213Y-94015800D01*
X122872905Y-94015800D01*
X122874087Y-94012256D01*
X122871499Y-94002806D01*
X122870407Y-93863332D01*
X122843347Y-93836272D01*
X122805079Y-93836272D01*
X122778019Y-93863332D01*
X122776759Y-93869662D01*
X122776725Y-93869646D01*
X122776680Y-93869606D01*
X122776635Y-93869606D01*
X122716086Y-93842344D01*
X122710014Y-93836272D01*
X122696729Y-93833629D01*
X122694425Y-93832592D01*
X122693336Y-93832954D01*
X122690880Y-93832466D01*
X122605079Y-93836272D01*
X122578019Y-93863332D01*
X121594920Y-93863332D01*
X121572740Y-93782964D01*
X121574088Y-93778922D01*
X121568935Y-93760105D01*
X121537075Y-93702370D01*
X121537075Y-93696665D01*
X121526236Y-93680444D01*
X121523753Y-93678231D01*
X121523641Y-93678027D01*
X121523454Y-93677964D01*
X121496828Y-93654230D01*
X121495320Y-93649706D01*
X121479908Y-93637745D01*
X121476726Y-93636312D01*
X121476681Y-93636272D01*
X121476636Y-93636272D01*
X121462703Y-93629999D01*
X123644685Y-93629999D01*
X123644685Y-93668267D01*
X123671745Y-93695327D01*
X123690879Y-93699133D01*
X123741885Y-93696870D01*
X123786082Y-93716768D01*
X123807586Y-93755737D01*
X123808070Y-93834456D01*
X123671745Y-93836272D01*
X123644685Y-93863332D01*
X123644685Y-93901600D01*
X123671745Y-93928660D01*
X123690879Y-93932466D01*
X123808663Y-93930897D01*
X123811352Y-94368267D01*
X123838412Y-94395327D01*
X123876680Y-94395327D01*
X123903740Y-94368267D01*
X123907546Y-94349133D01*
X123904967Y-93929614D01*
X123976680Y-93928660D01*
X124003740Y-93901600D01*
X124003740Y-93863332D01*
X124578018Y-93863332D01*
X124578018Y-93901600D01*
X124605078Y-93928660D01*
X124624212Y-93932466D01*
X124675217Y-93930203D01*
X124722634Y-93951552D01*
X124747272Y-93973513D01*
X124775323Y-94024345D01*
X124778018Y-94368267D01*
X124805078Y-94395327D01*
X124843346Y-94395327D01*
X124870406Y-94368267D01*
X124874212Y-94349133D01*
X124871630Y-94019622D01*
X124874086Y-94012256D01*
X124871498Y-94002806D01*
X124871339Y-93982466D01*
X125074212Y-93982466D01*
X125077157Y-94048864D01*
X125075163Y-94058836D01*
X125077773Y-94062751D01*
X125078018Y-94068267D01*
X125088314Y-94078563D01*
X125096390Y-94090677D01*
X125103298Y-94093547D01*
X125105078Y-94095327D01*
X125107582Y-94095327D01*
X125114406Y-94098162D01*
X125409829Y-94153996D01*
X125410856Y-94231141D01*
X125389909Y-94277668D01*
X125350704Y-94299303D01*
X125241293Y-94302034D01*
X125161089Y-94265926D01*
X125124785Y-94278028D01*
X125107671Y-94312256D01*
X125119773Y-94348560D01*
X125135185Y-94360521D01*
X125199004Y-94389253D01*
X125205078Y-94395327D01*
X125218364Y-94397969D01*
X125220668Y-94399007D01*
X125221755Y-94398644D01*
X125224212Y-94399133D01*
X125351904Y-94395945D01*
X125361089Y-94399007D01*
X125374310Y-94395386D01*
X125376679Y-94395327D01*
X125377490Y-94394515D01*
X125379905Y-94393854D01*
X125446693Y-94356998D01*
X125456972Y-94353572D01*
X125460020Y-94349644D01*
X125461985Y-94348560D01*
X125462830Y-94346023D01*
X125468933Y-94338160D01*
X125497665Y-94274340D01*
X125503739Y-94268267D01*
X125506381Y-94254980D01*
X125507419Y-94252677D01*
X125507056Y-94251589D01*
X125507545Y-94249133D01*
X125505699Y-94110568D01*
X125506594Y-94106097D01*
X125505620Y-94104637D01*
X125504438Y-94015800D01*
X125674212Y-94015800D01*
X125677578Y-94209623D01*
X125674338Y-94219345D01*
X125677978Y-94232636D01*
X125678018Y-94234934D01*
X125678829Y-94235745D01*
X125679491Y-94238161D01*
X125711351Y-94295895D01*
X125711351Y-94301600D01*
X125722189Y-94317821D01*
X125724672Y-94320034D01*
X125724785Y-94320239D01*
X125724971Y-94320301D01*
X125751598Y-94344036D01*
X125753106Y-94348560D01*
X125768518Y-94360521D01*
X125771695Y-94361951D01*
X125771743Y-94361994D01*
X125771790Y-94361994D01*
X125832337Y-94389253D01*
X125838411Y-94395327D01*
X125851697Y-94397969D01*
X125854001Y-94399007D01*
X125855088Y-94398644D01*
X125857545Y-94399133D01*
X125985237Y-94395945D01*
X125994422Y-94399007D01*
X126007643Y-94395386D01*
X126010012Y-94395327D01*
X126010258Y-94395080D01*
X126011351Y-94601600D01*
X126038411Y-94628660D01*
X126076679Y-94628660D01*
X126103739Y-94601600D01*
X126107545Y-94582466D01*
X126106135Y-94316107D01*
X126107419Y-94312256D01*
X126106100Y-94309619D01*
X126104369Y-93982466D01*
X126340878Y-93982466D01*
X126344684Y-94368267D01*
X126371744Y-94395327D01*
X126410012Y-94395327D01*
X126437072Y-94368267D01*
X126440878Y-94349133D01*
X126437440Y-94000735D01*
X126458513Y-93953931D01*
X126497811Y-93932244D01*
X126574321Y-93929800D01*
X126619413Y-93950102D01*
X126640943Y-93989117D01*
X126644684Y-94368267D01*
X126671744Y-94395327D01*
X126710012Y-94395327D01*
X126737072Y-94368267D01*
X126740878Y-94349133D01*
X126737440Y-94000735D01*
X126758513Y-93953931D01*
X126797811Y-93932244D01*
X126874321Y-93929800D01*
X126922636Y-93951553D01*
X126941551Y-93968413D01*
X126944684Y-94368267D01*
X126971744Y-94395327D01*
X127010012Y-94395327D01*
X127037072Y-94368267D01*
X127040878Y-94349133D01*
X127037222Y-93882466D01*
X127274211Y-93882466D01*
X127278017Y-94368267D01*
X127305077Y-94395327D01*
X127343345Y-94395327D01*
X127364811Y-94373860D01*
X127399003Y-94389253D01*
X127405077Y-94395327D01*
X127418363Y-94397969D01*
X127420667Y-94399007D01*
X127421754Y-94398644D01*
X127424211Y-94399133D01*
X127519044Y-94396103D01*
X127527755Y-94399007D01*
X127540908Y-94395404D01*
X127543345Y-94395327D01*
X127544156Y-94394515D01*
X127546571Y-94393854D01*
X127613359Y-94356998D01*
X127623638Y-94353572D01*
X127626686Y-94349644D01*
X127628651Y-94348560D01*
X127629496Y-94346023D01*
X127635599Y-94338160D01*
X127664331Y-94274340D01*
X127670405Y-94268267D01*
X127673047Y-94254980D01*
X127674085Y-94252677D01*
X127673722Y-94251589D01*
X127674211Y-94249133D01*
X127670405Y-93863332D01*
X127643345Y-93836272D01*
X127605077Y-93836272D01*
X127578017Y-93863332D01*
X127574211Y-93882466D01*
X127577648Y-94230863D01*
X127556575Y-94277668D01*
X127517278Y-94299354D01*
X127440767Y-94301798D01*
X127392453Y-94280047D01*
X127373537Y-94263185D01*
X127370405Y-93863332D01*
X127343345Y-93836272D01*
X127305077Y-93836272D01*
X127278017Y-93863332D01*
X127274211Y-93882466D01*
X127037222Y-93882466D01*
X127037072Y-93863332D01*
X127010012Y-93836272D01*
X126971744Y-93836272D01*
X126950276Y-93857739D01*
X126916084Y-93842344D01*
X126910012Y-93836272D01*
X126896727Y-93833629D01*
X126894423Y-93832592D01*
X126893334Y-93832954D01*
X126890878Y-93832466D01*
X126796044Y-93835495D01*
X126787333Y-93832592D01*
X126774179Y-93836194D01*
X126771744Y-93836272D01*
X126770932Y-93837083D01*
X126768517Y-93837745D01*
X126701731Y-93874600D01*
X126691451Y-93878027D01*
X126690781Y-93878890D01*
X126690305Y-93878027D01*
X126687769Y-93877181D01*
X126679906Y-93871079D01*
X126616084Y-93842344D01*
X126610012Y-93836272D01*
X126596727Y-93833629D01*
X126594423Y-93832592D01*
X126593334Y-93832954D01*
X126590878Y-93832466D01*
X126496044Y-93835495D01*
X126487333Y-93832592D01*
X126474179Y-93836194D01*
X126471744Y-93836272D01*
X126470932Y-93837083D01*
X126468517Y-93837745D01*
X126401731Y-93874600D01*
X126391451Y-93878027D01*
X126388401Y-93881956D01*
X126386438Y-93883040D01*
X126385592Y-93885575D01*
X126379490Y-93893439D01*
X126350756Y-93957259D01*
X126344684Y-93963332D01*
X126342041Y-93976616D01*
X126341004Y-93978921D01*
X126341366Y-93980009D01*
X126340878Y-93982466D01*
X126104369Y-93982466D01*
X126104070Y-93926041D01*
X126107419Y-93919345D01*
X126103980Y-93909029D01*
X126103739Y-93863332D01*
X126076679Y-93836272D01*
X126038411Y-93836272D01*
X126027292Y-93847390D01*
X126016084Y-93842344D01*
X126010012Y-93836272D01*
X125996727Y-93833629D01*
X125994423Y-93832592D01*
X125993334Y-93832954D01*
X125990878Y-93832466D01*
X125863185Y-93835653D01*
X125854000Y-93832592D01*
X125840778Y-93836212D01*
X125838411Y-93836272D01*
X125837599Y-93837083D01*
X125835184Y-93837745D01*
X125777449Y-93869606D01*
X125771744Y-93869606D01*
X125755523Y-93880445D01*
X125753311Y-93882926D01*
X125753105Y-93883040D01*
X125753042Y-93883227D01*
X125729310Y-93909851D01*
X125724785Y-93911360D01*
X125712824Y-93926772D01*
X125711391Y-93929953D01*
X125711351Y-93929999D01*
X125711351Y-93930043D01*
X125684090Y-93990593D01*
X125678018Y-93996666D01*
X125675375Y-94009952D01*
X125674338Y-94012256D01*
X125674700Y-94013343D01*
X125674212Y-94015800D01*
X125504438Y-94015800D01*
X125504080Y-93988939D01*
X125507419Y-93978922D01*
X125503769Y-93965593D01*
X125503739Y-93963332D01*
X125502927Y-93962520D01*
X125502266Y-93960105D01*
X125465411Y-93893320D01*
X125461985Y-93883040D01*
X125458055Y-93879990D01*
X125456972Y-93878027D01*
X125454436Y-93877181D01*
X125446573Y-93871079D01*
X125382751Y-93842344D01*
X125376679Y-93836272D01*
X125363394Y-93833629D01*
X125361090Y-93832592D01*
X125360001Y-93832954D01*
X125357545Y-93832466D01*
X125229852Y-93835653D01*
X125220667Y-93832592D01*
X125207445Y-93836212D01*
X125205078Y-93836272D01*
X125204266Y-93837083D01*
X125201851Y-93837745D01*
X125135065Y-93874600D01*
X125124785Y-93878027D01*
X125121735Y-93881956D01*
X125119772Y-93883040D01*
X125118926Y-93885575D01*
X125112824Y-93893439D01*
X125084090Y-93957259D01*
X125078018Y-93963332D01*
X125075375Y-93976616D01*
X125074338Y-93978921D01*
X125074700Y-93980009D01*
X125074212Y-93982466D01*
X124871339Y-93982466D01*
X124870406Y-93863332D01*
X124843346Y-93836272D01*
X124805078Y-93836272D01*
X124778018Y-93863332D01*
X124776758Y-93869662D01*
X124776724Y-93869646D01*
X124776679Y-93869606D01*
X124776634Y-93869606D01*
X124716085Y-93842344D01*
X124710013Y-93836272D01*
X124696728Y-93833629D01*
X124694424Y-93832592D01*
X124693335Y-93832954D01*
X124690879Y-93832466D01*
X124605078Y-93836272D01*
X124578018Y-93863332D01*
X124003740Y-93863332D01*
X123976680Y-93836272D01*
X123957546Y-93832466D01*
X123904374Y-93833174D01*
X123903900Y-93756146D01*
X123907420Y-93745589D01*
X123903753Y-93732198D01*
X123903740Y-93729999D01*
X123902929Y-93729188D01*
X123902268Y-93726773D01*
X123865413Y-93659989D01*
X123861986Y-93649706D01*
X123861248Y-93649133D01*
X127907544Y-93649133D01*
X127911132Y-94138662D01*
X127907670Y-94145589D01*
X127910110Y-94164944D01*
X127944683Y-94258986D01*
X127944683Y-94268267D01*
X127952267Y-94279617D01*
X127953104Y-94281893D01*
X127954131Y-94282406D01*
X127955522Y-94284488D01*
X128020728Y-94345460D01*
X128024784Y-94353573D01*
X128036615Y-94360317D01*
X128038409Y-94361994D01*
X128039558Y-94361994D01*
X128041733Y-94363234D01*
X128133958Y-94390875D01*
X128138410Y-94395327D01*
X128157544Y-94399133D01*
X128160997Y-94398979D01*
X128161088Y-94399007D01*
X128161156Y-94398972D01*
X128243345Y-94395327D01*
X128270405Y-94368267D01*
X128270405Y-94329999D01*
X128243345Y-94302939D01*
X128224211Y-94299133D01*
X128172453Y-94301428D01*
X128088398Y-94276235D01*
X128036114Y-94227347D01*
X128007479Y-94149456D01*
X128007544Y-94149133D01*
X128003738Y-93629999D01*
X127976678Y-93602939D01*
X127938410Y-93602939D01*
X127911350Y-93629999D01*
X127907544Y-93649133D01*
X123861248Y-93649133D01*
X123858055Y-93646655D01*
X123856973Y-93644694D01*
X123854439Y-93643849D01*
X123846574Y-93637745D01*
X123782752Y-93609011D01*
X123776680Y-93602939D01*
X123763393Y-93600296D01*
X123761090Y-93599259D01*
X123760002Y-93599621D01*
X123757546Y-93599133D01*
X123671745Y-93602939D01*
X123644685Y-93629999D01*
X121462703Y-93629999D01*
X121416087Y-93609011D01*
X121410015Y-93602939D01*
X121396730Y-93600296D01*
X121394426Y-93599259D01*
X121393337Y-93599621D01*
X121390881Y-93599133D01*
X121328582Y-93601896D01*
X121320670Y-93599259D01*
X121307645Y-93602825D01*
X121305080Y-93602939D01*
X121304269Y-93603749D01*
X121301854Y-93604411D01*
X121244119Y-93636272D01*
X121238412Y-93636272D01*
X121222191Y-93647111D01*
X121219977Y-93649594D01*
X121219775Y-93649706D01*
X121219713Y-93649890D01*
X121195978Y-93676519D01*
X121191454Y-93678027D01*
X121179493Y-93693439D01*
X121178060Y-93696620D01*
X121178020Y-93696666D01*
X121178020Y-93696710D01*
X121153592Y-93750967D01*
X121150707Y-93752699D01*
X121142374Y-93770339D01*
X121114810Y-93893208D01*
X121111353Y-93896666D01*
X121107547Y-93915800D01*
X121029769Y-93915800D01*
X121029769Y-93203039D01*
X121811350Y-93203039D01*
X121811350Y-93241307D01*
X121838410Y-93268367D01*
X121857544Y-93272173D01*
X122276678Y-93268367D01*
X122303738Y-93241307D01*
X122303738Y-93203039D01*
X122478017Y-93203039D01*
X122478017Y-93241307D01*
X122505077Y-93268367D01*
X122524211Y-93272173D01*
X122943345Y-93268367D01*
X122970405Y-93241307D01*
X122970405Y-93203039D01*
X123144684Y-93203039D01*
X123144684Y-93241307D01*
X123171744Y-93268367D01*
X123190878Y-93272173D01*
X123610012Y-93268367D01*
X123637072Y-93241307D01*
X123637072Y-93203039D01*
X123610012Y-93175979D01*
X123590878Y-93172173D01*
X123440620Y-93173537D01*
X123440600Y-93169706D01*
X124344684Y-93169706D01*
X124344684Y-93207975D01*
X124344686Y-93207977D01*
X124355523Y-93224195D01*
X124405077Y-93268367D01*
X124443345Y-93268367D01*
X124459566Y-93257528D01*
X124503729Y-93207983D01*
X124503738Y-93207975D01*
X124503738Y-93169707D01*
X124503738Y-93169706D01*
X124503735Y-93169703D01*
X124492900Y-93153485D01*
X124443346Y-93109312D01*
X124443345Y-93109312D01*
X124405076Y-93109312D01*
X124388855Y-93120151D01*
X124344684Y-93169706D01*
X123440600Y-93169706D01*
X123438659Y-92803039D01*
X124344684Y-92803039D01*
X124344684Y-92841307D01*
X124355523Y-92857528D01*
X124405077Y-92901700D01*
X124443345Y-92901700D01*
X124459566Y-92890861D01*
X124503738Y-92841307D01*
X124503738Y-92803039D01*
X124492899Y-92786818D01*
X124443345Y-92742646D01*
X124405077Y-92742646D01*
X124388856Y-92753485D01*
X124344684Y-92803039D01*
X123438659Y-92803039D01*
X123437967Y-92672281D01*
X123484504Y-92715797D01*
X123486439Y-92721600D01*
X123501851Y-92733561D01*
X123505034Y-92734994D01*
X123505077Y-92735034D01*
X123505123Y-92735034D01*
X123587334Y-92772047D01*
X123623638Y-92759946D01*
X123635425Y-92736372D01*
X124611350Y-92736372D01*
X124611350Y-92774640D01*
X124638410Y-92801700D01*
X124657544Y-92805506D01*
X124775943Y-92803929D01*
X124777785Y-93103598D01*
X124756575Y-93150708D01*
X124717108Y-93172488D01*
X124638410Y-93175979D01*
X124611350Y-93203039D01*
X124611350Y-93241307D01*
X124638410Y-93268367D01*
X124657544Y-93272173D01*
X124719842Y-93269409D01*
X124727755Y-93272047D01*
X124740776Y-93268480D01*
X124743345Y-93268367D01*
X124744156Y-93267555D01*
X124746571Y-93266894D01*
X124813359Y-93230038D01*
X124823638Y-93226612D01*
X124824332Y-93225717D01*
X125041004Y-93225717D01*
X125058118Y-93259945D01*
X125094422Y-93272047D01*
X125113238Y-93266894D01*
X125180026Y-93230038D01*
X125190305Y-93226612D01*
X125193353Y-93222684D01*
X125195318Y-93221600D01*
X125196163Y-93219063D01*
X125202266Y-93211200D01*
X125230998Y-93147380D01*
X125237072Y-93141307D01*
X125239714Y-93128020D01*
X125240752Y-93125717D01*
X125240389Y-93124629D01*
X125240878Y-93122173D01*
X125238624Y-92755506D01*
X125474211Y-92755506D01*
X125478017Y-93241307D01*
X125505077Y-93268367D01*
X125543345Y-93268367D01*
X125564811Y-93246900D01*
X125599003Y-93262293D01*
X125605077Y-93268367D01*
X125618363Y-93271009D01*
X125620667Y-93272047D01*
X125621754Y-93271684D01*
X125624211Y-93272173D01*
X125719044Y-93269143D01*
X125727755Y-93272047D01*
X125740908Y-93268444D01*
X125743345Y-93268367D01*
X125744156Y-93267555D01*
X125746571Y-93266894D01*
X125813359Y-93230038D01*
X125823638Y-93226612D01*
X125826686Y-93222684D01*
X125828651Y-93221600D01*
X125829496Y-93219063D01*
X125835599Y-93211200D01*
X125864331Y-93147380D01*
X125870405Y-93141307D01*
X125873047Y-93128020D01*
X125874085Y-93125717D01*
X125873722Y-93124629D01*
X125874211Y-93122173D01*
X125871580Y-92855506D01*
X126107544Y-92855506D01*
X126108157Y-92917654D01*
X126107670Y-92918629D01*
X126108181Y-92920164D01*
X126110736Y-93179162D01*
X126107670Y-93185296D01*
X126110892Y-93194963D01*
X126111350Y-93241307D01*
X126138410Y-93268367D01*
X126176678Y-93268367D01*
X126187796Y-93257248D01*
X126199003Y-93262293D01*
X126205077Y-93268367D01*
X126218363Y-93271009D01*
X126220667Y-93272047D01*
X126221754Y-93271684D01*
X126224211Y-93272173D01*
X126384923Y-93268880D01*
X126394421Y-93272047D01*
X126407684Y-93268414D01*
X126410011Y-93268367D01*
X126410822Y-93267555D01*
X126413237Y-93266894D01*
X126480025Y-93230038D01*
X126490304Y-93226612D01*
X126493352Y-93222684D01*
X126495317Y-93221600D01*
X126496162Y-93219063D01*
X126502265Y-93211200D01*
X126530997Y-93147380D01*
X126537071Y-93141307D01*
X126539713Y-93128020D01*
X126540751Y-93125717D01*
X126540388Y-93124629D01*
X126540877Y-93122173D01*
X126538113Y-93059874D01*
X126540751Y-93051962D01*
X126537184Y-93038939D01*
X126537071Y-93036372D01*
X126536259Y-93035560D01*
X126535598Y-93033145D01*
X126498743Y-92966360D01*
X126495317Y-92956080D01*
X126491387Y-92953030D01*
X126490304Y-92951067D01*
X126487768Y-92950221D01*
X126479905Y-92944119D01*
X126416083Y-92915384D01*
X126410011Y-92909312D01*
X126396726Y-92906669D01*
X126394422Y-92905632D01*
X126393333Y-92905994D01*
X126390877Y-92905506D01*
X126241636Y-92908563D01*
X126204284Y-92891746D01*
X126204106Y-92873775D01*
X126225179Y-92826971D01*
X126264385Y-92805335D01*
X126373795Y-92802604D01*
X126453999Y-92838714D01*
X126490304Y-92826613D01*
X126507418Y-92792385D01*
X126495317Y-92756080D01*
X126479905Y-92744119D01*
X126416083Y-92715384D01*
X126410011Y-92709312D01*
X126396726Y-92706669D01*
X126394422Y-92705632D01*
X126393333Y-92705994D01*
X126390877Y-92705506D01*
X126263184Y-92708693D01*
X126253999Y-92705632D01*
X126240777Y-92709252D01*
X126238410Y-92709312D01*
X126237598Y-92710123D01*
X126235183Y-92710785D01*
X126168397Y-92747640D01*
X126158117Y-92751067D01*
X126155067Y-92754996D01*
X126153104Y-92756080D01*
X126152258Y-92758615D01*
X126146156Y-92766479D01*
X126117422Y-92830299D01*
X126111350Y-92836372D01*
X126108707Y-92849656D01*
X126107670Y-92851961D01*
X126108032Y-92853049D01*
X126107544Y-92855506D01*
X125871580Y-92855506D01*
X125870405Y-92736372D01*
X125843345Y-92709312D01*
X125805077Y-92709312D01*
X125778017Y-92736372D01*
X125774211Y-92755506D01*
X125777648Y-93103903D01*
X125756575Y-93150708D01*
X125717278Y-93172394D01*
X125640767Y-93174838D01*
X125592453Y-93153087D01*
X125573537Y-93136225D01*
X125570405Y-92736372D01*
X125543345Y-92709312D01*
X125505077Y-92709312D01*
X125478017Y-92736372D01*
X125474211Y-92755506D01*
X125238624Y-92755506D01*
X125237072Y-92503039D01*
X126644683Y-92503039D01*
X126644683Y-92541307D01*
X126671743Y-92568367D01*
X126690877Y-92572173D01*
X126741883Y-92569910D01*
X126786080Y-92589808D01*
X126807584Y-92628777D01*
X126808068Y-92707496D01*
X126671743Y-92709312D01*
X126644683Y-92736372D01*
X126644683Y-92774640D01*
X126671743Y-92801700D01*
X126690877Y-92805506D01*
X126808661Y-92803937D01*
X126811350Y-93241307D01*
X126838410Y-93268367D01*
X126876678Y-93268367D01*
X126903738Y-93241307D01*
X126907544Y-93222173D01*
X126905290Y-92855506D01*
X127107544Y-92855506D01*
X127110489Y-92921904D01*
X127108495Y-92931876D01*
X127111105Y-92935791D01*
X127111350Y-92941307D01*
X127121646Y-92951603D01*
X127129722Y-92963717D01*
X127136630Y-92966587D01*
X127138410Y-92968367D01*
X127140914Y-92968367D01*
X127147738Y-92971202D01*
X127443161Y-93027036D01*
X127444188Y-93104181D01*
X127423241Y-93150708D01*
X127384036Y-93172343D01*
X127274625Y-93175074D01*
X127194421Y-93138966D01*
X127158117Y-93151068D01*
X127141003Y-93185296D01*
X127153105Y-93221600D01*
X127168517Y-93233561D01*
X127232336Y-93262293D01*
X127238410Y-93268367D01*
X127251696Y-93271009D01*
X127254000Y-93272047D01*
X127255087Y-93271684D01*
X127257544Y-93272173D01*
X127385236Y-93268985D01*
X127394421Y-93272047D01*
X127407642Y-93268426D01*
X127410011Y-93268367D01*
X127410822Y-93267555D01*
X127413237Y-93266894D01*
X127480025Y-93230038D01*
X127490304Y-93226612D01*
X127493352Y-93222684D01*
X127495317Y-93221600D01*
X127496162Y-93219063D01*
X127502265Y-93211200D01*
X127530997Y-93147380D01*
X127537071Y-93141307D01*
X127539713Y-93128020D01*
X127540751Y-93125717D01*
X127540388Y-93124629D01*
X127540877Y-93122173D01*
X127539031Y-92983608D01*
X127539926Y-92979137D01*
X127538952Y-92977677D01*
X127537412Y-92861979D01*
X127540751Y-92851962D01*
X127537101Y-92838633D01*
X127537071Y-92836372D01*
X127536259Y-92835560D01*
X127535598Y-92833145D01*
X127529543Y-92822173D01*
X127707544Y-92822173D01*
X127710381Y-92910993D01*
X127708089Y-92914814D01*
X127709037Y-92934300D01*
X127742350Y-93055008D01*
X127741003Y-93059051D01*
X127746156Y-93077867D01*
X127778017Y-93135602D01*
X127778017Y-93141307D01*
X127788855Y-93157528D01*
X127854060Y-93218499D01*
X127858117Y-93226613D01*
X127869951Y-93233358D01*
X127871743Y-93235034D01*
X127872891Y-93235034D01*
X127875066Y-93236274D01*
X127967291Y-93263915D01*
X127971743Y-93268367D01*
X127990877Y-93272173D01*
X128176678Y-93268367D01*
X128203738Y-93241307D01*
X128207544Y-93222173D01*
X128203738Y-92503039D01*
X128176678Y-92475979D01*
X128157544Y-92472173D01*
X128000598Y-92475387D01*
X127994421Y-92472299D01*
X127975066Y-92474739D01*
X127881023Y-92509312D01*
X127871743Y-92509312D01*
X127860392Y-92516896D01*
X127858117Y-92517733D01*
X127857603Y-92518760D01*
X127855522Y-92520151D01*
X127797254Y-92582465D01*
X127791451Y-92584400D01*
X127779490Y-92599812D01*
X127778055Y-92602997D01*
X127778017Y-92603039D01*
X127778017Y-92603083D01*
X127753587Y-92657343D01*
X127750703Y-92659074D01*
X127742370Y-92676714D01*
X127714807Y-92799581D01*
X127711350Y-92803039D01*
X127707544Y-92822173D01*
X127529543Y-92822173D01*
X127498743Y-92766360D01*
X127495317Y-92756080D01*
X127491387Y-92753030D01*
X127490304Y-92751067D01*
X127487768Y-92750221D01*
X127479905Y-92744119D01*
X127416083Y-92715384D01*
X127410011Y-92709312D01*
X127396726Y-92706669D01*
X127394422Y-92705632D01*
X127393333Y-92705994D01*
X127390877Y-92705506D01*
X127263184Y-92708693D01*
X127253999Y-92705632D01*
X127240777Y-92709252D01*
X127238410Y-92709312D01*
X127237598Y-92710123D01*
X127235183Y-92710785D01*
X127168397Y-92747640D01*
X127158117Y-92751067D01*
X127155067Y-92754996D01*
X127153104Y-92756080D01*
X127152258Y-92758615D01*
X127146156Y-92766479D01*
X127117422Y-92830299D01*
X127111350Y-92836372D01*
X127108707Y-92849656D01*
X127107670Y-92851961D01*
X127108032Y-92853049D01*
X127107544Y-92855506D01*
X126905290Y-92855506D01*
X126904965Y-92802654D01*
X126976678Y-92801700D01*
X127003738Y-92774640D01*
X127003738Y-92736372D01*
X126976678Y-92709312D01*
X126957544Y-92705506D01*
X126904372Y-92706214D01*
X126903898Y-92629186D01*
X126907418Y-92618629D01*
X126903751Y-92605238D01*
X126903738Y-92603039D01*
X126902927Y-92602228D01*
X126902266Y-92599813D01*
X126865411Y-92533029D01*
X126861984Y-92522746D01*
X126858053Y-92519695D01*
X126856971Y-92517734D01*
X126854437Y-92516889D01*
X126846572Y-92510785D01*
X126782750Y-92482051D01*
X126776678Y-92475979D01*
X126763391Y-92473336D01*
X126761088Y-92472299D01*
X126760000Y-92472661D01*
X126757544Y-92472173D01*
X126671743Y-92475979D01*
X126644683Y-92503039D01*
X125237072Y-92503039D01*
X125210012Y-92475979D01*
X125171744Y-92475979D01*
X125144684Y-92503039D01*
X125140878Y-92522173D01*
X125144452Y-93103598D01*
X125123242Y-93150708D01*
X125053106Y-93189413D01*
X125041004Y-93225717D01*
X124824332Y-93225717D01*
X124826686Y-93222684D01*
X124828651Y-93221600D01*
X124829496Y-93219063D01*
X124835599Y-93211200D01*
X124864331Y-93147380D01*
X124870405Y-93141307D01*
X124873047Y-93128020D01*
X124874085Y-93125717D01*
X124873722Y-93124629D01*
X124874211Y-93122173D01*
X124872246Y-92802646D01*
X124943345Y-92801700D01*
X124970405Y-92774640D01*
X124970405Y-92736372D01*
X124943345Y-92709312D01*
X124924211Y-92705506D01*
X124871653Y-92706205D01*
X124870405Y-92503039D01*
X124843345Y-92475979D01*
X124805077Y-92475979D01*
X124778017Y-92503039D01*
X124774211Y-92522173D01*
X124775350Y-92707488D01*
X124638410Y-92709312D01*
X124611350Y-92736372D01*
X123635425Y-92736372D01*
X123640752Y-92725718D01*
X123628651Y-92689413D01*
X123613239Y-92677452D01*
X123559161Y-92653105D01*
X123500862Y-92598592D01*
X123499147Y-92594438D01*
X123437091Y-92506647D01*
X123437072Y-92503039D01*
X123428436Y-92494403D01*
X123418700Y-92480629D01*
X123413652Y-92479619D01*
X123410012Y-92475979D01*
X123395450Y-92475979D01*
X123381175Y-92473124D01*
X123376892Y-92475979D01*
X123371744Y-92475979D01*
X123361447Y-92486275D01*
X123349334Y-92494351D01*
X123348324Y-92499398D01*
X123344684Y-92503039D01*
X123340878Y-92522173D01*
X123344329Y-93174411D01*
X123171744Y-93175979D01*
X123144684Y-93203039D01*
X122970405Y-93203039D01*
X122943345Y-93175979D01*
X122924211Y-93172173D01*
X122773953Y-93173537D01*
X122771300Y-92672281D01*
X122817837Y-92715797D01*
X122819772Y-92721600D01*
X122835184Y-92733561D01*
X122838367Y-92734994D01*
X122838410Y-92735034D01*
X122838456Y-92735034D01*
X122920667Y-92772047D01*
X122956971Y-92759946D01*
X122974085Y-92725718D01*
X122961984Y-92689413D01*
X122946572Y-92677452D01*
X122892494Y-92653105D01*
X122834195Y-92598592D01*
X122832480Y-92594438D01*
X122770424Y-92506647D01*
X122770405Y-92503039D01*
X122761769Y-92494403D01*
X122752033Y-92480629D01*
X122746985Y-92479619D01*
X122743345Y-92475979D01*
X122728783Y-92475979D01*
X122714508Y-92473124D01*
X122710225Y-92475979D01*
X122705077Y-92475979D01*
X122694780Y-92486275D01*
X122682667Y-92494351D01*
X122681657Y-92499398D01*
X122678017Y-92503039D01*
X122674211Y-92522173D01*
X122677662Y-93174411D01*
X122505077Y-93175979D01*
X122478017Y-93203039D01*
X122303738Y-93203039D01*
X122276678Y-93175979D01*
X122257544Y-93172173D01*
X122107286Y-93173537D01*
X122104633Y-92672281D01*
X122151170Y-92715797D01*
X122153105Y-92721600D01*
X122168517Y-92733561D01*
X122171700Y-92734994D01*
X122171743Y-92735034D01*
X122171789Y-92735034D01*
X122254000Y-92772047D01*
X122290304Y-92759946D01*
X122307418Y-92725718D01*
X122295317Y-92689413D01*
X122279905Y-92677452D01*
X122225827Y-92653105D01*
X122167528Y-92598592D01*
X122165813Y-92594438D01*
X122103757Y-92506647D01*
X122103738Y-92503039D01*
X122095102Y-92494403D01*
X122085366Y-92480629D01*
X122080318Y-92479619D01*
X122076678Y-92475979D01*
X122062116Y-92475979D01*
X122047841Y-92473124D01*
X122043558Y-92475979D01*
X122038410Y-92475979D01*
X122028113Y-92486275D01*
X122016000Y-92494351D01*
X122014990Y-92499398D01*
X122011350Y-92503039D01*
X122007544Y-92522173D01*
X122010995Y-93174411D01*
X121838410Y-93175979D01*
X121811350Y-93203039D01*
X121029769Y-93203039D01*
X121029769Y-92394395D01*
X128348183Y-92394395D01*
X128348183Y-94706438D01*
G37*
M02*
