G04 #@! TF.GenerationSoftware,KiCad,Pcbnew,7.0.9*
G04 #@! TF.CreationDate,2024-02-07T11:32:08+05:45*
G04 #@! TF.ProjectId,OBC-v4.0,4f42432d-7634-42e3-902e-6b696361645f,rev?*
G04 #@! TF.SameCoordinates,Original*
G04 #@! TF.FileFunction,Copper,L1,Top*
G04 #@! TF.FilePolarity,Positive*
%FSLAX46Y46*%
G04 Gerber Fmt 4.6, Leading zero omitted, Abs format (unit mm)*
G04 Created by KiCad (PCBNEW 7.0.9) date 2024-02-07 11:32:08*
%MOMM*%
%LPD*%
G01*
G04 APERTURE LIST*
G04 Aperture macros list*
%AMRoundRect*
0 Rectangle with rounded corners*
0 $1 Rounding radius*
0 $2 $3 $4 $5 $6 $7 $8 $9 X,Y pos of 4 corners*
0 Add a 4 corners polygon primitive as box body*
4,1,4,$2,$3,$4,$5,$6,$7,$8,$9,$2,$3,0*
0 Add four circle primitives for the rounded corners*
1,1,$1+$1,$2,$3*
1,1,$1+$1,$4,$5*
1,1,$1+$1,$6,$7*
1,1,$1+$1,$8,$9*
0 Add four rect primitives between the rounded corners*
20,1,$1+$1,$2,$3,$4,$5,0*
20,1,$1+$1,$4,$5,$6,$7,0*
20,1,$1+$1,$6,$7,$8,$9,0*
20,1,$1+$1,$8,$9,$2,$3,0*%
G04 Aperture macros list end*
G04 #@! TA.AperFunction,SMDPad,CuDef*
%ADD10RoundRect,0.243750X-0.243750X-0.456250X0.243750X-0.456250X0.243750X0.456250X-0.243750X0.456250X0*%
G04 #@! TD*
G04 #@! TA.AperFunction,SMDPad,CuDef*
%ADD11RoundRect,0.243750X0.243750X0.456250X-0.243750X0.456250X-0.243750X-0.456250X0.243750X-0.456250X0*%
G04 #@! TD*
G04 #@! TA.AperFunction,SMDPad,CuDef*
%ADD12R,1.320800X0.431800*%
G04 #@! TD*
G04 #@! TA.AperFunction,ComponentPad*
%ADD13R,1.600000X1.600000*%
G04 #@! TD*
G04 #@! TA.AperFunction,ComponentPad*
%ADD14O,1.600000X1.600000*%
G04 #@! TD*
G04 #@! TA.AperFunction,ComponentPad*
%ADD15R,1.700000X1.700000*%
G04 #@! TD*
G04 #@! TA.AperFunction,ComponentPad*
%ADD16O,1.700000X1.700000*%
G04 #@! TD*
G04 #@! TA.AperFunction,ViaPad*
%ADD17C,0.600000*%
G04 #@! TD*
G04 #@! TA.AperFunction,Conductor*
%ADD18C,0.200000*%
G04 #@! TD*
G04 #@! TA.AperFunction,Conductor*
%ADD19C,0.600000*%
G04 #@! TD*
G04 #@! TA.AperFunction,Conductor*
%ADD20C,0.700000*%
G04 #@! TD*
G04 #@! TA.AperFunction,Conductor*
%ADD21C,0.800000*%
G04 #@! TD*
G04 APERTURE END LIST*
D10*
X115000000Y-94840000D03*
X116875000Y-94840000D03*
D11*
X116785000Y-89570000D03*
X114910000Y-89570000D03*
X116905000Y-92080000D03*
X115030000Y-92080000D03*
D12*
X112548800Y-93220600D03*
X112548800Y-92560200D03*
X112548800Y-91899800D03*
X112548800Y-91239400D03*
X110161200Y-91239400D03*
X110161200Y-91899800D03*
X110161200Y-92560200D03*
X110161200Y-93220600D03*
D13*
X126752500Y-95115000D03*
D14*
X126752500Y-92575000D03*
X126752500Y-90035000D03*
X119132500Y-90035000D03*
X119132500Y-92575000D03*
X119132500Y-95115000D03*
D15*
X122855000Y-83570000D03*
D16*
X120315000Y-83570000D03*
X117775000Y-83570000D03*
X115235000Y-83570000D03*
D17*
X113815000Y-94110000D03*
X120465000Y-86170000D03*
X122055000Y-89560000D03*
X114155000Y-96790000D03*
X124185000Y-88020000D03*
X116925000Y-93550000D03*
X113935000Y-91440000D03*
X116325000Y-88129500D03*
X109285000Y-88720000D03*
X110375000Y-89850000D03*
X116905000Y-90910000D03*
X112335000Y-94190000D03*
X112395000Y-90523998D03*
D18*
X113815000Y-92966000D02*
X113815000Y-94110000D01*
X112548800Y-92560200D02*
X113409200Y-92560200D01*
X113409200Y-92560200D02*
X113815000Y-92966000D01*
X110945000Y-94840000D02*
X110161200Y-94056200D01*
X114910000Y-89570000D02*
X114910000Y-88105000D01*
X115030000Y-92080000D02*
X115030000Y-89690000D01*
X122935000Y-83650000D02*
X122855000Y-83570000D01*
X115000000Y-94840000D02*
X110945000Y-94840000D01*
X110161200Y-94056200D02*
X110161200Y-93220600D01*
X122065000Y-87530000D02*
X122935000Y-86660000D01*
X114910000Y-88105000D02*
X115485000Y-87530000D01*
X115000000Y-92110000D02*
X115030000Y-92080000D01*
X115000000Y-94840000D02*
X115000000Y-92110000D01*
X115030000Y-89690000D02*
X114910000Y-89570000D01*
X122935000Y-86660000D02*
X122935000Y-83650000D01*
X115485000Y-87530000D02*
X122065000Y-87530000D01*
X112405000Y-83570000D02*
X111365000Y-84610000D01*
X111144800Y-92560200D02*
X110161200Y-92560200D01*
X115235000Y-83570000D02*
X112405000Y-83570000D01*
X111365000Y-92340000D02*
X111144800Y-92560200D01*
X111365000Y-86630000D02*
X111365000Y-92340000D01*
X111365000Y-84610000D02*
X111365000Y-86630000D01*
X112548800Y-91239400D02*
X113734400Y-91239400D01*
D19*
X116875000Y-94840000D02*
X118965000Y-94840000D01*
D18*
X113734400Y-91239400D02*
X113935000Y-91440000D01*
X116925000Y-94790000D02*
X116875000Y-94840000D01*
X116925000Y-93550000D02*
X116925000Y-94790000D01*
X116875000Y-94840000D02*
X118857500Y-94840000D01*
X118965000Y-94840000D02*
X119175000Y-94630000D01*
X118857500Y-94840000D02*
X119132500Y-95115000D01*
X116805000Y-89550000D02*
X116805000Y-88350000D01*
D20*
X117290000Y-90035000D02*
X119132500Y-90035000D01*
D18*
X116805000Y-89550000D02*
X116785000Y-89570000D01*
X109055000Y-91840000D02*
X109114800Y-91899800D01*
X109285000Y-88720000D02*
X109055000Y-88950000D01*
X116805000Y-88350000D02*
X116775000Y-88320000D01*
D20*
X116805000Y-89550000D02*
X117290000Y-90035000D01*
D18*
X109055000Y-88950000D02*
X109055000Y-91840000D01*
X116775000Y-88320000D02*
X116584500Y-88129500D01*
X109114800Y-91899800D02*
X110161200Y-91899800D01*
X116584500Y-88129500D02*
X116325000Y-88129500D01*
X116905000Y-90910000D02*
X116905000Y-92080000D01*
X110161200Y-91239400D02*
X110161200Y-90063800D01*
X119165000Y-92080000D02*
X119175000Y-92090000D01*
X110161200Y-90063800D02*
X110375000Y-89850000D01*
D21*
X117400000Y-92575000D02*
X119132500Y-92575000D01*
X116905000Y-92080000D02*
X117400000Y-92575000D01*
D18*
X112548800Y-93220600D02*
X112548800Y-93976200D01*
X112395000Y-89340000D02*
X114905000Y-86830000D01*
X117305000Y-86830000D02*
X117855000Y-86280000D01*
X112395000Y-90523998D02*
X112395000Y-89340000D01*
X117855000Y-86280000D02*
X117855000Y-83650000D01*
X117855000Y-83650000D02*
X117775000Y-83570000D01*
X114905000Y-86830000D02*
X117305000Y-86830000D01*
X112548800Y-93976200D02*
X112335000Y-94190000D01*
G04 #@! TA.AperFunction,Conductor*
G36*
X127002500Y-94799314D02*
G01*
X126990545Y-94787359D01*
X126877648Y-94729835D01*
X126783981Y-94715000D01*
X126721019Y-94715000D01*
X126627352Y-94729835D01*
X126514455Y-94787359D01*
X126502500Y-94799314D01*
X126502500Y-92890686D01*
X126514455Y-92902641D01*
X126627352Y-92960165D01*
X126721019Y-92975000D01*
X126783981Y-92975000D01*
X126877648Y-92960165D01*
X126990545Y-92902641D01*
X127002500Y-92890686D01*
X127002500Y-94799314D01*
G37*
G04 #@! TD.AperFunction*
G04 #@! TA.AperFunction,Conductor*
G36*
X127002500Y-92259314D02*
G01*
X126990545Y-92247359D01*
X126877648Y-92189835D01*
X126783981Y-92175000D01*
X126721019Y-92175000D01*
X126627352Y-92189835D01*
X126514455Y-92247359D01*
X126502500Y-92259314D01*
X126502500Y-90350686D01*
X126514455Y-90362641D01*
X126627352Y-90420165D01*
X126721019Y-90435000D01*
X126783981Y-90435000D01*
X126877648Y-90420165D01*
X126990545Y-90362641D01*
X127002500Y-90350686D01*
X127002500Y-92259314D01*
G37*
G04 #@! TD.AperFunction*
G04 #@! TA.AperFunction,Conductor*
G36*
X126827018Y-82145633D02*
G01*
X127014288Y-82157906D01*
X127072146Y-82161698D01*
X127080183Y-82162756D01*
X127319119Y-82210284D01*
X127326933Y-82212378D01*
X127557624Y-82290687D01*
X127565107Y-82293785D01*
X127773187Y-82396399D01*
X127783600Y-82401534D01*
X127790629Y-82405592D01*
X127993183Y-82540934D01*
X127999611Y-82545866D01*
X128142712Y-82671362D01*
X128182768Y-82706490D01*
X128188507Y-82712229D01*
X128349131Y-82895386D01*
X128354067Y-82901818D01*
X128404409Y-82977161D01*
X128489406Y-83104368D01*
X128493465Y-83111399D01*
X128601208Y-83329879D01*
X128604314Y-83337380D01*
X128617750Y-83376961D01*
X128682618Y-83568056D01*
X128684717Y-83575890D01*
X128732241Y-83814806D01*
X128733301Y-83822855D01*
X128749367Y-84067981D01*
X128749500Y-84072037D01*
X128749500Y-97067294D01*
X128749264Y-97072700D01*
X128736400Y-97219728D01*
X128732647Y-97241013D01*
X128696553Y-97375719D01*
X128689160Y-97396031D01*
X128630224Y-97522418D01*
X128619417Y-97541136D01*
X128539430Y-97655370D01*
X128525536Y-97671928D01*
X128426928Y-97770536D01*
X128410370Y-97784430D01*
X128296136Y-97864417D01*
X128277418Y-97875224D01*
X128151031Y-97934160D01*
X128130719Y-97941553D01*
X127996013Y-97977647D01*
X127974728Y-97981400D01*
X127860977Y-97991352D01*
X127827695Y-97994264D01*
X127822294Y-97994500D01*
X109827706Y-97994500D01*
X109822304Y-97994264D01*
X109785648Y-97991057D01*
X109675271Y-97981400D01*
X109653986Y-97977647D01*
X109519280Y-97941553D01*
X109498968Y-97934160D01*
X109372581Y-97875224D01*
X109353863Y-97864417D01*
X109239629Y-97784430D01*
X109223071Y-97770536D01*
X109124463Y-97671928D01*
X109110569Y-97655370D01*
X109030582Y-97541136D01*
X109019775Y-97522418D01*
X108960839Y-97396031D01*
X108953446Y-97375719D01*
X108917352Y-97241013D01*
X108913599Y-97219727D01*
X108900736Y-97072700D01*
X108900500Y-97067294D01*
X108900500Y-93855674D01*
X108920185Y-93788635D01*
X108972989Y-93742880D01*
X109042147Y-93732936D01*
X109105703Y-93761961D01*
X109123763Y-93781359D01*
X109137539Y-93799761D01*
X109254596Y-93887389D01*
X109338168Y-93918560D01*
X109391593Y-93938487D01*
X109391599Y-93938489D01*
X109415004Y-93941005D01*
X109437013Y-93943372D01*
X109501564Y-93970110D01*
X109541412Y-94027503D01*
X109546696Y-94050478D01*
X109552221Y-94092448D01*
X109552223Y-94092463D01*
X109563254Y-94176250D01*
X109568361Y-94215048D01*
X109568363Y-94215054D01*
X109629673Y-94363071D01*
X109629676Y-94363077D01*
X109667929Y-94412928D01*
X109702723Y-94458272D01*
X109702725Y-94458274D01*
X109702726Y-94458275D01*
X109727212Y-94490186D01*
X109755898Y-94512198D01*
X109761994Y-94517543D01*
X110483655Y-95239204D01*
X110488996Y-95245294D01*
X110498927Y-95258236D01*
X110511010Y-95273984D01*
X110511011Y-95273985D01*
X110511013Y-95273987D01*
X110534894Y-95292311D01*
X110541284Y-95297215D01*
X110541308Y-95297235D01*
X110601064Y-95343087D01*
X110638124Y-95371524D01*
X110638126Y-95371524D01*
X110638128Y-95371526D01*
X110712136Y-95402181D01*
X110786149Y-95432838D01*
X110860611Y-95442641D01*
X110944999Y-95453751D01*
X110945000Y-95453751D01*
X110945001Y-95453751D01*
X110980853Y-95449031D01*
X110988954Y-95448500D01*
X113924686Y-95448500D01*
X113991725Y-95468185D01*
X114037480Y-95520989D01*
X114042388Y-95533487D01*
X114069839Y-95616329D01*
X114162156Y-95765998D01*
X114286502Y-95890344D01*
X114436171Y-95982661D01*
X114603096Y-96037974D01*
X114706125Y-96048500D01*
X115293874Y-96048499D01*
X115396904Y-96037974D01*
X115563829Y-95982661D01*
X115713498Y-95890344D01*
X115837844Y-95765998D01*
X115837849Y-95765988D01*
X115840232Y-95762977D01*
X115842400Y-95761441D01*
X115842951Y-95760891D01*
X115843045Y-95760985D01*
X115897254Y-95722599D01*
X115967053Y-95719459D01*
X116027469Y-95754554D01*
X116034768Y-95762977D01*
X116037153Y-95765994D01*
X116037156Y-95765998D01*
X116161502Y-95890344D01*
X116311171Y-95982661D01*
X116478096Y-96037974D01*
X116581125Y-96048500D01*
X117168874Y-96048499D01*
X117271904Y-96037974D01*
X117438829Y-95982661D01*
X117588498Y-95890344D01*
X117712844Y-95765998D01*
X117748987Y-95707400D01*
X117800933Y-95660679D01*
X117854524Y-95648500D01*
X117858508Y-95648500D01*
X117925547Y-95668185D01*
X117970889Y-95720093D01*
X117994977Y-95771749D01*
X118126302Y-95959300D01*
X118288200Y-96121198D01*
X118475751Y-96252523D01*
X118600591Y-96310736D01*
X118683250Y-96349281D01*
X118683252Y-96349281D01*
X118683257Y-96349284D01*
X118904413Y-96408543D01*
X119067332Y-96422796D01*
X119132498Y-96428498D01*
X119132500Y-96428498D01*
X119132502Y-96428498D01*
X119189521Y-96423509D01*
X119360587Y-96408543D01*
X119581743Y-96349284D01*
X119789249Y-96252523D01*
X119976800Y-96121198D01*
X120135154Y-95962844D01*
X125452500Y-95962844D01*
X125458901Y-96022372D01*
X125458903Y-96022379D01*
X125509145Y-96157086D01*
X125509149Y-96157093D01*
X125595309Y-96272187D01*
X125595312Y-96272190D01*
X125710406Y-96358350D01*
X125710413Y-96358354D01*
X125845120Y-96408596D01*
X125845127Y-96408598D01*
X125904655Y-96414999D01*
X125904672Y-96415000D01*
X126502500Y-96415000D01*
X126502500Y-95430686D01*
X126514455Y-95442641D01*
X126627352Y-95500165D01*
X126721019Y-95515000D01*
X126783981Y-95515000D01*
X126877648Y-95500165D01*
X126990545Y-95442641D01*
X127002500Y-95430686D01*
X127002500Y-96415000D01*
X127600328Y-96415000D01*
X127600344Y-96414999D01*
X127659872Y-96408598D01*
X127659879Y-96408596D01*
X127794586Y-96358354D01*
X127794593Y-96358350D01*
X127909687Y-96272190D01*
X127909690Y-96272187D01*
X127995850Y-96157093D01*
X127995854Y-96157086D01*
X128046096Y-96022379D01*
X128046098Y-96022372D01*
X128052499Y-95962844D01*
X128052500Y-95962827D01*
X128052500Y-95365000D01*
X127068186Y-95365000D01*
X127080141Y-95353045D01*
X127137665Y-95240148D01*
X127157486Y-95115000D01*
X127137665Y-94989852D01*
X127080141Y-94876955D01*
X127068186Y-94865000D01*
X128052500Y-94865000D01*
X128052500Y-94267172D01*
X128052499Y-94267155D01*
X128046098Y-94207627D01*
X128046096Y-94207620D01*
X127995854Y-94072913D01*
X127995850Y-94072906D01*
X127909690Y-93957812D01*
X127909687Y-93957809D01*
X127794593Y-93871649D01*
X127794586Y-93871645D01*
X127659879Y-93821403D01*
X127659872Y-93821401D01*
X127623522Y-93817493D01*
X127558971Y-93790755D01*
X127519123Y-93733362D01*
X127516630Y-93663537D01*
X127552283Y-93603448D01*
X127565656Y-93592628D01*
X127591319Y-93574658D01*
X127752157Y-93413820D01*
X127882634Y-93227482D01*
X127978765Y-93021326D01*
X127978769Y-93021317D01*
X128031372Y-92825000D01*
X127068186Y-92825000D01*
X127080141Y-92813045D01*
X127137665Y-92700148D01*
X127157486Y-92575000D01*
X127137665Y-92449852D01*
X127080141Y-92336955D01*
X127068186Y-92325000D01*
X128031372Y-92325000D01*
X128031372Y-92324999D01*
X127978769Y-92128682D01*
X127978765Y-92128673D01*
X127882634Y-91922517D01*
X127752157Y-91736179D01*
X127591320Y-91575342D01*
X127404981Y-91444865D01*
X127404979Y-91444864D01*
X127346043Y-91417382D01*
X127293603Y-91371210D01*
X127274451Y-91304017D01*
X127294666Y-91237136D01*
X127346043Y-91192618D01*
X127404979Y-91165135D01*
X127404981Y-91165134D01*
X127591320Y-91034657D01*
X127752157Y-90873820D01*
X127882634Y-90687482D01*
X127978765Y-90481326D01*
X127978769Y-90481317D01*
X128031372Y-90285000D01*
X127068186Y-90285000D01*
X127080141Y-90273045D01*
X127137665Y-90160148D01*
X127157486Y-90035000D01*
X127137665Y-89909852D01*
X127080141Y-89796955D01*
X127068186Y-89785000D01*
X128031372Y-89785000D01*
X128031372Y-89784999D01*
X127978769Y-89588682D01*
X127978765Y-89588673D01*
X127882634Y-89382517D01*
X127752157Y-89196179D01*
X127591320Y-89035342D01*
X127404982Y-88904865D01*
X127198828Y-88808734D01*
X127002500Y-88756127D01*
X127002500Y-89719314D01*
X126990545Y-89707359D01*
X126877648Y-89649835D01*
X126783981Y-89635000D01*
X126721019Y-89635000D01*
X126627352Y-89649835D01*
X126514455Y-89707359D01*
X126502500Y-89719314D01*
X126502500Y-88756127D01*
X126306171Y-88808734D01*
X126100017Y-88904865D01*
X125913679Y-89035342D01*
X125752842Y-89196179D01*
X125622365Y-89382517D01*
X125526234Y-89588673D01*
X125526230Y-89588682D01*
X125473627Y-89784999D01*
X125473628Y-89785000D01*
X126436814Y-89785000D01*
X126424859Y-89796955D01*
X126367335Y-89909852D01*
X126347514Y-90035000D01*
X126367335Y-90160148D01*
X126424859Y-90273045D01*
X126436814Y-90285000D01*
X125473628Y-90285000D01*
X125526230Y-90481317D01*
X125526234Y-90481326D01*
X125622365Y-90687482D01*
X125752842Y-90873820D01*
X125913679Y-91034657D01*
X126100017Y-91165134D01*
X126158957Y-91192618D01*
X126211396Y-91238790D01*
X126230548Y-91305984D01*
X126210332Y-91372865D01*
X126158957Y-91417382D01*
X126100017Y-91444865D01*
X125913679Y-91575342D01*
X125752842Y-91736179D01*
X125622365Y-91922517D01*
X125526234Y-92128673D01*
X125526230Y-92128682D01*
X125473627Y-92324999D01*
X125473628Y-92325000D01*
X126436814Y-92325000D01*
X126424859Y-92336955D01*
X126367335Y-92449852D01*
X126347514Y-92575000D01*
X126367335Y-92700148D01*
X126424859Y-92813045D01*
X126436814Y-92825000D01*
X125473628Y-92825000D01*
X125526230Y-93021317D01*
X125526234Y-93021326D01*
X125622365Y-93227482D01*
X125752842Y-93413820D01*
X125913683Y-93574661D01*
X125939345Y-93592630D01*
X125982970Y-93647207D01*
X125990162Y-93716705D01*
X125958640Y-93779060D01*
X125898409Y-93814473D01*
X125881478Y-93817493D01*
X125845126Y-93821401D01*
X125845120Y-93821403D01*
X125710413Y-93871645D01*
X125710406Y-93871649D01*
X125595312Y-93957809D01*
X125595309Y-93957812D01*
X125509149Y-94072906D01*
X125509145Y-94072913D01*
X125458903Y-94207620D01*
X125458901Y-94207627D01*
X125452500Y-94267155D01*
X125452500Y-94865000D01*
X126436814Y-94865000D01*
X126424859Y-94876955D01*
X126367335Y-94989852D01*
X126347514Y-95115000D01*
X126367335Y-95240148D01*
X126424859Y-95353045D01*
X126436814Y-95365000D01*
X125452500Y-95365000D01*
X125452500Y-95962844D01*
X120135154Y-95962844D01*
X120138698Y-95959300D01*
X120270023Y-95771749D01*
X120366784Y-95564243D01*
X120426043Y-95343087D01*
X120445998Y-95115000D01*
X120426043Y-94886913D01*
X120366784Y-94665757D01*
X120270023Y-94458251D01*
X120138698Y-94270700D01*
X119976800Y-94108802D01*
X119789249Y-93977477D01*
X119786510Y-93976200D01*
X119746155Y-93957382D01*
X119693715Y-93911210D01*
X119674563Y-93844017D01*
X119694778Y-93777136D01*
X119746155Y-93732618D01*
X119762723Y-93724892D01*
X119789249Y-93712523D01*
X119976800Y-93581198D01*
X120138698Y-93419300D01*
X120270023Y-93231749D01*
X120366784Y-93024243D01*
X120426043Y-92803087D01*
X120445998Y-92575000D01*
X120426043Y-92346913D01*
X120366784Y-92125757D01*
X120270023Y-91918251D01*
X120138698Y-91730700D01*
X119976800Y-91568802D01*
X119789249Y-91437477D01*
X119746155Y-91417382D01*
X119693715Y-91371210D01*
X119674563Y-91304017D01*
X119694778Y-91237136D01*
X119746155Y-91192618D01*
X119749382Y-91191112D01*
X119789249Y-91172523D01*
X119976800Y-91041198D01*
X120138698Y-90879300D01*
X120270023Y-90691749D01*
X120366784Y-90484243D01*
X120426043Y-90263087D01*
X120445998Y-90035000D01*
X120444398Y-90016717D01*
X120426043Y-89806918D01*
X120426043Y-89806913D01*
X120366784Y-89585757D01*
X120270023Y-89378251D01*
X120138698Y-89190700D01*
X119976800Y-89028802D01*
X119789249Y-88897477D01*
X119755040Y-88881525D01*
X119581749Y-88800718D01*
X119581738Y-88800714D01*
X119360589Y-88741457D01*
X119360581Y-88741456D01*
X119132502Y-88721502D01*
X119132498Y-88721502D01*
X118904418Y-88741456D01*
X118904410Y-88741457D01*
X118683261Y-88800714D01*
X118683250Y-88800718D01*
X118475754Y-88897475D01*
X118475752Y-88897476D01*
X118465200Y-88904865D01*
X118288200Y-89028802D01*
X118288198Y-89028803D01*
X118288195Y-89028806D01*
X118176821Y-89140181D01*
X118115498Y-89173666D01*
X118089140Y-89176500D01*
X117904508Y-89176500D01*
X117837469Y-89156815D01*
X117791714Y-89104011D01*
X117781150Y-89065102D01*
X117777442Y-89028806D01*
X117770474Y-88960596D01*
X117715161Y-88793671D01*
X117622844Y-88644002D01*
X117498498Y-88519656D01*
X117498494Y-88519653D01*
X117472401Y-88503558D01*
X117425677Y-88451609D01*
X117413500Y-88398021D01*
X117413500Y-88393944D01*
X117414031Y-88385843D01*
X117418750Y-88350000D01*
X117413739Y-88311939D01*
X117413736Y-88311909D01*
X117409362Y-88278687D01*
X117420127Y-88209651D01*
X117466506Y-88157395D01*
X117532301Y-88138500D01*
X122021054Y-88138500D01*
X122029151Y-88139030D01*
X122054527Y-88142371D01*
X122064999Y-88143750D01*
X122065000Y-88143750D01*
X122065001Y-88143750D01*
X122100846Y-88139031D01*
X122102961Y-88138752D01*
X122102974Y-88138751D01*
X122104881Y-88138500D01*
X122104885Y-88138500D01*
X122186002Y-88127820D01*
X122204457Y-88125391D01*
X122223851Y-88122838D01*
X122249755Y-88112108D01*
X122371876Y-88061524D01*
X122467072Y-87988477D01*
X122467073Y-87988475D01*
X122475164Y-87982267D01*
X122475171Y-87982261D01*
X122498983Y-87963990D01*
X122498982Y-87963990D01*
X122498987Y-87963987D01*
X122521010Y-87935285D01*
X122526338Y-87929209D01*
X123334202Y-87121345D01*
X123340293Y-87116003D01*
X123368987Y-87093987D01*
X123388318Y-87068792D01*
X123388324Y-87068787D01*
X123393476Y-87062072D01*
X123393478Y-87062071D01*
X123466524Y-86966876D01*
X123527838Y-86818851D01*
X123530391Y-86799456D01*
X123543500Y-86699885D01*
X123543500Y-86699879D01*
X123548750Y-86660000D01*
X123544030Y-86624151D01*
X123543500Y-86616054D01*
X123543500Y-85052500D01*
X123563185Y-84985461D01*
X123615989Y-84939706D01*
X123667500Y-84928500D01*
X123753638Y-84928500D01*
X123753654Y-84928499D01*
X123780692Y-84925591D01*
X123814201Y-84921989D01*
X123951204Y-84870889D01*
X124068261Y-84783261D01*
X124155889Y-84666204D01*
X124206989Y-84529201D01*
X124210959Y-84492272D01*
X124213499Y-84468654D01*
X124213500Y-84468637D01*
X124213500Y-82671362D01*
X124213499Y-82671345D01*
X124210157Y-82640270D01*
X124206989Y-82610799D01*
X124204222Y-82603381D01*
X124177559Y-82531894D01*
X124155889Y-82473796D01*
X124068261Y-82356739D01*
X124068259Y-82356737D01*
X124062946Y-82349640D01*
X124064109Y-82348768D01*
X124035218Y-82295858D01*
X124040202Y-82226166D01*
X124082074Y-82170233D01*
X124147538Y-82145816D01*
X124156384Y-82145500D01*
X126800469Y-82145500D01*
X126822962Y-82145500D01*
X126827018Y-82145633D01*
G37*
G04 #@! TD.AperFunction*
G04 #@! TA.AperFunction,Conductor*
G36*
X113923884Y-92252363D02*
G01*
X113988297Y-92279429D01*
X114027852Y-92337024D01*
X114034000Y-92375582D01*
X114034000Y-92586368D01*
X114034001Y-92586383D01*
X114044526Y-92689405D01*
X114082196Y-92803087D01*
X114099839Y-92856329D01*
X114192156Y-93005998D01*
X114316502Y-93130344D01*
X114332597Y-93140272D01*
X114379321Y-93192219D01*
X114391500Y-93245810D01*
X114391500Y-93655685D01*
X114371815Y-93722724D01*
X114332598Y-93761223D01*
X114286502Y-93789655D01*
X114162157Y-93914000D01*
X114069840Y-94063668D01*
X114069837Y-94063675D01*
X114064294Y-94080405D01*
X114042390Y-94146504D01*
X114002620Y-94203948D01*
X113938104Y-94230772D01*
X113924686Y-94231500D01*
X113270335Y-94231500D01*
X113203296Y-94211815D01*
X113157541Y-94159011D01*
X113147396Y-94091316D01*
X113152621Y-94051625D01*
X113180887Y-93987728D01*
X113239211Y-93949256D01*
X113262297Y-93944520D01*
X113318401Y-93938489D01*
X113318406Y-93938487D01*
X113318407Y-93938487D01*
X113356657Y-93924220D01*
X113455404Y-93887389D01*
X113572461Y-93799761D01*
X113660089Y-93682704D01*
X113705755Y-93560268D01*
X113711188Y-93545704D01*
X113711188Y-93545703D01*
X113711189Y-93545701D01*
X113715760Y-93503185D01*
X113717699Y-93485154D01*
X113717700Y-93485137D01*
X113717700Y-92956062D01*
X113717699Y-92956045D01*
X113711189Y-92895500D01*
X113709414Y-92887986D01*
X113706803Y-92846220D01*
X113709199Y-92823935D01*
X113709200Y-92823918D01*
X113709200Y-92776100D01*
X113698334Y-92765234D01*
X113668298Y-92756415D01*
X113636070Y-92726411D01*
X113616410Y-92700148D01*
X113572461Y-92641439D01*
X113572459Y-92641437D01*
X113567274Y-92634511D01*
X113542857Y-92569047D01*
X113557709Y-92500774D01*
X113567274Y-92485889D01*
X113572459Y-92478962D01*
X113572461Y-92478961D01*
X113636070Y-92393988D01*
X113692004Y-92352118D01*
X113703446Y-92350053D01*
X113718607Y-92334892D01*
X113728885Y-92299891D01*
X113781689Y-92254136D01*
X113847082Y-92243710D01*
X113923884Y-92252363D01*
G37*
G04 #@! TD.AperFunction*
G04 #@! TA.AperFunction,Conductor*
G36*
X120565000Y-84900633D02*
G01*
X120778483Y-84843433D01*
X120778492Y-84843429D01*
X120992578Y-84743600D01*
X121186078Y-84608108D01*
X121301914Y-84492272D01*
X121363237Y-84458787D01*
X121432929Y-84463771D01*
X121488863Y-84505642D01*
X121505777Y-84536619D01*
X121554110Y-84666203D01*
X121554111Y-84666204D01*
X121641739Y-84783261D01*
X121758796Y-84870889D01*
X121895799Y-84921989D01*
X121923050Y-84924918D01*
X121956345Y-84928499D01*
X121956362Y-84928500D01*
X122202500Y-84928500D01*
X122269539Y-84948185D01*
X122315294Y-85000989D01*
X122326500Y-85052500D01*
X122326500Y-86356589D01*
X122306815Y-86423628D01*
X122290181Y-86444270D01*
X121849270Y-86885181D01*
X121787947Y-86918666D01*
X121761589Y-86921500D01*
X118380837Y-86921500D01*
X118313798Y-86901815D01*
X118268043Y-86849011D01*
X118258099Y-86779853D01*
X118284921Y-86721119D01*
X118284036Y-86720440D01*
X118286990Y-86716589D01*
X118287124Y-86716297D01*
X118287639Y-86715743D01*
X118288985Y-86713988D01*
X118288987Y-86713987D01*
X118307267Y-86690164D01*
X118313475Y-86682073D01*
X118313477Y-86682072D01*
X118384726Y-86589217D01*
X118388544Y-86584705D01*
X118392996Y-86579925D01*
X118396462Y-86573922D01*
X118399614Y-86569813D01*
X118399375Y-86568437D01*
X118408020Y-86534978D01*
X118447838Y-86438850D01*
X118463500Y-86319885D01*
X118463500Y-86319884D01*
X118463723Y-86318191D01*
X118463726Y-86318160D01*
X118468750Y-86280000D01*
X118464030Y-86244151D01*
X118463500Y-86236054D01*
X118463500Y-84815583D01*
X118483185Y-84748544D01*
X118516794Y-84714681D01*
X118516528Y-84714339D01*
X118519197Y-84712261D01*
X118519685Y-84711770D01*
X118520561Y-84711197D01*
X118520576Y-84711189D01*
X118698240Y-84572906D01*
X118810325Y-84451150D01*
X118850715Y-84407276D01*
X118850715Y-84407275D01*
X118850722Y-84407268D01*
X118944749Y-84263347D01*
X118997894Y-84217994D01*
X119067125Y-84208570D01*
X119130461Y-84238072D01*
X119150130Y-84260048D01*
X119276890Y-84441078D01*
X119443917Y-84608105D01*
X119637421Y-84743600D01*
X119851507Y-84843429D01*
X119851516Y-84843433D01*
X120065000Y-84900634D01*
X120065000Y-84005501D01*
X120172685Y-84054680D01*
X120279237Y-84070000D01*
X120350763Y-84070000D01*
X120457315Y-84054680D01*
X120565000Y-84005501D01*
X120565000Y-84900633D01*
G37*
G04 #@! TD.AperFunction*
M02*
