M48
; DRILL file {KiCad 7.0.9} date Wed Feb  7 11:32:12 2024
; FORMAT={-:-/ absolute / inch / decimal}
; #@! TF.CreationDate,2024-02-07T11:32:12+05:45
; #@! TF.GenerationSoftware,Kicad,Pcbnew,7.0.9
; #@! TF.FileFunction,Plated,1,2,PTH
FMAT,2
INCH
; #@! TA.AperFunction,Plated,PTH,ViaDrill
T1C0.0157
; #@! TA.AperFunction,Plated,PTH,ComponentDrill
T2C0.0315
; #@! TA.AperFunction,Plated,PTH,ComponentDrill
T3C0.0394
%
G90
G05
T1
X4.3026Y-3.4929
X4.3455Y-3.5374
X4.4226Y-3.7083
X4.425Y-3.5639
X4.4809Y-3.7051
X4.4856Y-3.6
X4.4943Y-3.8106
X4.5797Y-3.4697
X4.6026Y-3.5791
X4.6033Y-3.6831
X4.7427Y-3.3925
X4.8053Y-3.526
X4.8892Y-3.4654
T2
X4.6903Y-3.5447
X4.6903Y-3.6447
X4.6903Y-3.7447
X4.9903Y-3.5447
X4.9903Y-3.6447
X4.9903Y-3.7447
T3
X4.5368Y-3.2902
X4.6368Y-3.2902
X4.7368Y-3.2902
X4.8368Y-3.2902
T0
M30
