G04 #@! TF.GenerationSoftware,KiCad,Pcbnew,7.0.9*
G04 #@! TF.CreationDate,2024-02-07T11:32:08+05:45*
G04 #@! TF.ProjectId,OBC-v4.0,4f42432d-7634-42e3-902e-6b696361645f,rev?*
G04 #@! TF.SameCoordinates,Original*
G04 #@! TF.FileFunction,Copper,L2,Bot*
G04 #@! TF.FilePolarity,Positive*
%FSLAX46Y46*%
G04 Gerber Fmt 4.6, Leading zero omitted, Abs format (unit mm)*
G04 Created by KiCad (PCBNEW 7.0.9) date 2024-02-07 11:32:08*
%MOMM*%
%LPD*%
G01*
G04 APERTURE LIST*
G04 #@! TA.AperFunction,ComponentPad*
%ADD10R,1.600000X1.600000*%
G04 #@! TD*
G04 #@! TA.AperFunction,ComponentPad*
%ADD11O,1.600000X1.600000*%
G04 #@! TD*
G04 #@! TA.AperFunction,ComponentPad*
%ADD12R,1.700000X1.700000*%
G04 #@! TD*
G04 #@! TA.AperFunction,ComponentPad*
%ADD13O,1.700000X1.700000*%
G04 #@! TD*
G04 #@! TA.AperFunction,ViaPad*
%ADD14C,0.600000*%
G04 #@! TD*
G04 #@! TA.AperFunction,Conductor*
%ADD15C,0.200000*%
G04 #@! TD*
G04 APERTURE END LIST*
D10*
X126752500Y-95115000D03*
D11*
X126752500Y-92575000D03*
X126752500Y-90035000D03*
X119132500Y-90035000D03*
X119132500Y-92575000D03*
X119132500Y-95115000D03*
D12*
X122855000Y-83570000D03*
D13*
X120315000Y-83570000D03*
X117775000Y-83570000D03*
X115235000Y-83570000D03*
D14*
X113815000Y-94110000D03*
X120465000Y-86170000D03*
X122055000Y-89560000D03*
X114155000Y-96790000D03*
X124185000Y-88020000D03*
X116925000Y-93550000D03*
X113935000Y-91440000D03*
X116325000Y-88129500D03*
X109285000Y-88720000D03*
X110375000Y-89850000D03*
X116905000Y-90910000D03*
X112335000Y-94190000D03*
X112395000Y-90523998D03*
D15*
X122055000Y-89560000D02*
X122645000Y-89560000D01*
X113815000Y-94110000D02*
X113815000Y-96450000D01*
X122055000Y-87760000D02*
X120465000Y-86170000D01*
X122055000Y-89560000D02*
X122055000Y-87760000D01*
X122645000Y-89560000D02*
X124185000Y-88020000D01*
X113815000Y-96450000D02*
X114155000Y-96790000D01*
X116915000Y-93540000D02*
X116925000Y-93550000D01*
X116915000Y-92590000D02*
X116915000Y-93540000D01*
X115765000Y-91440000D02*
X116915000Y-92590000D01*
X113935000Y-91440000D02*
X115765000Y-91440000D01*
X116325000Y-88129500D02*
X109875500Y-88129500D01*
X109875500Y-88129500D02*
X109285000Y-88720000D01*
X116445000Y-89850000D02*
X116885000Y-90290000D01*
X116885000Y-90890000D02*
X116905000Y-90910000D01*
X116885000Y-90290000D02*
X116885000Y-90890000D01*
X110375000Y-89850000D02*
X116445000Y-89850000D01*
X111115000Y-91810000D02*
X112395000Y-90530000D01*
X112335000Y-94190000D02*
X111415000Y-94190000D01*
X112395000Y-90530000D02*
X112395000Y-90523998D01*
X111415000Y-94190000D02*
X111115000Y-93890000D01*
X111115000Y-93890000D02*
X111115000Y-91810000D01*
M02*
