G04 #@! TF.GenerationSoftware,KiCad,Pcbnew,7.0.9*
G04 #@! TF.CreationDate,2024-02-07T11:32:08+05:45*
G04 #@! TF.ProjectId,OBC-v4.0,4f42432d-7634-42e3-902e-6b696361645f,rev?*
G04 #@! TF.SameCoordinates,Original*
G04 #@! TF.FileFunction,Other,ECO2*
%FSLAX46Y46*%
G04 Gerber Fmt 4.6, Leading zero omitted, Abs format (unit mm)*
G04 Created by KiCad (PCBNEW 7.0.9) date 2024-02-07 11:32:08*
%MOMM*%
%LPD*%
G01*
G04 APERTURE LIST*
%ADD10C,0.152400*%
G04 APERTURE END LIST*
D10*
X112853600Y-93398400D02*
X112853600Y-93017400D01*
X112853600Y-93017400D02*
X112218600Y-93042800D01*
X112853600Y-92738000D02*
X112853600Y-92357000D01*
X112853600Y-92357000D02*
X112218600Y-92382400D01*
X112853600Y-92077600D02*
X112853600Y-91696600D01*
X112853600Y-91696600D02*
X112218600Y-91722000D01*
X112853600Y-91417200D02*
X112853600Y-91036200D01*
X112853600Y-91036200D02*
X112218600Y-91061600D01*
X112218600Y-93728600D02*
X112218600Y-90731400D01*
X112218600Y-93398400D02*
X112853600Y-93398400D01*
X112218600Y-93042800D02*
X112218600Y-93398400D01*
X112218600Y-92738000D02*
X112853600Y-92738000D01*
X112218600Y-92382400D02*
X112218600Y-92738000D01*
X112218600Y-92077600D02*
X112853600Y-92077600D01*
X112218600Y-91722000D02*
X112218600Y-92077600D01*
X112218600Y-91417200D02*
X112853600Y-91417200D01*
X112218600Y-91061600D02*
X112218600Y-91417200D01*
X112218600Y-90731400D02*
X110491400Y-90731400D01*
X111659800Y-93728600D02*
X112218600Y-93728600D01*
X111050200Y-93728600D02*
X111659800Y-93728600D01*
X110491400Y-93728600D02*
X111050200Y-93728600D01*
X110491400Y-93398400D02*
X110491400Y-93042800D01*
X110491400Y-93042800D02*
X109856400Y-93042800D01*
X110491400Y-92738000D02*
X110491400Y-92382400D01*
X110491400Y-92382400D02*
X109856400Y-92382400D01*
X110491400Y-92077600D02*
X110491400Y-91722000D01*
X110491400Y-91722000D02*
X109856400Y-91722000D01*
X110491400Y-91417200D02*
X110491400Y-91061600D01*
X110491400Y-91061600D02*
X109856400Y-91061600D01*
X110491400Y-90731400D02*
X110491400Y-93728600D01*
X109856400Y-93423800D02*
X110491400Y-93398400D01*
X109856400Y-93042800D02*
X109856400Y-93423800D01*
X109856400Y-92763400D02*
X110491400Y-92738000D01*
X109856400Y-92382400D02*
X109856400Y-92763400D01*
X109856400Y-92103000D02*
X110491400Y-92077600D01*
X109856400Y-91722000D02*
X109856400Y-92103000D01*
X109856400Y-91442600D02*
X110491400Y-91417200D01*
X109856400Y-91061600D02*
X109856400Y-91442600D01*
X111659800Y-93728600D02*
G75*
G03*
X111050200Y-93728600I-304800J0D01*
G01*
M02*
