G04 #@! TF.GenerationSoftware,KiCad,Pcbnew,7.0.9*
G04 #@! TF.CreationDate,2024-02-07T11:32:08+05:45*
G04 #@! TF.ProjectId,OBC-v4.0,4f42432d-7634-42e3-902e-6b696361645f,rev?*
G04 #@! TF.SameCoordinates,Original*
G04 #@! TF.FileFunction,Soldermask,Top*
G04 #@! TF.FilePolarity,Negative*
%FSLAX46Y46*%
G04 Gerber Fmt 4.6, Leading zero omitted, Abs format (unit mm)*
G04 Created by KiCad (PCBNEW 7.0.9) date 2024-02-07 11:32:08*
%MOMM*%
%LPD*%
G01*
G04 APERTURE LIST*
G04 APERTURE END LIST*
G36*
X119181224Y-94119799D02*
G01*
X119224718Y-94119799D01*
X119273158Y-94128853D01*
X119327590Y-94134215D01*
X119368938Y-94146757D01*
X119406018Y-94153689D01*
X119457368Y-94173582D01*
X119515183Y-94191120D01*
X119548220Y-94208778D01*
X119578001Y-94220316D01*
X119629745Y-94252354D01*
X119688070Y-94283530D01*
X119712576Y-94303641D01*
X119734811Y-94317409D01*
X119784075Y-94362319D01*
X119839607Y-94407893D01*
X119856063Y-94427945D01*
X119871111Y-94441663D01*
X119914797Y-94499513D01*
X119963970Y-94559430D01*
X119973477Y-94577218D01*
X119982262Y-94588850D01*
X120017213Y-94659040D01*
X120056380Y-94732317D01*
X120060556Y-94746086D01*
X120064472Y-94753949D01*
X120087605Y-94835255D01*
X120113285Y-94919910D01*
X120114128Y-94928473D01*
X120114946Y-94931347D01*
X120123443Y-95023047D01*
X120132500Y-95115000D01*
X120123442Y-95206960D01*
X120114946Y-95298652D01*
X120114128Y-95301524D01*
X120113285Y-95310090D01*
X120087600Y-95394759D01*
X120064472Y-95476050D01*
X120060557Y-95483911D01*
X120056380Y-95497683D01*
X120017205Y-95570972D01*
X119982262Y-95641149D01*
X119973479Y-95652778D01*
X119963970Y-95670570D01*
X119914788Y-95730498D01*
X119871111Y-95788336D01*
X119856066Y-95802050D01*
X119839607Y-95822107D01*
X119784064Y-95867689D01*
X119734811Y-95912590D01*
X119712581Y-95926354D01*
X119688070Y-95946470D01*
X119629733Y-95977651D01*
X119578001Y-96009683D01*
X119548227Y-96021217D01*
X119515183Y-96038880D01*
X119457356Y-96056421D01*
X119406018Y-96076310D01*
X119368945Y-96083240D01*
X119327590Y-96095785D01*
X119273155Y-96101146D01*
X119224718Y-96110201D01*
X119181224Y-96110201D01*
X119132500Y-96115000D01*
X119083776Y-96110201D01*
X119040282Y-96110201D01*
X118991843Y-96101146D01*
X118937410Y-96095785D01*
X118896055Y-96083240D01*
X118858981Y-96076310D01*
X118807639Y-96056419D01*
X118749817Y-96038880D01*
X118716775Y-96021218D01*
X118686998Y-96009683D01*
X118635259Y-95977647D01*
X118576930Y-95946470D01*
X118552421Y-95926356D01*
X118530188Y-95912590D01*
X118480925Y-95867681D01*
X118425393Y-95822107D01*
X118408936Y-95802054D01*
X118393888Y-95788336D01*
X118350199Y-95730482D01*
X118301030Y-95670570D01*
X118291522Y-95652783D01*
X118282737Y-95641149D01*
X118247779Y-95570945D01*
X118208620Y-95497683D01*
X118204443Y-95483916D01*
X118200527Y-95476050D01*
X118177382Y-95394706D01*
X118151715Y-95310090D01*
X118150871Y-95301530D01*
X118150053Y-95298652D01*
X118141540Y-95206788D01*
X118132500Y-95115000D01*
X118141539Y-95023219D01*
X118150053Y-94931347D01*
X118150872Y-94928468D01*
X118151715Y-94919910D01*
X118177378Y-94835308D01*
X118200527Y-94753949D01*
X118204444Y-94746081D01*
X118208620Y-94732317D01*
X118247772Y-94659068D01*
X118282737Y-94588850D01*
X118291524Y-94577213D01*
X118301030Y-94559430D01*
X118350189Y-94499528D01*
X118393888Y-94441663D01*
X118408939Y-94427941D01*
X118425393Y-94407893D01*
X118480914Y-94362327D01*
X118530188Y-94317409D01*
X118552426Y-94303639D01*
X118576930Y-94283530D01*
X118635247Y-94252358D01*
X118686998Y-94220316D01*
X118716782Y-94208777D01*
X118749817Y-94191120D01*
X118807627Y-94173583D01*
X118858981Y-94153689D01*
X118896062Y-94146757D01*
X118937410Y-94134215D01*
X118991840Y-94128853D01*
X119040282Y-94119799D01*
X119083776Y-94119799D01*
X119132500Y-94115000D01*
X119181224Y-94119799D01*
G37*
G36*
X127568543Y-94118191D02*
G01*
X127601227Y-94122494D01*
X127609448Y-94126327D01*
X127629037Y-94130224D01*
X127654980Y-94147559D01*
X127666108Y-94152748D01*
X127672878Y-94159518D01*
X127693921Y-94173579D01*
X127707981Y-94194621D01*
X127714751Y-94201391D01*
X127719938Y-94212516D01*
X127737276Y-94238463D01*
X127741172Y-94258053D01*
X127745005Y-94266272D01*
X127749306Y-94298945D01*
X127752500Y-94315000D01*
X127752500Y-95915000D01*
X127749305Y-95931058D01*
X127745005Y-95963727D01*
X127741173Y-95971944D01*
X127737276Y-95991537D01*
X127719937Y-96017485D01*
X127714751Y-96028608D01*
X127707983Y-96035375D01*
X127693921Y-96056421D01*
X127672875Y-96070483D01*
X127666108Y-96077251D01*
X127654985Y-96082437D01*
X127629037Y-96099776D01*
X127609444Y-96103673D01*
X127601227Y-96107505D01*
X127568556Y-96111806D01*
X127552500Y-96115000D01*
X125952500Y-96115000D01*
X125936443Y-96111806D01*
X125903772Y-96107505D01*
X125895553Y-96103672D01*
X125875963Y-96099776D01*
X125850016Y-96082438D01*
X125838891Y-96077251D01*
X125832121Y-96070481D01*
X125811079Y-96056421D01*
X125797018Y-96035378D01*
X125790248Y-96028608D01*
X125785059Y-96017480D01*
X125767724Y-95991537D01*
X125763827Y-95971948D01*
X125759994Y-95963727D01*
X125755690Y-95931041D01*
X125752500Y-95915000D01*
X125752500Y-94315000D01*
X125755690Y-94298958D01*
X125759994Y-94266272D01*
X125763827Y-94258049D01*
X125767724Y-94238463D01*
X125785057Y-94212521D01*
X125790248Y-94201391D01*
X125797020Y-94194618D01*
X125811079Y-94173579D01*
X125832118Y-94159520D01*
X125838891Y-94152748D01*
X125850021Y-94147557D01*
X125875963Y-94130224D01*
X125895549Y-94126327D01*
X125903772Y-94122494D01*
X125936460Y-94118190D01*
X125952500Y-94115000D01*
X127552500Y-94115000D01*
X127568543Y-94118191D01*
G37*
G36*
X115326248Y-93947736D02*
G01*
X115345510Y-93954476D01*
X115358323Y-93956163D01*
X115401823Y-93974181D01*
X115451100Y-93991424D01*
X115460883Y-93998644D01*
X115465086Y-94000385D01*
X115511507Y-94036006D01*
X115557529Y-94069971D01*
X115591499Y-94116000D01*
X115627114Y-94162413D01*
X115628854Y-94166615D01*
X115636076Y-94176400D01*
X115653321Y-94225685D01*
X115671336Y-94269176D01*
X115673022Y-94281986D01*
X115679764Y-94301252D01*
X115687500Y-94383750D01*
X115687500Y-95296250D01*
X115679764Y-95378748D01*
X115673022Y-95398014D01*
X115671336Y-95410823D01*
X115653324Y-95454308D01*
X115636076Y-95503600D01*
X115628853Y-95513386D01*
X115627114Y-95517586D01*
X115591518Y-95563973D01*
X115557529Y-95610029D01*
X115511473Y-95644018D01*
X115465086Y-95679614D01*
X115460886Y-95681353D01*
X115451100Y-95688576D01*
X115401808Y-95705824D01*
X115358323Y-95723836D01*
X115345514Y-95725522D01*
X115326248Y-95732264D01*
X115243750Y-95740000D01*
X114756250Y-95740000D01*
X114673752Y-95732264D01*
X114654485Y-95725522D01*
X114641676Y-95723836D01*
X114598185Y-95705821D01*
X114548900Y-95688576D01*
X114539115Y-95681354D01*
X114534913Y-95679614D01*
X114488500Y-95643999D01*
X114442471Y-95610029D01*
X114408506Y-95564007D01*
X114372885Y-95517586D01*
X114371144Y-95513383D01*
X114363924Y-95503600D01*
X114346681Y-95454323D01*
X114328663Y-95410823D01*
X114326976Y-95398009D01*
X114320236Y-95378748D01*
X114312500Y-95296250D01*
X114312500Y-94383750D01*
X114320236Y-94301252D01*
X114326975Y-94281990D01*
X114328663Y-94269176D01*
X114346683Y-94225669D01*
X114363924Y-94176400D01*
X114371143Y-94166618D01*
X114372885Y-94162413D01*
X114408525Y-94115966D01*
X114442471Y-94069971D01*
X114488466Y-94036025D01*
X114534913Y-94000385D01*
X114539118Y-93998643D01*
X114548900Y-93991424D01*
X114598169Y-93974183D01*
X114641676Y-93956163D01*
X114654490Y-93954475D01*
X114673752Y-93947736D01*
X114756250Y-93940000D01*
X115243750Y-93940000D01*
X115326248Y-93947736D01*
G37*
G36*
X117201248Y-93947736D02*
G01*
X117220510Y-93954476D01*
X117233323Y-93956163D01*
X117276823Y-93974181D01*
X117326100Y-93991424D01*
X117335883Y-93998644D01*
X117340086Y-94000385D01*
X117386507Y-94036006D01*
X117432529Y-94069971D01*
X117466499Y-94116000D01*
X117502114Y-94162413D01*
X117503854Y-94166615D01*
X117511076Y-94176400D01*
X117528321Y-94225685D01*
X117546336Y-94269176D01*
X117548022Y-94281986D01*
X117554764Y-94301252D01*
X117562500Y-94383750D01*
X117562500Y-95296250D01*
X117554764Y-95378748D01*
X117548022Y-95398014D01*
X117546336Y-95410823D01*
X117528324Y-95454308D01*
X117511076Y-95503600D01*
X117503853Y-95513386D01*
X117502114Y-95517586D01*
X117466518Y-95563973D01*
X117432529Y-95610029D01*
X117386473Y-95644018D01*
X117340086Y-95679614D01*
X117335886Y-95681353D01*
X117326100Y-95688576D01*
X117276808Y-95705824D01*
X117233323Y-95723836D01*
X117220514Y-95725522D01*
X117201248Y-95732264D01*
X117118750Y-95740000D01*
X116631250Y-95740000D01*
X116548752Y-95732264D01*
X116529485Y-95725522D01*
X116516676Y-95723836D01*
X116473185Y-95705821D01*
X116423900Y-95688576D01*
X116414115Y-95681354D01*
X116409913Y-95679614D01*
X116363500Y-95643999D01*
X116317471Y-95610029D01*
X116283506Y-95564007D01*
X116247885Y-95517586D01*
X116246144Y-95513383D01*
X116238924Y-95503600D01*
X116221681Y-95454323D01*
X116203663Y-95410823D01*
X116201976Y-95398009D01*
X116195236Y-95378748D01*
X116187500Y-95296250D01*
X116187500Y-94383750D01*
X116195236Y-94301252D01*
X116201975Y-94281990D01*
X116203663Y-94269176D01*
X116221683Y-94225669D01*
X116238924Y-94176400D01*
X116246143Y-94166618D01*
X116247885Y-94162413D01*
X116283525Y-94115966D01*
X116317471Y-94069971D01*
X116363466Y-94036025D01*
X116409913Y-94000385D01*
X116414118Y-93998643D01*
X116423900Y-93991424D01*
X116473169Y-93974183D01*
X116516676Y-93956163D01*
X116529490Y-93954475D01*
X116548752Y-93947736D01*
X116631250Y-93940000D01*
X117118750Y-93940000D01*
X117201248Y-93947736D01*
G37*
G36*
X110837643Y-90826691D02*
G01*
X110870327Y-90830994D01*
X110878548Y-90834827D01*
X110898137Y-90838724D01*
X110924080Y-90856059D01*
X110935208Y-90861248D01*
X110941978Y-90868018D01*
X110963021Y-90882079D01*
X110977081Y-90903121D01*
X110983851Y-90909891D01*
X110989038Y-90921016D01*
X111006376Y-90946963D01*
X111010272Y-90966553D01*
X111014105Y-90974772D01*
X111018406Y-91007445D01*
X111021600Y-91023500D01*
X111021600Y-91455300D01*
X111018406Y-91471352D01*
X111014106Y-91504025D01*
X111010272Y-91512245D01*
X111006376Y-91531837D01*
X110996451Y-91546690D01*
X110996451Y-91592509D01*
X111006376Y-91607363D01*
X111010272Y-91626953D01*
X111014106Y-91635174D01*
X111018407Y-91667850D01*
X111021600Y-91683900D01*
X111021600Y-92115700D01*
X111018406Y-92131752D01*
X111014106Y-92164425D01*
X111010272Y-92172645D01*
X111006376Y-92192237D01*
X110996451Y-92207090D01*
X110996451Y-92252909D01*
X111006376Y-92267763D01*
X111010272Y-92287353D01*
X111014106Y-92295574D01*
X111018407Y-92328250D01*
X111021600Y-92344300D01*
X111021600Y-92776100D01*
X111018406Y-92792152D01*
X111014106Y-92824825D01*
X111010272Y-92833045D01*
X111006376Y-92852637D01*
X110996451Y-92867490D01*
X110996451Y-92913309D01*
X111006376Y-92928163D01*
X111010272Y-92947753D01*
X111014106Y-92955974D01*
X111018407Y-92988650D01*
X111021600Y-93004700D01*
X111021600Y-93436500D01*
X111018405Y-93452557D01*
X111014105Y-93485227D01*
X111010273Y-93493444D01*
X111006376Y-93513037D01*
X110989037Y-93538985D01*
X110983851Y-93550108D01*
X110977083Y-93556875D01*
X110963021Y-93577921D01*
X110941975Y-93591983D01*
X110935208Y-93598751D01*
X110924085Y-93603937D01*
X110898137Y-93621276D01*
X110878544Y-93625173D01*
X110870327Y-93629005D01*
X110837656Y-93633306D01*
X110821600Y-93636500D01*
X109500800Y-93636500D01*
X109484743Y-93633306D01*
X109452072Y-93629005D01*
X109443853Y-93625172D01*
X109424263Y-93621276D01*
X109398316Y-93603938D01*
X109387191Y-93598751D01*
X109380421Y-93591981D01*
X109359379Y-93577921D01*
X109345318Y-93556878D01*
X109338548Y-93550108D01*
X109333359Y-93538980D01*
X109316024Y-93513037D01*
X109312127Y-93493448D01*
X109308294Y-93485227D01*
X109303990Y-93452541D01*
X109300800Y-93436500D01*
X109300800Y-93004700D01*
X109303990Y-92988660D01*
X109308294Y-92955971D01*
X109312128Y-92947747D01*
X109316024Y-92928163D01*
X109325948Y-92913310D01*
X109325948Y-92867489D01*
X109316024Y-92852637D01*
X109312128Y-92833050D01*
X109308294Y-92824828D01*
X109303990Y-92792140D01*
X109300800Y-92776100D01*
X109300800Y-92344300D01*
X109303990Y-92328260D01*
X109308294Y-92295571D01*
X109312128Y-92287347D01*
X109316024Y-92267763D01*
X109325948Y-92252910D01*
X109325948Y-92207089D01*
X109316024Y-92192237D01*
X109312128Y-92172650D01*
X109308294Y-92164428D01*
X109303990Y-92131740D01*
X109300800Y-92115700D01*
X109300800Y-91683900D01*
X109303990Y-91667860D01*
X109308294Y-91635171D01*
X109312128Y-91626947D01*
X109316024Y-91607363D01*
X109325948Y-91592510D01*
X109325948Y-91546689D01*
X109316024Y-91531837D01*
X109312128Y-91512250D01*
X109308294Y-91504028D01*
X109303990Y-91471340D01*
X109300800Y-91455300D01*
X109300800Y-91023500D01*
X109303990Y-91007459D01*
X109308294Y-90974772D01*
X109312127Y-90966549D01*
X109316024Y-90946963D01*
X109333357Y-90921021D01*
X109338548Y-90909891D01*
X109345320Y-90903118D01*
X109359379Y-90882079D01*
X109380418Y-90868020D01*
X109387191Y-90861248D01*
X109398321Y-90856057D01*
X109424263Y-90838724D01*
X109443849Y-90834827D01*
X109452072Y-90830994D01*
X109484760Y-90826690D01*
X109500800Y-90823500D01*
X110821600Y-90823500D01*
X110837643Y-90826691D01*
G37*
G36*
X113225243Y-90826691D02*
G01*
X113257927Y-90830994D01*
X113266148Y-90834827D01*
X113285737Y-90838724D01*
X113311680Y-90856059D01*
X113322808Y-90861248D01*
X113329578Y-90868018D01*
X113350621Y-90882079D01*
X113364681Y-90903121D01*
X113371451Y-90909891D01*
X113376638Y-90921016D01*
X113393976Y-90946963D01*
X113397872Y-90966553D01*
X113401705Y-90974772D01*
X113406006Y-91007445D01*
X113409200Y-91023500D01*
X113409200Y-91455300D01*
X113406006Y-91471352D01*
X113401706Y-91504025D01*
X113397872Y-91512245D01*
X113393976Y-91531837D01*
X113384051Y-91546690D01*
X113384051Y-91592509D01*
X113393976Y-91607363D01*
X113397872Y-91626953D01*
X113401706Y-91635174D01*
X113406007Y-91667850D01*
X113409200Y-91683900D01*
X113409200Y-92115700D01*
X113406006Y-92131752D01*
X113401706Y-92164425D01*
X113397872Y-92172645D01*
X113393976Y-92192237D01*
X113384051Y-92207090D01*
X113384051Y-92252909D01*
X113393976Y-92267763D01*
X113397872Y-92287353D01*
X113401706Y-92295574D01*
X113406007Y-92328250D01*
X113409200Y-92344300D01*
X113409200Y-92776100D01*
X113406006Y-92792152D01*
X113401706Y-92824825D01*
X113397872Y-92833045D01*
X113393976Y-92852637D01*
X113384051Y-92867490D01*
X113384051Y-92913309D01*
X113393976Y-92928163D01*
X113397872Y-92947753D01*
X113401706Y-92955974D01*
X113406007Y-92988650D01*
X113409200Y-93004700D01*
X113409200Y-93436500D01*
X113406005Y-93452557D01*
X113401705Y-93485227D01*
X113397873Y-93493444D01*
X113393976Y-93513037D01*
X113376637Y-93538985D01*
X113371451Y-93550108D01*
X113364683Y-93556875D01*
X113350621Y-93577921D01*
X113329575Y-93591983D01*
X113322808Y-93598751D01*
X113311685Y-93603937D01*
X113285737Y-93621276D01*
X113266144Y-93625173D01*
X113257927Y-93629005D01*
X113225256Y-93633306D01*
X113209200Y-93636500D01*
X111888400Y-93636500D01*
X111872343Y-93633306D01*
X111839672Y-93629005D01*
X111831453Y-93625172D01*
X111811863Y-93621276D01*
X111785916Y-93603938D01*
X111774791Y-93598751D01*
X111768021Y-93591981D01*
X111746979Y-93577921D01*
X111732918Y-93556878D01*
X111726148Y-93550108D01*
X111720959Y-93538980D01*
X111703624Y-93513037D01*
X111699727Y-93493448D01*
X111695894Y-93485227D01*
X111691590Y-93452541D01*
X111688400Y-93436500D01*
X111688400Y-93004700D01*
X111691590Y-92988660D01*
X111695894Y-92955971D01*
X111699728Y-92947747D01*
X111703624Y-92928163D01*
X111713548Y-92913310D01*
X111713548Y-92867489D01*
X111703624Y-92852637D01*
X111699728Y-92833050D01*
X111695894Y-92824828D01*
X111691590Y-92792140D01*
X111688400Y-92776100D01*
X111688400Y-92344300D01*
X111691590Y-92328260D01*
X111695894Y-92295571D01*
X111699728Y-92287347D01*
X111703624Y-92267763D01*
X111713548Y-92252910D01*
X111713548Y-92207089D01*
X111703624Y-92192237D01*
X111699728Y-92172650D01*
X111695894Y-92164428D01*
X111691590Y-92131740D01*
X111688400Y-92115700D01*
X111688400Y-91683900D01*
X111691590Y-91667860D01*
X111695894Y-91635171D01*
X111699728Y-91626947D01*
X111703624Y-91607363D01*
X111713548Y-91592510D01*
X111713548Y-91546689D01*
X111703624Y-91531837D01*
X111699728Y-91512250D01*
X111695894Y-91504028D01*
X111691590Y-91471340D01*
X111688400Y-91455300D01*
X111688400Y-91023500D01*
X111691590Y-91007459D01*
X111695894Y-90974772D01*
X111699727Y-90966549D01*
X111703624Y-90946963D01*
X111720957Y-90921021D01*
X111726148Y-90909891D01*
X111732920Y-90903118D01*
X111746979Y-90882079D01*
X111768018Y-90868020D01*
X111774791Y-90861248D01*
X111785921Y-90856057D01*
X111811863Y-90838724D01*
X111831449Y-90834827D01*
X111839672Y-90830994D01*
X111872360Y-90826690D01*
X111888400Y-90823500D01*
X113209200Y-90823500D01*
X113225243Y-90826691D01*
G37*
G36*
X119181224Y-91579799D02*
G01*
X119224718Y-91579799D01*
X119273158Y-91588853D01*
X119327590Y-91594215D01*
X119368938Y-91606757D01*
X119406018Y-91613689D01*
X119457368Y-91633582D01*
X119515183Y-91651120D01*
X119548220Y-91668778D01*
X119578001Y-91680316D01*
X119629745Y-91712354D01*
X119688070Y-91743530D01*
X119712576Y-91763641D01*
X119734811Y-91777409D01*
X119784075Y-91822319D01*
X119839607Y-91867893D01*
X119856063Y-91887945D01*
X119871111Y-91901663D01*
X119914797Y-91959513D01*
X119963970Y-92019430D01*
X119973477Y-92037218D01*
X119982262Y-92048850D01*
X120017213Y-92119040D01*
X120056380Y-92192317D01*
X120060556Y-92206086D01*
X120064472Y-92213949D01*
X120087605Y-92295255D01*
X120113285Y-92379910D01*
X120114128Y-92388473D01*
X120114946Y-92391347D01*
X120123443Y-92483047D01*
X120132500Y-92575000D01*
X120123442Y-92666960D01*
X120114946Y-92758652D01*
X120114128Y-92761524D01*
X120113285Y-92770090D01*
X120087600Y-92854759D01*
X120064472Y-92936050D01*
X120060557Y-92943911D01*
X120056380Y-92957683D01*
X120017205Y-93030972D01*
X119982262Y-93101149D01*
X119973479Y-93112778D01*
X119963970Y-93130570D01*
X119914788Y-93190498D01*
X119871111Y-93248336D01*
X119856066Y-93262050D01*
X119839607Y-93282107D01*
X119784064Y-93327689D01*
X119734811Y-93372590D01*
X119712581Y-93386354D01*
X119688070Y-93406470D01*
X119629733Y-93437651D01*
X119578001Y-93469683D01*
X119548227Y-93481217D01*
X119515183Y-93498880D01*
X119457356Y-93516421D01*
X119406018Y-93536310D01*
X119368945Y-93543240D01*
X119327590Y-93555785D01*
X119273155Y-93561146D01*
X119224718Y-93570201D01*
X119181224Y-93570201D01*
X119132500Y-93575000D01*
X119083776Y-93570201D01*
X119040282Y-93570201D01*
X118991843Y-93561146D01*
X118937410Y-93555785D01*
X118896055Y-93543240D01*
X118858981Y-93536310D01*
X118807639Y-93516419D01*
X118749817Y-93498880D01*
X118716775Y-93481218D01*
X118686998Y-93469683D01*
X118635259Y-93437647D01*
X118576930Y-93406470D01*
X118552421Y-93386356D01*
X118530188Y-93372590D01*
X118480925Y-93327681D01*
X118425393Y-93282107D01*
X118408936Y-93262054D01*
X118393888Y-93248336D01*
X118350199Y-93190482D01*
X118301030Y-93130570D01*
X118291522Y-93112783D01*
X118282737Y-93101149D01*
X118247779Y-93030945D01*
X118208620Y-92957683D01*
X118204443Y-92943916D01*
X118200527Y-92936050D01*
X118177382Y-92854706D01*
X118151715Y-92770090D01*
X118150871Y-92761530D01*
X118150053Y-92758652D01*
X118141540Y-92666788D01*
X118132500Y-92575000D01*
X118141539Y-92483219D01*
X118150053Y-92391347D01*
X118150872Y-92388468D01*
X118151715Y-92379910D01*
X118177378Y-92295308D01*
X118200527Y-92213949D01*
X118204444Y-92206081D01*
X118208620Y-92192317D01*
X118247772Y-92119068D01*
X118282737Y-92048850D01*
X118291524Y-92037213D01*
X118301030Y-92019430D01*
X118350189Y-91959528D01*
X118393888Y-91901663D01*
X118408939Y-91887941D01*
X118425393Y-91867893D01*
X118480914Y-91822327D01*
X118530188Y-91777409D01*
X118552426Y-91763639D01*
X118576930Y-91743530D01*
X118635247Y-91712358D01*
X118686998Y-91680316D01*
X118716782Y-91668777D01*
X118749817Y-91651120D01*
X118807627Y-91633583D01*
X118858981Y-91613689D01*
X118896062Y-91606757D01*
X118937410Y-91594215D01*
X118991840Y-91588853D01*
X119040282Y-91579799D01*
X119083776Y-91579799D01*
X119132500Y-91575000D01*
X119181224Y-91579799D01*
G37*
G36*
X126801224Y-91579799D02*
G01*
X126844718Y-91579799D01*
X126893158Y-91588853D01*
X126947590Y-91594215D01*
X126988938Y-91606757D01*
X127026018Y-91613689D01*
X127077368Y-91633582D01*
X127135183Y-91651120D01*
X127168220Y-91668778D01*
X127198001Y-91680316D01*
X127249745Y-91712354D01*
X127308070Y-91743530D01*
X127332576Y-91763641D01*
X127354811Y-91777409D01*
X127404075Y-91822319D01*
X127459607Y-91867893D01*
X127476063Y-91887945D01*
X127491111Y-91901663D01*
X127534797Y-91959513D01*
X127583970Y-92019430D01*
X127593477Y-92037218D01*
X127602262Y-92048850D01*
X127637213Y-92119040D01*
X127676380Y-92192317D01*
X127680556Y-92206086D01*
X127684472Y-92213949D01*
X127707605Y-92295255D01*
X127733285Y-92379910D01*
X127734128Y-92388473D01*
X127734946Y-92391347D01*
X127743443Y-92483047D01*
X127752500Y-92575000D01*
X127743442Y-92666960D01*
X127734946Y-92758652D01*
X127734128Y-92761524D01*
X127733285Y-92770090D01*
X127707600Y-92854759D01*
X127684472Y-92936050D01*
X127680557Y-92943911D01*
X127676380Y-92957683D01*
X127637205Y-93030972D01*
X127602262Y-93101149D01*
X127593479Y-93112778D01*
X127583970Y-93130570D01*
X127534788Y-93190498D01*
X127491111Y-93248336D01*
X127476066Y-93262050D01*
X127459607Y-93282107D01*
X127404064Y-93327689D01*
X127354811Y-93372590D01*
X127332581Y-93386354D01*
X127308070Y-93406470D01*
X127249733Y-93437651D01*
X127198001Y-93469683D01*
X127168227Y-93481217D01*
X127135183Y-93498880D01*
X127077356Y-93516421D01*
X127026018Y-93536310D01*
X126988945Y-93543240D01*
X126947590Y-93555785D01*
X126893155Y-93561146D01*
X126844718Y-93570201D01*
X126801224Y-93570201D01*
X126752500Y-93575000D01*
X126703776Y-93570201D01*
X126660282Y-93570201D01*
X126611843Y-93561146D01*
X126557410Y-93555785D01*
X126516055Y-93543240D01*
X126478981Y-93536310D01*
X126427639Y-93516419D01*
X126369817Y-93498880D01*
X126336775Y-93481218D01*
X126306998Y-93469683D01*
X126255259Y-93437647D01*
X126196930Y-93406470D01*
X126172421Y-93386356D01*
X126150188Y-93372590D01*
X126100925Y-93327681D01*
X126045393Y-93282107D01*
X126028936Y-93262054D01*
X126013888Y-93248336D01*
X125970199Y-93190482D01*
X125921030Y-93130570D01*
X125911522Y-93112783D01*
X125902737Y-93101149D01*
X125867779Y-93030945D01*
X125828620Y-92957683D01*
X125824443Y-92943916D01*
X125820527Y-92936050D01*
X125797382Y-92854706D01*
X125771715Y-92770090D01*
X125770871Y-92761530D01*
X125770053Y-92758652D01*
X125761540Y-92666788D01*
X125752500Y-92575000D01*
X125761539Y-92483219D01*
X125770053Y-92391347D01*
X125770872Y-92388468D01*
X125771715Y-92379910D01*
X125797378Y-92295308D01*
X125820527Y-92213949D01*
X125824444Y-92206081D01*
X125828620Y-92192317D01*
X125867772Y-92119068D01*
X125902737Y-92048850D01*
X125911524Y-92037213D01*
X125921030Y-92019430D01*
X125970189Y-91959528D01*
X126013888Y-91901663D01*
X126028939Y-91887941D01*
X126045393Y-91867893D01*
X126100914Y-91822327D01*
X126150188Y-91777409D01*
X126172426Y-91763639D01*
X126196930Y-91743530D01*
X126255247Y-91712358D01*
X126306998Y-91680316D01*
X126336782Y-91668777D01*
X126369817Y-91651120D01*
X126427627Y-91633583D01*
X126478981Y-91613689D01*
X126516062Y-91606757D01*
X126557410Y-91594215D01*
X126611840Y-91588853D01*
X126660282Y-91579799D01*
X126703776Y-91579799D01*
X126752500Y-91575000D01*
X126801224Y-91579799D01*
G37*
G36*
X115356248Y-91187736D02*
G01*
X115375510Y-91194476D01*
X115388323Y-91196163D01*
X115431823Y-91214181D01*
X115481100Y-91231424D01*
X115490883Y-91238644D01*
X115495086Y-91240385D01*
X115541507Y-91276006D01*
X115587529Y-91309971D01*
X115621499Y-91356000D01*
X115657114Y-91402413D01*
X115658854Y-91406615D01*
X115666076Y-91416400D01*
X115683321Y-91465685D01*
X115701336Y-91509176D01*
X115703022Y-91521986D01*
X115709764Y-91541252D01*
X115717500Y-91623750D01*
X115717500Y-92536250D01*
X115709764Y-92618748D01*
X115703022Y-92638014D01*
X115701336Y-92650823D01*
X115683324Y-92694308D01*
X115666076Y-92743600D01*
X115658853Y-92753386D01*
X115657114Y-92757586D01*
X115621518Y-92803973D01*
X115587529Y-92850029D01*
X115541473Y-92884018D01*
X115495086Y-92919614D01*
X115490886Y-92921353D01*
X115481100Y-92928576D01*
X115431808Y-92945824D01*
X115388323Y-92963836D01*
X115375514Y-92965522D01*
X115356248Y-92972264D01*
X115273750Y-92980000D01*
X114786250Y-92980000D01*
X114703752Y-92972264D01*
X114684485Y-92965522D01*
X114671676Y-92963836D01*
X114628185Y-92945821D01*
X114578900Y-92928576D01*
X114569115Y-92921354D01*
X114564913Y-92919614D01*
X114518500Y-92883999D01*
X114472471Y-92850029D01*
X114438506Y-92804007D01*
X114402885Y-92757586D01*
X114401144Y-92753383D01*
X114393924Y-92743600D01*
X114376681Y-92694323D01*
X114358663Y-92650823D01*
X114356976Y-92638009D01*
X114350236Y-92618748D01*
X114342500Y-92536250D01*
X114342500Y-91623750D01*
X114350236Y-91541252D01*
X114356975Y-91521990D01*
X114358663Y-91509176D01*
X114376683Y-91465669D01*
X114393924Y-91416400D01*
X114401143Y-91406618D01*
X114402885Y-91402413D01*
X114438525Y-91355966D01*
X114472471Y-91309971D01*
X114518466Y-91276025D01*
X114564913Y-91240385D01*
X114569118Y-91238643D01*
X114578900Y-91231424D01*
X114628169Y-91214183D01*
X114671676Y-91196163D01*
X114684490Y-91194475D01*
X114703752Y-91187736D01*
X114786250Y-91180000D01*
X115273750Y-91180000D01*
X115356248Y-91187736D01*
G37*
G36*
X117231248Y-91187736D02*
G01*
X117250510Y-91194476D01*
X117263323Y-91196163D01*
X117306823Y-91214181D01*
X117356100Y-91231424D01*
X117365883Y-91238644D01*
X117370086Y-91240385D01*
X117416507Y-91276006D01*
X117462529Y-91309971D01*
X117496499Y-91356000D01*
X117532114Y-91402413D01*
X117533854Y-91406615D01*
X117541076Y-91416400D01*
X117558321Y-91465685D01*
X117576336Y-91509176D01*
X117578022Y-91521986D01*
X117584764Y-91541252D01*
X117592500Y-91623750D01*
X117592500Y-92536250D01*
X117584764Y-92618748D01*
X117578022Y-92638014D01*
X117576336Y-92650823D01*
X117558324Y-92694308D01*
X117541076Y-92743600D01*
X117533853Y-92753386D01*
X117532114Y-92757586D01*
X117496518Y-92803973D01*
X117462529Y-92850029D01*
X117416473Y-92884018D01*
X117370086Y-92919614D01*
X117365886Y-92921353D01*
X117356100Y-92928576D01*
X117306808Y-92945824D01*
X117263323Y-92963836D01*
X117250514Y-92965522D01*
X117231248Y-92972264D01*
X117148750Y-92980000D01*
X116661250Y-92980000D01*
X116578752Y-92972264D01*
X116559485Y-92965522D01*
X116546676Y-92963836D01*
X116503185Y-92945821D01*
X116453900Y-92928576D01*
X116444115Y-92921354D01*
X116439913Y-92919614D01*
X116393500Y-92883999D01*
X116347471Y-92850029D01*
X116313506Y-92804007D01*
X116277885Y-92757586D01*
X116276144Y-92753383D01*
X116268924Y-92743600D01*
X116251681Y-92694323D01*
X116233663Y-92650823D01*
X116231976Y-92638009D01*
X116225236Y-92618748D01*
X116217500Y-92536250D01*
X116217500Y-91623750D01*
X116225236Y-91541252D01*
X116231975Y-91521990D01*
X116233663Y-91509176D01*
X116251683Y-91465669D01*
X116268924Y-91416400D01*
X116276143Y-91406618D01*
X116277885Y-91402413D01*
X116313525Y-91355966D01*
X116347471Y-91309971D01*
X116393466Y-91276025D01*
X116439913Y-91240385D01*
X116444118Y-91238643D01*
X116453900Y-91231424D01*
X116503169Y-91214183D01*
X116546676Y-91196163D01*
X116559490Y-91194475D01*
X116578752Y-91187736D01*
X116661250Y-91180000D01*
X117148750Y-91180000D01*
X117231248Y-91187736D01*
G37*
G36*
X119181224Y-89039799D02*
G01*
X119224718Y-89039799D01*
X119273158Y-89048853D01*
X119327590Y-89054215D01*
X119368938Y-89066757D01*
X119406018Y-89073689D01*
X119457368Y-89093582D01*
X119515183Y-89111120D01*
X119548220Y-89128778D01*
X119578001Y-89140316D01*
X119629745Y-89172354D01*
X119688070Y-89203530D01*
X119712576Y-89223641D01*
X119734811Y-89237409D01*
X119784075Y-89282319D01*
X119839607Y-89327893D01*
X119856063Y-89347945D01*
X119871111Y-89361663D01*
X119914797Y-89419513D01*
X119963970Y-89479430D01*
X119973477Y-89497218D01*
X119982262Y-89508850D01*
X120017213Y-89579040D01*
X120056380Y-89652317D01*
X120060556Y-89666086D01*
X120064472Y-89673949D01*
X120087605Y-89755255D01*
X120113285Y-89839910D01*
X120114128Y-89848473D01*
X120114946Y-89851347D01*
X120123443Y-89943047D01*
X120132500Y-90035000D01*
X120123442Y-90126960D01*
X120114946Y-90218652D01*
X120114128Y-90221524D01*
X120113285Y-90230090D01*
X120087600Y-90314759D01*
X120064472Y-90396050D01*
X120060557Y-90403911D01*
X120056380Y-90417683D01*
X120017205Y-90490972D01*
X119982262Y-90561149D01*
X119973479Y-90572778D01*
X119963970Y-90590570D01*
X119914788Y-90650498D01*
X119871111Y-90708336D01*
X119856066Y-90722050D01*
X119839607Y-90742107D01*
X119784064Y-90787689D01*
X119734811Y-90832590D01*
X119712581Y-90846354D01*
X119688070Y-90866470D01*
X119629733Y-90897651D01*
X119578001Y-90929683D01*
X119548227Y-90941217D01*
X119515183Y-90958880D01*
X119457356Y-90976421D01*
X119406018Y-90996310D01*
X119368945Y-91003240D01*
X119327590Y-91015785D01*
X119273155Y-91021146D01*
X119224718Y-91030201D01*
X119181224Y-91030201D01*
X119132500Y-91035000D01*
X119083776Y-91030201D01*
X119040282Y-91030201D01*
X118991843Y-91021146D01*
X118937410Y-91015785D01*
X118896055Y-91003240D01*
X118858981Y-90996310D01*
X118807639Y-90976419D01*
X118749817Y-90958880D01*
X118716775Y-90941218D01*
X118686998Y-90929683D01*
X118635259Y-90897647D01*
X118576930Y-90866470D01*
X118552421Y-90846356D01*
X118530188Y-90832590D01*
X118480925Y-90787681D01*
X118425393Y-90742107D01*
X118408936Y-90722054D01*
X118393888Y-90708336D01*
X118350199Y-90650482D01*
X118301030Y-90590570D01*
X118291522Y-90572783D01*
X118282737Y-90561149D01*
X118247779Y-90490945D01*
X118208620Y-90417683D01*
X118204443Y-90403916D01*
X118200527Y-90396050D01*
X118177382Y-90314706D01*
X118151715Y-90230090D01*
X118150871Y-90221530D01*
X118150053Y-90218652D01*
X118141540Y-90126788D01*
X118132500Y-90035000D01*
X118141539Y-89943219D01*
X118150053Y-89851347D01*
X118150872Y-89848468D01*
X118151715Y-89839910D01*
X118177378Y-89755308D01*
X118200527Y-89673949D01*
X118204444Y-89666081D01*
X118208620Y-89652317D01*
X118247772Y-89579068D01*
X118282737Y-89508850D01*
X118291524Y-89497213D01*
X118301030Y-89479430D01*
X118350189Y-89419528D01*
X118393888Y-89361663D01*
X118408939Y-89347941D01*
X118425393Y-89327893D01*
X118480914Y-89282327D01*
X118530188Y-89237409D01*
X118552426Y-89223639D01*
X118576930Y-89203530D01*
X118635247Y-89172358D01*
X118686998Y-89140316D01*
X118716782Y-89128777D01*
X118749817Y-89111120D01*
X118807627Y-89093583D01*
X118858981Y-89073689D01*
X118896062Y-89066757D01*
X118937410Y-89054215D01*
X118991840Y-89048853D01*
X119040282Y-89039799D01*
X119083776Y-89039799D01*
X119132500Y-89035000D01*
X119181224Y-89039799D01*
G37*
G36*
X126801224Y-89039799D02*
G01*
X126844718Y-89039799D01*
X126893158Y-89048853D01*
X126947590Y-89054215D01*
X126988938Y-89066757D01*
X127026018Y-89073689D01*
X127077368Y-89093582D01*
X127135183Y-89111120D01*
X127168220Y-89128778D01*
X127198001Y-89140316D01*
X127249745Y-89172354D01*
X127308070Y-89203530D01*
X127332576Y-89223641D01*
X127354811Y-89237409D01*
X127404075Y-89282319D01*
X127459607Y-89327893D01*
X127476063Y-89347945D01*
X127491111Y-89361663D01*
X127534797Y-89419513D01*
X127583970Y-89479430D01*
X127593477Y-89497218D01*
X127602262Y-89508850D01*
X127637213Y-89579040D01*
X127676380Y-89652317D01*
X127680556Y-89666086D01*
X127684472Y-89673949D01*
X127707605Y-89755255D01*
X127733285Y-89839910D01*
X127734128Y-89848473D01*
X127734946Y-89851347D01*
X127743443Y-89943047D01*
X127752500Y-90035000D01*
X127743442Y-90126960D01*
X127734946Y-90218652D01*
X127734128Y-90221524D01*
X127733285Y-90230090D01*
X127707600Y-90314759D01*
X127684472Y-90396050D01*
X127680557Y-90403911D01*
X127676380Y-90417683D01*
X127637205Y-90490972D01*
X127602262Y-90561149D01*
X127593479Y-90572778D01*
X127583970Y-90590570D01*
X127534788Y-90650498D01*
X127491111Y-90708336D01*
X127476066Y-90722050D01*
X127459607Y-90742107D01*
X127404064Y-90787689D01*
X127354811Y-90832590D01*
X127332581Y-90846354D01*
X127308070Y-90866470D01*
X127249733Y-90897651D01*
X127198001Y-90929683D01*
X127168227Y-90941217D01*
X127135183Y-90958880D01*
X127077356Y-90976421D01*
X127026018Y-90996310D01*
X126988945Y-91003240D01*
X126947590Y-91015785D01*
X126893155Y-91021146D01*
X126844718Y-91030201D01*
X126801224Y-91030201D01*
X126752500Y-91035000D01*
X126703776Y-91030201D01*
X126660282Y-91030201D01*
X126611843Y-91021146D01*
X126557410Y-91015785D01*
X126516055Y-91003240D01*
X126478981Y-90996310D01*
X126427639Y-90976419D01*
X126369817Y-90958880D01*
X126336775Y-90941218D01*
X126306998Y-90929683D01*
X126255259Y-90897647D01*
X126196930Y-90866470D01*
X126172421Y-90846356D01*
X126150188Y-90832590D01*
X126100925Y-90787681D01*
X126045393Y-90742107D01*
X126028936Y-90722054D01*
X126013888Y-90708336D01*
X125970199Y-90650482D01*
X125921030Y-90590570D01*
X125911522Y-90572783D01*
X125902737Y-90561149D01*
X125867779Y-90490945D01*
X125828620Y-90417683D01*
X125824443Y-90403916D01*
X125820527Y-90396050D01*
X125797382Y-90314706D01*
X125771715Y-90230090D01*
X125770871Y-90221530D01*
X125770053Y-90218652D01*
X125761540Y-90126788D01*
X125752500Y-90035000D01*
X125761539Y-89943219D01*
X125770053Y-89851347D01*
X125770872Y-89848468D01*
X125771715Y-89839910D01*
X125797378Y-89755308D01*
X125820527Y-89673949D01*
X125824444Y-89666081D01*
X125828620Y-89652317D01*
X125867772Y-89579068D01*
X125902737Y-89508850D01*
X125911524Y-89497213D01*
X125921030Y-89479430D01*
X125970189Y-89419528D01*
X126013888Y-89361663D01*
X126028939Y-89347941D01*
X126045393Y-89327893D01*
X126100914Y-89282327D01*
X126150188Y-89237409D01*
X126172426Y-89223639D01*
X126196930Y-89203530D01*
X126255247Y-89172358D01*
X126306998Y-89140316D01*
X126336782Y-89128777D01*
X126369817Y-89111120D01*
X126427627Y-89093583D01*
X126478981Y-89073689D01*
X126516062Y-89066757D01*
X126557410Y-89054215D01*
X126611840Y-89048853D01*
X126660282Y-89039799D01*
X126703776Y-89039799D01*
X126752500Y-89035000D01*
X126801224Y-89039799D01*
G37*
G36*
X115236248Y-88677736D02*
G01*
X115255510Y-88684476D01*
X115268323Y-88686163D01*
X115311823Y-88704181D01*
X115361100Y-88721424D01*
X115370883Y-88728644D01*
X115375086Y-88730385D01*
X115421507Y-88766006D01*
X115467529Y-88799971D01*
X115501499Y-88846000D01*
X115537114Y-88892413D01*
X115538854Y-88896615D01*
X115546076Y-88906400D01*
X115563321Y-88955685D01*
X115581336Y-88999176D01*
X115583022Y-89011986D01*
X115589764Y-89031252D01*
X115597500Y-89113750D01*
X115597500Y-90026250D01*
X115589764Y-90108748D01*
X115583022Y-90128014D01*
X115581336Y-90140823D01*
X115563324Y-90184308D01*
X115546076Y-90233600D01*
X115538853Y-90243386D01*
X115537114Y-90247586D01*
X115501518Y-90293973D01*
X115467529Y-90340029D01*
X115421473Y-90374018D01*
X115375086Y-90409614D01*
X115370886Y-90411353D01*
X115361100Y-90418576D01*
X115311808Y-90435824D01*
X115268323Y-90453836D01*
X115255514Y-90455522D01*
X115236248Y-90462264D01*
X115153750Y-90470000D01*
X114666250Y-90470000D01*
X114583752Y-90462264D01*
X114564485Y-90455522D01*
X114551676Y-90453836D01*
X114508185Y-90435821D01*
X114458900Y-90418576D01*
X114449115Y-90411354D01*
X114444913Y-90409614D01*
X114398500Y-90373999D01*
X114352471Y-90340029D01*
X114318506Y-90294007D01*
X114282885Y-90247586D01*
X114281144Y-90243383D01*
X114273924Y-90233600D01*
X114256681Y-90184323D01*
X114238663Y-90140823D01*
X114236976Y-90128009D01*
X114230236Y-90108748D01*
X114222500Y-90026250D01*
X114222500Y-89113750D01*
X114230236Y-89031252D01*
X114236975Y-89011990D01*
X114238663Y-88999176D01*
X114256683Y-88955669D01*
X114273924Y-88906400D01*
X114281143Y-88896618D01*
X114282885Y-88892413D01*
X114318525Y-88845966D01*
X114352471Y-88799971D01*
X114398466Y-88766025D01*
X114444913Y-88730385D01*
X114449118Y-88728643D01*
X114458900Y-88721424D01*
X114508169Y-88704183D01*
X114551676Y-88686163D01*
X114564490Y-88684475D01*
X114583752Y-88677736D01*
X114666250Y-88670000D01*
X115153750Y-88670000D01*
X115236248Y-88677736D01*
G37*
G36*
X117111248Y-88677736D02*
G01*
X117130510Y-88684476D01*
X117143323Y-88686163D01*
X117186823Y-88704181D01*
X117236100Y-88721424D01*
X117245883Y-88728644D01*
X117250086Y-88730385D01*
X117296507Y-88766006D01*
X117342529Y-88799971D01*
X117376499Y-88846000D01*
X117412114Y-88892413D01*
X117413854Y-88896615D01*
X117421076Y-88906400D01*
X117438321Y-88955685D01*
X117456336Y-88999176D01*
X117458022Y-89011986D01*
X117464764Y-89031252D01*
X117472500Y-89113750D01*
X117472500Y-90026250D01*
X117464764Y-90108748D01*
X117458022Y-90128014D01*
X117456336Y-90140823D01*
X117438324Y-90184308D01*
X117421076Y-90233600D01*
X117413853Y-90243386D01*
X117412114Y-90247586D01*
X117376518Y-90293973D01*
X117342529Y-90340029D01*
X117296473Y-90374018D01*
X117250086Y-90409614D01*
X117245886Y-90411353D01*
X117236100Y-90418576D01*
X117186808Y-90435824D01*
X117143323Y-90453836D01*
X117130514Y-90455522D01*
X117111248Y-90462264D01*
X117028750Y-90470000D01*
X116541250Y-90470000D01*
X116458752Y-90462264D01*
X116439485Y-90455522D01*
X116426676Y-90453836D01*
X116383185Y-90435821D01*
X116333900Y-90418576D01*
X116324115Y-90411354D01*
X116319913Y-90409614D01*
X116273500Y-90373999D01*
X116227471Y-90340029D01*
X116193506Y-90294007D01*
X116157885Y-90247586D01*
X116156144Y-90243383D01*
X116148924Y-90233600D01*
X116131681Y-90184323D01*
X116113663Y-90140823D01*
X116111976Y-90128009D01*
X116105236Y-90108748D01*
X116097500Y-90026250D01*
X116097500Y-89113750D01*
X116105236Y-89031252D01*
X116111975Y-89011990D01*
X116113663Y-88999176D01*
X116131683Y-88955669D01*
X116148924Y-88906400D01*
X116156143Y-88896618D01*
X116157885Y-88892413D01*
X116193525Y-88845966D01*
X116227471Y-88799971D01*
X116273466Y-88766025D01*
X116319913Y-88730385D01*
X116324118Y-88728643D01*
X116333900Y-88721424D01*
X116383169Y-88704183D01*
X116426676Y-88686163D01*
X116439490Y-88684475D01*
X116458752Y-88677736D01*
X116541250Y-88670000D01*
X117028750Y-88670000D01*
X117111248Y-88677736D01*
G37*
G36*
X115285889Y-82525012D02*
G01*
X115331830Y-82525012D01*
X115382988Y-82534575D01*
X115439845Y-82540175D01*
X115483042Y-82553278D01*
X115522202Y-82560599D01*
X115576438Y-82581609D01*
X115636818Y-82599926D01*
X115671315Y-82618365D01*
X115702786Y-82630557D01*
X115757469Y-82664415D01*
X115818349Y-82696957D01*
X115843929Y-82717950D01*
X115867442Y-82732509D01*
X115919546Y-82780008D01*
X115977462Y-82827538D01*
X115994621Y-82848446D01*
X116010564Y-82862980D01*
X116056838Y-82924258D01*
X116108043Y-82986651D01*
X116117947Y-83005180D01*
X116127273Y-83017530D01*
X116164372Y-83092034D01*
X116205074Y-83168182D01*
X116209415Y-83182492D01*
X116213596Y-83190889D01*
X116238295Y-83277697D01*
X116264825Y-83365155D01*
X116265696Y-83374003D01*
X116266594Y-83377158D01*
X116275933Y-83477944D01*
X116285000Y-83570000D01*
X116275932Y-83662063D01*
X116266594Y-83762841D01*
X116265696Y-83765994D01*
X116264825Y-83774845D01*
X116238290Y-83862317D01*
X116213596Y-83949110D01*
X116209415Y-83957504D01*
X116205074Y-83971818D01*
X116164364Y-84047979D01*
X116127273Y-84122469D01*
X116117949Y-84134815D01*
X116108043Y-84153349D01*
X116056829Y-84215752D01*
X116010564Y-84277019D01*
X115994624Y-84291549D01*
X115977462Y-84312462D01*
X115919535Y-84360000D01*
X115867442Y-84407490D01*
X115843934Y-84422045D01*
X115818349Y-84443043D01*
X115757457Y-84475590D01*
X115702786Y-84509442D01*
X115671321Y-84521631D01*
X115636818Y-84540074D01*
X115576426Y-84558393D01*
X115522202Y-84579400D01*
X115483049Y-84586719D01*
X115439845Y-84599825D01*
X115382985Y-84605425D01*
X115331830Y-84614988D01*
X115285889Y-84614988D01*
X115235000Y-84620000D01*
X115184111Y-84614988D01*
X115138170Y-84614988D01*
X115087014Y-84605424D01*
X115030155Y-84599825D01*
X114986952Y-84586719D01*
X114947797Y-84579400D01*
X114893569Y-84558392D01*
X114833182Y-84540074D01*
X114798680Y-84521632D01*
X114767213Y-84509442D01*
X114712535Y-84475586D01*
X114651651Y-84443043D01*
X114626068Y-84422047D01*
X114602557Y-84407490D01*
X114550454Y-84359992D01*
X114492538Y-84312462D01*
X114475378Y-84291553D01*
X114459435Y-84277019D01*
X114413158Y-84215737D01*
X114361957Y-84153349D01*
X114352053Y-84134820D01*
X114342726Y-84122469D01*
X114305620Y-84047951D01*
X114264926Y-83971818D01*
X114260585Y-83957509D01*
X114256403Y-83949110D01*
X114231693Y-83862264D01*
X114205175Y-83774845D01*
X114204303Y-83766000D01*
X114203405Y-83762841D01*
X114194050Y-83661891D01*
X114185000Y-83570000D01*
X114194049Y-83478116D01*
X114203405Y-83377158D01*
X114204304Y-83373998D01*
X114205175Y-83365155D01*
X114231688Y-83277750D01*
X114256403Y-83190889D01*
X114260586Y-83182487D01*
X114264926Y-83168182D01*
X114305613Y-83092061D01*
X114342726Y-83017530D01*
X114352054Y-83005176D01*
X114361957Y-82986651D01*
X114413148Y-82924274D01*
X114459435Y-82862980D01*
X114475381Y-82848442D01*
X114492538Y-82827538D01*
X114550443Y-82780016D01*
X114602557Y-82732509D01*
X114626073Y-82717948D01*
X114651651Y-82696957D01*
X114712523Y-82664419D01*
X114767213Y-82630557D01*
X114798687Y-82618363D01*
X114833182Y-82599926D01*
X114893557Y-82581611D01*
X114947797Y-82560599D01*
X114986959Y-82553278D01*
X115030155Y-82540175D01*
X115087011Y-82534575D01*
X115138170Y-82525012D01*
X115184111Y-82525012D01*
X115235000Y-82520000D01*
X115285889Y-82525012D01*
G37*
G36*
X117825889Y-82525012D02*
G01*
X117871830Y-82525012D01*
X117922988Y-82534575D01*
X117979845Y-82540175D01*
X118023042Y-82553278D01*
X118062202Y-82560599D01*
X118116438Y-82581609D01*
X118176818Y-82599926D01*
X118211315Y-82618365D01*
X118242786Y-82630557D01*
X118297469Y-82664415D01*
X118358349Y-82696957D01*
X118383929Y-82717950D01*
X118407442Y-82732509D01*
X118459546Y-82780008D01*
X118517462Y-82827538D01*
X118534621Y-82848446D01*
X118550564Y-82862980D01*
X118596838Y-82924258D01*
X118648043Y-82986651D01*
X118657947Y-83005180D01*
X118667273Y-83017530D01*
X118704372Y-83092034D01*
X118745074Y-83168182D01*
X118749415Y-83182492D01*
X118753596Y-83190889D01*
X118778295Y-83277697D01*
X118804825Y-83365155D01*
X118805696Y-83374003D01*
X118806594Y-83377158D01*
X118815933Y-83477944D01*
X118825000Y-83570000D01*
X118815932Y-83662063D01*
X118806594Y-83762841D01*
X118805696Y-83765994D01*
X118804825Y-83774845D01*
X118778290Y-83862317D01*
X118753596Y-83949110D01*
X118749415Y-83957504D01*
X118745074Y-83971818D01*
X118704364Y-84047979D01*
X118667273Y-84122469D01*
X118657949Y-84134815D01*
X118648043Y-84153349D01*
X118596829Y-84215752D01*
X118550564Y-84277019D01*
X118534624Y-84291549D01*
X118517462Y-84312462D01*
X118459535Y-84360000D01*
X118407442Y-84407490D01*
X118383934Y-84422045D01*
X118358349Y-84443043D01*
X118297457Y-84475590D01*
X118242786Y-84509442D01*
X118211321Y-84521631D01*
X118176818Y-84540074D01*
X118116426Y-84558393D01*
X118062202Y-84579400D01*
X118023049Y-84586719D01*
X117979845Y-84599825D01*
X117922985Y-84605425D01*
X117871830Y-84614988D01*
X117825889Y-84614988D01*
X117775000Y-84620000D01*
X117724111Y-84614988D01*
X117678170Y-84614988D01*
X117627014Y-84605424D01*
X117570155Y-84599825D01*
X117526952Y-84586719D01*
X117487797Y-84579400D01*
X117433569Y-84558392D01*
X117373182Y-84540074D01*
X117338680Y-84521632D01*
X117307213Y-84509442D01*
X117252535Y-84475586D01*
X117191651Y-84443043D01*
X117166068Y-84422047D01*
X117142557Y-84407490D01*
X117090454Y-84359992D01*
X117032538Y-84312462D01*
X117015378Y-84291553D01*
X116999435Y-84277019D01*
X116953158Y-84215737D01*
X116901957Y-84153349D01*
X116892053Y-84134820D01*
X116882726Y-84122469D01*
X116845620Y-84047951D01*
X116804926Y-83971818D01*
X116800585Y-83957509D01*
X116796403Y-83949110D01*
X116771693Y-83862264D01*
X116745175Y-83774845D01*
X116744303Y-83766000D01*
X116743405Y-83762841D01*
X116734050Y-83661891D01*
X116725000Y-83570000D01*
X116734049Y-83478116D01*
X116743405Y-83377158D01*
X116744304Y-83373998D01*
X116745175Y-83365155D01*
X116771688Y-83277750D01*
X116796403Y-83190889D01*
X116800586Y-83182487D01*
X116804926Y-83168182D01*
X116845613Y-83092061D01*
X116882726Y-83017530D01*
X116892054Y-83005176D01*
X116901957Y-82986651D01*
X116953148Y-82924274D01*
X116999435Y-82862980D01*
X117015381Y-82848442D01*
X117032538Y-82827538D01*
X117090443Y-82780016D01*
X117142557Y-82732509D01*
X117166073Y-82717948D01*
X117191651Y-82696957D01*
X117252523Y-82664419D01*
X117307213Y-82630557D01*
X117338687Y-82618363D01*
X117373182Y-82599926D01*
X117433557Y-82581611D01*
X117487797Y-82560599D01*
X117526959Y-82553278D01*
X117570155Y-82540175D01*
X117627011Y-82534575D01*
X117678170Y-82525012D01*
X117724111Y-82525012D01*
X117775000Y-82520000D01*
X117825889Y-82525012D01*
G37*
G36*
X120365889Y-82525012D02*
G01*
X120411830Y-82525012D01*
X120462988Y-82534575D01*
X120519845Y-82540175D01*
X120563042Y-82553278D01*
X120602202Y-82560599D01*
X120656438Y-82581609D01*
X120716818Y-82599926D01*
X120751315Y-82618365D01*
X120782786Y-82630557D01*
X120837469Y-82664415D01*
X120898349Y-82696957D01*
X120923929Y-82717950D01*
X120947442Y-82732509D01*
X120999546Y-82780008D01*
X121057462Y-82827538D01*
X121074621Y-82848446D01*
X121090564Y-82862980D01*
X121136838Y-82924258D01*
X121188043Y-82986651D01*
X121197947Y-83005180D01*
X121207273Y-83017530D01*
X121244372Y-83092034D01*
X121285074Y-83168182D01*
X121289415Y-83182492D01*
X121293596Y-83190889D01*
X121318295Y-83277697D01*
X121344825Y-83365155D01*
X121345696Y-83374003D01*
X121346594Y-83377158D01*
X121355933Y-83477944D01*
X121365000Y-83570000D01*
X121355932Y-83662063D01*
X121346594Y-83762841D01*
X121345696Y-83765994D01*
X121344825Y-83774845D01*
X121318290Y-83862317D01*
X121293596Y-83949110D01*
X121289415Y-83957504D01*
X121285074Y-83971818D01*
X121244364Y-84047979D01*
X121207273Y-84122469D01*
X121197949Y-84134815D01*
X121188043Y-84153349D01*
X121136829Y-84215752D01*
X121090564Y-84277019D01*
X121074624Y-84291549D01*
X121057462Y-84312462D01*
X120999535Y-84360000D01*
X120947442Y-84407490D01*
X120923934Y-84422045D01*
X120898349Y-84443043D01*
X120837457Y-84475590D01*
X120782786Y-84509442D01*
X120751321Y-84521631D01*
X120716818Y-84540074D01*
X120656426Y-84558393D01*
X120602202Y-84579400D01*
X120563049Y-84586719D01*
X120519845Y-84599825D01*
X120462985Y-84605425D01*
X120411830Y-84614988D01*
X120365889Y-84614988D01*
X120315000Y-84620000D01*
X120264111Y-84614988D01*
X120218170Y-84614988D01*
X120167014Y-84605424D01*
X120110155Y-84599825D01*
X120066952Y-84586719D01*
X120027797Y-84579400D01*
X119973569Y-84558392D01*
X119913182Y-84540074D01*
X119878680Y-84521632D01*
X119847213Y-84509442D01*
X119792535Y-84475586D01*
X119731651Y-84443043D01*
X119706068Y-84422047D01*
X119682557Y-84407490D01*
X119630454Y-84359992D01*
X119572538Y-84312462D01*
X119555378Y-84291553D01*
X119539435Y-84277019D01*
X119493158Y-84215737D01*
X119441957Y-84153349D01*
X119432053Y-84134820D01*
X119422726Y-84122469D01*
X119385620Y-84047951D01*
X119344926Y-83971818D01*
X119340585Y-83957509D01*
X119336403Y-83949110D01*
X119311693Y-83862264D01*
X119285175Y-83774845D01*
X119284303Y-83766000D01*
X119283405Y-83762841D01*
X119274050Y-83661891D01*
X119265000Y-83570000D01*
X119274049Y-83478116D01*
X119283405Y-83377158D01*
X119284304Y-83373998D01*
X119285175Y-83365155D01*
X119311688Y-83277750D01*
X119336403Y-83190889D01*
X119340586Y-83182487D01*
X119344926Y-83168182D01*
X119385613Y-83092061D01*
X119422726Y-83017530D01*
X119432054Y-83005176D01*
X119441957Y-82986651D01*
X119493148Y-82924274D01*
X119539435Y-82862980D01*
X119555381Y-82848442D01*
X119572538Y-82827538D01*
X119630443Y-82780016D01*
X119682557Y-82732509D01*
X119706073Y-82717948D01*
X119731651Y-82696957D01*
X119792523Y-82664419D01*
X119847213Y-82630557D01*
X119878687Y-82618363D01*
X119913182Y-82599926D01*
X119973557Y-82581611D01*
X120027797Y-82560599D01*
X120066959Y-82553278D01*
X120110155Y-82540175D01*
X120167011Y-82534575D01*
X120218170Y-82525012D01*
X120264111Y-82525012D01*
X120315000Y-82520000D01*
X120365889Y-82525012D01*
G37*
G36*
X123721043Y-82523191D02*
G01*
X123753727Y-82527494D01*
X123761948Y-82531327D01*
X123781537Y-82535224D01*
X123807480Y-82552559D01*
X123818608Y-82557748D01*
X123825378Y-82564518D01*
X123846421Y-82578579D01*
X123860481Y-82599621D01*
X123867251Y-82606391D01*
X123872438Y-82617516D01*
X123889776Y-82643463D01*
X123893672Y-82663053D01*
X123897505Y-82671272D01*
X123901806Y-82703945D01*
X123905000Y-82720000D01*
X123905000Y-84420000D01*
X123901805Y-84436058D01*
X123897505Y-84468727D01*
X123893673Y-84476944D01*
X123889776Y-84496537D01*
X123872437Y-84522485D01*
X123867251Y-84533608D01*
X123860483Y-84540375D01*
X123846421Y-84561421D01*
X123825375Y-84575483D01*
X123818608Y-84582251D01*
X123807485Y-84587437D01*
X123781537Y-84604776D01*
X123761944Y-84608673D01*
X123753727Y-84612505D01*
X123721056Y-84616806D01*
X123705000Y-84620000D01*
X122005000Y-84620000D01*
X121988943Y-84616806D01*
X121956272Y-84612505D01*
X121948053Y-84608672D01*
X121928463Y-84604776D01*
X121902516Y-84587438D01*
X121891391Y-84582251D01*
X121884621Y-84575481D01*
X121863579Y-84561421D01*
X121849518Y-84540378D01*
X121842748Y-84533608D01*
X121837559Y-84522480D01*
X121820224Y-84496537D01*
X121816327Y-84476948D01*
X121812494Y-84468727D01*
X121808190Y-84436041D01*
X121805000Y-84420000D01*
X121805000Y-82720000D01*
X121808190Y-82703958D01*
X121812494Y-82671272D01*
X121816327Y-82663049D01*
X121820224Y-82643463D01*
X121837557Y-82617521D01*
X121842748Y-82606391D01*
X121849520Y-82599618D01*
X121863579Y-82578579D01*
X121884618Y-82564520D01*
X121891391Y-82557748D01*
X121902521Y-82552557D01*
X121928463Y-82535224D01*
X121948049Y-82531327D01*
X121956272Y-82527494D01*
X121988960Y-82523190D01*
X122005000Y-82520000D01*
X123705000Y-82520000D01*
X123721043Y-82523191D01*
G37*
M02*
